<?xml version="1.0" encoding="UTF-8"?><svg id="Layer_2" xmlns="http://www.w3.org/2000/svg" width="1137.66" height="531.93" viewBox="0 0 1137.66 531.93"><defs><style>.cls-1{fill:none;stroke:#354c82;stroke-miterlimit:10;stroke-width:12px;}.cls-2{fill:#354c82;}</style></defs><g id="Layer_2-2"><path class="cls-2" d="m296.04,181.08c-11.7,13.2-26.46,19.62-45.12,19.62s-33.36-6.42-45.06-19.62c-11.7-13.14-17.58-29.58-17.58-48.96s5.88-35.82,17.46-48.9c11.64-13.14,26.4-19.5,45.06-19.5s33.54,6.42,45.24,19.5c11.7,13.08,17.58,29.52,17.58,48.9s-5.94,35.82-17.58,48.96h0Zm-45.24-135c-23.52,0-43.32,8.4-58.8,24.96-15.36,16.44-23.16,37.02-23.16,61.08s7.8,44.64,23.16,61.14c15.48,16.62,35.22,25.08,58.8,25.08s43.44-8.46,58.98-25.08c15.42-16.5,23.28-37.14,23.28-61.14s-7.86-44.64-23.28-61.14c-15.54-16.5-35.4-24.9-58.98-24.9"/><path class="cls-2" d="m407.82,130.32c-6.84-4.8-13.8-9.6-20.7-14.22-6.48-4.32-12.12-9.36-16.68-15-4.26-5.22-6.3-10.68-6.3-16.68,0-8.46,2.88-19.74,28.02-19.74,9.96,0,20.16,2.22,30.3,6.48l3.54,1.56,6.84-15.66-3.48-1.62c-11.7-5.46-24.54-8.28-38.16-8.28s-25.2,3.36-33.6,9.96c-8.58,6.84-12.96,16.14-12.96,27.78,0,8.64,2.64,16.86,7.92,24.36,5.04,7.2,11.28,13.5,18.48,18.72,6.96,5.04,13.92,9.96,20.64,14.64,6.54,4.5,12.18,9.6,16.74,15.24,4.26,5.22,6.36,10.56,6.36,16.26,0,8.22-2.76,14.34-8.52,18.66-6,4.5-14.94,6.78-26.58,6.78s-22.68-3.3-32.46-9.66l-3.3-2.16-9.48,14.28,3.06,2.22c11.7,8.52,26.04,12.84,42.54,12.84s29.76-3.72,39.3-11.04c9.9-7.56,14.94-18.72,14.94-33.24,0-8.7-2.7-16.86-7.98-24.24-5.04-7.02-11.28-13.2-18.48-18.24h0Z"/><polygon class="cls-2" points="485.22 133.56 541.56 133.56 541.56 116.7 485.22 116.7 485.22 66.9 547.44 66.9 547.44 49.8 466.8 49.8 466.8 214.44 549.9 214.44 549.9 197.34 485.22 197.34 485.22 133.56"/><path class="cls-2" d="m706.26,167.28c0,4.2.06,8.22.18,12-2.58-3.12-5.46-6.6-8.64-10.38l-104.4-120.42h-10.56v165.96h18.36v-117.18l-.24-11.88c1.92,2.28,4.14,4.86,6.72,7.8l106.44,122.58h10.5V49.8h-18.36v117.48h0Z"/><polygon class="cls-2" points="879.12 118.62 779.34 118.62 779.34 49.8 760.98 49.8 760.98 214.44 779.34 214.44 779.34 135.96 879.12 135.96 879.12 214.44 897.54 214.44 897.54 49.8 879.12 49.8 879.12 118.62"/><path class="cls-2" d="m1068.24,133.62c0,20.58-6.3,38.04-18.66,52.02-12.42,13.98-28.14,20.76-48,20.76-12.48,0-23.7-3-33.54-8.94l80.46-116.76c13.08,13.68,19.74,31.44,19.74,52.92h0Zm-33.18-63.6l-80.4,116.58c-12.96-13.74-19.5-30.84-19.5-50.94,0-21.9,6.24-40.02,18.54-53.88,12.36-13.92,28.02-20.7,47.88-20.7,12.42,0,23.7,3,33.48,8.94m45.06,23.64h0c-4.98-11.1-11.94-20.76-20.64-28.68l14.58-21.24-13.92-10.02-14.46,21.12c-13.14-7.92-27.96-11.94-44.1-11.94-24.9,0-45.78,8.82-62.04,26.28-16.26,17.4-24.48,39.06-24.48,64.44,0,14.34,2.76,27.78,8.22,39.96,4.98,11.16,11.88,20.88,20.58,28.92l-14.58,21.06,13.98,9.66,14.22-20.58c13.14,7.98,27.96,12,44.1,12,24.84,0,45.78-8.88,62.16-26.4,16.32-17.46,24.6-39.24,24.6-64.62,0-14.28-2.76-27.72-8.22-39.96"/><path class="cls-2" d="m78,154.74c11.64,0,24-7.62,37.2-22.92s19.8-33.06,19.8-53.28-6.78-35.46-20.34-45.9c-13.62-10.44-31.62-15.66-54.06-15.66-11.88,0-25.74.54-41.58,1.62v134.16c21.12,1.32,40.8,1.98,58.98,1.98h0ZM0,284.58V2.76C25.08.9,46.08,0,62.94,0c26.94,0,49.14,6.9,66.54,20.76s26.1,33.42,26.1,58.8c0,17.16-4.98,33.12-15,47.88-10.08,14.76-21.24,26.52-33.66,35.22,9.78,13.5,21.84,29.52,36.24,48.12,14.34,18.6,23.64,30.3,27.9,35.04,16.08,17.16,34.26,26.88,54.6,29.28l-.36,12.66c-16.14-.24-29.16-2.7-39.24-7.32-10.02-4.62-19.56-11.7-28.68-21.18-9.12-9.48-31.74-39.06-67.86-88.68-25.92,0-49.38-.78-70.5-2.34v116.34H0Z"/><path class="cls-2" d="m1137.66,2.46v147.42c0,16.74-.78,31.86-3.12,45.42-2.7,15.84-7.5,29.58-15.66,41.16-7.02,10.26-41.82,49.86-102,50.46l-.42-12.72c54.78-7.02,74.82-33.9,89.1-52.5v-.06c10.62-17.46,12.66-35.64,12.66-58.8V2.46h19.44Z"/><line class="cls-1" x1="276.15" y1="280.44" x2="977.33" y2="280.44"/><path class="cls-2" d="m422.37,487.15v-109.25l-46.96,83.78h-10.15l-47.16-83.78v109.25h-17.91v-141.29h18.9l51.14,91.74,51.34-91.74h18.71v141.29h-17.91Z"/><path class="cls-2" d="m580.18,471.23v15.92h-95.92v-141.29h94.13v15.92h-76.22v45.77h66.27v14.92h-66.27v48.75h78.01Z"/><path class="cls-2" d="m632.72,379.29v107.86h-17.91v-141.29h13.93l87.56,110.05v-109.85h17.91v141.09h-15.12l-86.37-107.86Z"/><path class="cls-2" d="m836.29,472.03c8.22,0,15.05-1.59,20.5-4.78,5.44-3.18,9.78-7.33,13.04-12.44,3.25-5.11,5.54-10.94,6.87-17.51,1.32-6.57,1.99-13.23,1.99-20v-71.44h17.91v71.44c0,9.55-1.09,18.61-3.28,27.16-2.19,8.56-5.67,16.09-10.45,22.59-4.78,6.5-10.98,11.64-18.61,15.42-7.63,3.78-16.88,5.67-27.76,5.67s-20.76-1.99-28.46-5.97c-7.7-3.98-13.9-9.25-18.61-15.82-4.71-6.57-8.09-14.13-10.15-22.69-2.06-8.56-3.08-17.34-3.08-26.37v-71.44h17.91v71.44c0,7.03.7,13.83,2.09,20.4,1.39,6.57,3.71,12.37,6.96,17.41,3.25,5.04,7.56,9.12,12.93,12.24,5.37,3.12,12.11,4.68,20.2,4.68Z"/></g></svg>