<svg width="337" height="240" viewBox="0 0 337 240" fill="none" xmlns="http://www.w3.org/2000/svg">
<path d="M174.278 104.213V20.6396H138.04L119.823 2.47144H80.3215L62.6802 20.0655H0.558594V170.755H62.6858C64.5913 181.717 72.4927 186.906 85.3842 187.296V170.755H174.284V127.347" fill="white"/>
<path d="M174.278 20.6396H272.766Z" fill="white"/>
<path d="M174.278 170.755H215.875V154.671C228.029 152.799 237.014 157.279 237.109 170.755H334.62V20.6396H295.202" fill="white"/>
<path d="M334.614 171.268L335.435 239.443H254.527V189.219H240.339" fill="white"/>
<path d="M244.094 187.781H222.033V190.004H244.094V187.781Z" fill="white"/>
<path d="M206.627 170.755V188.89H222.033" fill="white"/>
<path d="M314.765 90.8543H260.679C259.383 90.8543 258.332 91.9023 258.332 93.195V164.987C258.332 166.28 259.383 167.328 260.679 167.328H314.765C316.062 167.328 317.112 166.28 317.112 164.987V93.195C317.112 91.9023 316.062 90.8543 314.765 90.8543Z" fill="white"/>
<path d="M170.668 51.4473H156.519V99.5984H170.668V51.4473Z" fill="white"/>
<path d="M168.271 53.9998H166.192V97.3692H168.271V53.9998Z" fill="white"/>
<path d="M160.744 41.6778C165.336 41.6778 169.059 37.965 169.059 33.3851C169.059 28.8052 165.336 25.0924 160.744 25.0924C156.152 25.0924 152.429 28.8052 152.429 33.3851C152.429 37.965 156.152 41.6778 160.744 41.6778Z" fill="white"/>
<path d="M164.963 152.186H148.786V168.32H164.963V152.186Z" fill="white"/>
<path d="M157.592 164.725C157.844 164.641 158.81 164.29 159.33 163.298C159.878 162.251 159.699 160.902 158.872 159.882C158.894 159.949 159 160.261 158.844 160.595C158.637 161.047 158.14 161.125 158.101 161.13C158.307 160.841 158.693 160.211 158.637 159.425C158.548 158.205 157.43 157.084 155.854 156.772C155.966 156.917 156.111 157.129 156.24 157.408C156.346 157.647 156.48 157.954 156.469 158.271C156.458 158.701 156.111 159.096 155.418 159.876C154.994 160.356 154.893 160.406 154.804 160.64C154.619 161.119 154.753 161.626 154.904 161.989C154.821 161.944 154.603 161.805 154.468 161.532C154.351 161.292 154.357 161.069 154.368 160.969C154.223 161.275 154.072 161.721 154.111 162.245C154.2 163.315 155.055 164.268 156.285 164.719C156.195 164.68 155.592 164.413 155.363 163.727C155.122 163.003 155.491 162.401 155.541 162.323C155.541 162.451 155.547 162.669 155.642 162.908C155.748 163.176 156.15 163.594 156.245 163.688C156.145 163.488 155.726 162.802 155.821 162.273C155.96 161.521 157.458 160.35 157.458 160.35C157.458 160.35 157.285 160.757 157.201 161.147C157.117 161.537 157.011 162.145 157.536 162.496C157.682 162.613 157.922 162.802 158.006 163.081C158.168 163.622 158.179 164.279 157.587 164.714L157.592 164.725Z" fill="#231F20"/>
<path d="M26.146 53.5985H7.45976C6.2901 53.5985 5.34191 54.5442 5.34191 55.7107V112.656C5.34191 113.823 6.2901 114.768 7.45976 114.768H26.146C27.3156 114.768 28.2638 113.823 28.2638 112.656V55.7107C28.2638 54.5442 27.3156 53.5985 26.146 53.5985Z" fill="white"/>
<path d="M7.94591 52.601H4.67694C3.72023 52.601 2.94466 53.3745 2.94466 54.3286V114.908C2.94466 115.862 3.72023 116.635 4.67694 116.635H7.94591C8.90262 116.635 9.67819 115.862 9.67819 114.908V54.3286C9.67819 53.3745 8.90262 52.601 7.94591 52.601Z" fill="white"/>
<path d="M11.0193 52.601H25.9951C26.7327 52.601 27.3362 53.1973 27.3362 53.9385V54.7967C27.3362 56.5913 25.8722 58.0514 24.0728 58.0514H11.0193C10.2817 58.0514 9.67819 57.4551 9.67819 56.7139V53.9385C9.67819 53.2029 10.2761 52.601 11.0193 52.601Z" fill="white"/>
<path d="M11.254 111.185H24.4752C26.051 111.185 27.3362 112.461 27.3362 114.038V115.069C27.3362 115.933 26.6321 116.641 25.7604 116.641H11.254C10.3879 116.641 9.67819 115.939 9.67819 115.069V112.756C9.67819 111.893 10.3823 111.185 11.254 111.185Z" fill="white"/>
<path d="M50.9622 61.4956H39.1883C37.5527 61.4956 36.2267 62.818 36.2267 64.4493V103.923C36.2267 105.554 37.5527 106.877 39.1883 106.877H50.9622C52.5979 106.877 53.9239 105.554 53.9239 103.923V64.4493C53.9239 62.818 52.5979 61.4956 50.9622 61.4956Z" fill="white"/>
<path d="M20.1054 120.904H4.41989V136.548H20.1054V120.904Z" fill="white"/>
<path d="M48.0285 80.5386C48.8155 80.5386 49.4535 79.9024 49.4535 79.1175C49.4535 78.3326 48.8155 77.6964 48.0285 77.6964C47.2416 77.6964 46.6036 78.3326 46.6036 79.1175C46.6036 79.9024 47.2416 80.5386 48.0285 80.5386Z" fill="white"/>
<path d="M46.9109 84.5178C47.7257 84.5178 48.3862 83.8591 48.3862 83.0465C48.3862 82.2339 47.7257 81.5752 46.9109 81.5752C46.0962 81.5752 45.4357 82.2339 45.4357 83.0465C45.4357 83.8591 46.0962 84.5178 46.9109 84.5178Z" fill="white"/>
<path d="M44.441 81.1071C44.9904 81.1071 45.4357 80.663 45.4357 80.1151C45.4357 79.5672 44.9904 79.1231 44.441 79.1231C43.8917 79.1231 43.4464 79.5672 43.4464 80.1151C43.4464 80.663 43.8917 81.1071 44.441 81.1071Z" fill="white"/>
<path d="M11.6787 37.6708C15.6907 37.6708 18.9431 34.4271 18.9431 30.4258C18.9431 26.4245 15.6907 23.1809 11.6787 23.1809C7.66668 23.1809 4.4143 26.4245 4.4143 30.4258C4.4143 34.4271 7.66668 37.6708 11.6787 37.6708Z" fill="white"/>
<path d="M78.5293 16.8248L75.2084 19.9897C72.8188 22.2672 72.7329 26.0454 75.0164 28.4286L78.1898 31.7406C80.4734 34.1238 84.2618 34.2095 86.6514 31.9321L89.9722 28.7671C92.3618 26.4896 92.4478 22.7114 90.1642 20.3282L86.9908 17.0163C84.7072 14.6331 80.9189 14.5473 78.5293 16.8248Z" fill="white"/>
<path d="M84.0183 13.9022L84.0142 13.906C82.9343 14.9352 82.8955 16.6427 83.9275 17.7197L89.869 23.9205C90.901 24.9975 92.613 25.0363 93.6929 24.0071L93.6969 24.0032C94.7768 22.974 94.8157 21.2666 93.7837 20.1896L87.8422 13.9887C86.8102 12.9117 85.0982 12.873 84.0183 13.9022Z" fill="white"/>
<path d="M71.7691 25.0326L71.7651 25.0364C70.6852 26.0656 70.6463 27.773 71.6783 28.8501L77.6198 35.0509C78.6518 36.1279 80.3638 36.1666 81.4437 35.1374L81.4478 35.1336C82.5277 34.1044 82.5665 32.3969 81.5345 31.3199L75.593 25.1191C74.561 24.0421 72.849 24.0033 71.7691 25.0326Z" fill="white"/>
<path d="M83.5927 11.9944L83.5888 11.9904C82.397 10.7465 80.4197 10.7017 79.1724 11.8904L70.1109 20.5267C68.8636 21.7154 68.8188 23.6874 70.0106 24.9313L70.0145 24.9353C71.2064 26.1792 73.1837 26.224 74.4309 25.0353L83.4925 16.399C84.7397 15.2103 84.7846 13.2383 83.5927 11.9944Z" fill="white"/>
<path d="M124.672 18.5835L121.498 15.2715C119.215 12.8883 115.426 12.8026 113.037 15.08L109.716 18.245C107.326 20.5224 107.24 24.3007 109.524 26.6839L112.697 29.9958C114.981 32.379 118.769 32.4648 121.159 30.1873L124.48 27.0224C126.869 24.7449 126.955 20.9667 124.672 18.5835Z" fill="white"/>
<path d="M127.598 24.0485L127.594 24.0445C126.562 22.9675 124.85 22.9287 123.77 23.9579L117.553 29.8836C116.473 30.9128 116.434 32.6202 117.466 33.6972L117.47 33.7012C118.502 34.7782 120.214 34.817 121.294 33.7878L127.511 27.8622C128.591 26.8329 128.63 25.1255 127.598 24.0485Z" fill="white"/>
<path d="M116.441 11.8352L116.437 11.8312C115.405 10.7542 113.693 10.7154 112.613 11.7447L106.396 17.6703C105.316 18.6995 105.277 20.4069 106.309 21.484L106.313 21.488C107.345 22.565 109.057 22.6037 110.137 21.5745L116.354 15.6489C117.434 14.6197 117.473 12.9122 116.441 11.8352Z" fill="white"/>
<path d="M129.512 23.6277L129.516 23.6239C130.763 22.4352 130.808 20.4632 129.616 19.2192L120.957 10.1819C119.765 8.93802 117.787 8.89326 116.54 10.082L116.536 10.0858C115.289 11.2745 115.244 13.2465 116.436 14.4904L125.095 23.5278C126.287 24.7717 128.265 24.8164 129.512 23.6277Z" fill="white"/>
<path d="M80.0217 4.15765L78.3306 2.47101L62.9837 17.7768L64.6749 19.4635L80.0217 4.15765Z" fill="white"/>
<path d="M135.047 19.6088L136.776 17.9609L121.782 2.31173L120.052 3.95967L135.047 19.6088Z" fill="white"/>
<path d="M118.392 3.66407V1.27881H82.4226V3.66407H118.392Z" fill="white"/>
<path d="M190.869 19.8761H179.514V21.3919H190.869V19.8761Z" fill="white"/>
<path d="M234.092 23.766H176.306V45.0829H234.092V23.766Z" fill="white"/>
<path d="M232.382 25.0924H177.698V43.6228H232.382V25.0924Z" fill="white"/>
<path d="M184.979 26.6362H183.688C181.358 26.6362 179.469 28.52 179.469 30.8438V37.0355C179.469 39.3593 181.358 41.2431 183.688 41.2431H184.979C187.309 41.2431 189.198 39.3593 189.198 37.0355V30.8438C189.198 28.52 187.309 26.6362 184.979 26.6362Z" fill="white"/>
<path d="M197.787 83.3084C201.243 83.3084 204.045 80.5139 204.045 77.0666C204.045 73.6194 201.243 70.8248 197.787 70.8248C194.33 70.8248 191.528 73.6194 191.528 77.0666C191.528 80.5139 194.33 83.3084 197.787 83.3084Z" fill="white"/>
<path d="M194.093 65.0567H176.306V94.8837H194.093V65.0567Z" fill="white"/>
<path d="M332.384 23.766H311.256V65.0567H332.384V23.766Z" fill="white"/>
<path d="M198.91 128.032H176.306V169.117H198.91V128.032Z" fill="white"/>
<path d="M254.466 158.862H243.29V169.178H254.466V158.862Z" fill="white"/>
<path d="M332.016 158.862H320.84V169.178H332.016V158.862Z" fill="white"/>
<path d="M183.688 146.858C185.951 146.891 188.209 146.919 190.472 146.953C190.483 147.047 190.494 147.209 190.494 147.415C190.483 148.468 190.047 149.99 188.846 150.614C188.712 150.687 188.483 150.787 188.17 150.848C187.443 150.859 186.711 150.865 185.985 150.876C185.672 150.77 185.342 150.609 185.035 150.363C183.593 149.221 183.671 147.187 183.688 146.869V146.858Z" fill="#231F20"/>
<path d="M190.416 147.426C190.55 147.393 190.813 147.354 191.115 147.437C191.265 147.476 191.45 147.532 191.578 147.688C191.807 147.961 191.712 148.363 191.679 148.507C191.567 148.992 191.226 149.282 191.053 149.427C190.382 149.984 189.583 150.018 189.259 150.012C189.349 149.823 189.444 149.633 189.533 149.444C189.745 149.444 190.293 149.427 190.751 149.048C190.863 148.953 191.187 148.686 191.226 148.279C191.232 148.201 191.243 148.095 191.187 148.006C191.07 147.816 190.712 147.766 190.293 147.894L190.416 147.421V147.426Z" fill="#231F20"/>
<path d="M183.532 151.333C185.906 151.316 188.281 151.3 190.656 151.283C190.673 151.311 190.684 151.361 190.679 151.411C190.662 151.506 190.561 151.562 190.522 151.584C190.36 151.673 189.505 151.868 188.332 152.074C187.516 152.074 186.7 152.074 185.884 152.08C185.493 152.03 185.079 151.968 184.649 151.879C184.37 151.823 184.102 151.757 183.85 151.69C183.632 151.645 183.492 151.528 183.498 151.422C183.498 151.4 183.504 151.366 183.537 151.327L183.532 151.333Z" fill="#231F20"/>
<path d="M188.013 146.301C188.013 146.301 188.069 146.245 188.075 146.2C188.08 146.139 188.036 146.089 188.024 146.078C187.918 145.949 187.98 145.61 188.024 145.448C188.052 145.359 188.103 145.225 188.544 144.723C188.891 144.328 188.93 144.333 188.98 144.216C189.069 144.016 189.097 143.687 188.795 143.141C188.762 143.113 188.684 143.068 188.661 143.09C188.65 143.102 188.656 143.118 188.661 143.146C188.661 143.196 188.661 143.252 188.673 143.302C188.717 143.536 188.427 143.938 188.427 143.938C188.153 144.317 188.013 144.278 187.756 144.612C187.628 144.779 187.471 144.985 187.443 145.253C187.387 145.799 187.935 146.234 188.024 146.306L188.013 146.301Z" fill="#231F20"/>
<path d="M186.694 146.139C186.694 146.139 186.75 146.083 186.756 146.039C186.761 145.977 186.717 145.927 186.706 145.916C186.599 145.788 186.661 145.448 186.706 145.286C186.734 145.197 186.784 145.063 187.225 144.562C187.572 144.166 187.611 144.172 187.661 144.055C187.751 143.854 187.778 143.525 187.477 142.979C187.443 142.951 187.365 142.907 187.343 142.929C187.331 142.94 187.337 142.957 187.343 142.985C187.343 143.035 187.343 143.09 187.354 143.141C187.398 143.375 187.108 143.776 187.108 143.776C186.834 144.155 186.694 144.116 186.437 144.45C186.309 144.618 186.152 144.824 186.124 145.091C186.069 145.637 186.616 146.072 186.706 146.145L186.694 146.139Z" fill="#231F20"/>
<path d="M321.79 47.6967C320.029 47.6967 318.269 47.6911 316.509 47.6855C316.235 47.6242 316.017 47.4236 315.939 47.1617C315.85 46.8384 316.023 46.5765 316.051 46.5431C317.599 45.6514 319.141 44.7597 320.689 43.868C320.84 43.7565 321.192 43.5281 321.695 43.489C322.438 43.4333 322.963 43.8401 323.08 43.9349C324.477 44.7263 325.874 45.5232 327.271 46.3146C327.551 46.426 327.735 46.6935 327.741 46.9889C327.741 47.301 327.545 47.5908 327.238 47.6967H321.79Z" fill="#231F20"/>
<path d="M316.576 46.8217C318.062 45.9802 319.549 45.1387 321.035 44.2971C321.192 44.2135 321.426 44.1077 321.722 44.0909C322.259 44.0575 322.672 44.3361 322.834 44.4365C323.505 44.8656 324.986 45.696 327.014 46.8162C327.132 46.8552 327.199 46.961 327.188 47.0558C327.171 47.1728 327.025 47.2787 326.858 47.2286C323.449 47.2341 320.046 47.2453 316.637 47.2508C316.626 47.2508 316.503 47.2174 316.464 47.1004C316.431 47.0001 316.475 46.883 316.576 46.8162V46.8217Z" fill="white"/>
<path d="M321.544 43.5503C321.549 43.3553 321.56 43.1602 321.566 42.9652C321.572 42.915 321.588 42.8481 321.644 42.8036C321.717 42.7423 321.801 42.7645 321.896 42.7534C322.075 42.7311 322.225 42.5974 322.298 42.4692C322.393 42.2964 322.404 42.0401 322.253 41.8561C322.063 41.6276 321.717 41.6165 321.51 41.7558C321.488 41.7725 321.303 41.9007 321.281 42.0902C321.275 42.1682 321.298 42.2017 321.27 42.2741C321.236 42.3633 321.147 42.458 321.041 42.4636C320.884 42.4748 320.756 42.2853 320.75 42.1404C320.75 42.1014 320.761 42.0512 320.789 41.9565C320.812 41.8729 320.851 41.7558 320.89 41.6667C320.996 41.4437 321.208 41.3267 321.281 41.2821C321.365 41.232 321.65 41.0759 322.019 41.1428C322.488 41.2264 322.717 41.6054 322.751 41.6667C322.79 41.7335 322.963 42.0456 322.874 42.4413C322.846 42.5528 322.779 42.7868 322.566 42.9819C322.387 43.1491 322.192 43.2104 322.097 43.2327V43.5559C321.912 43.5559 321.728 43.5559 321.544 43.5503Z" fill="#231F20"/>
<path d="M272.761 10.2068H271.006V21.1467H272.761V10.2068Z" fill="white"/>
<path d="M296.074 10.2068H294.319V21.1467H296.074V10.2068Z" fill="white"/>
<path d="M296.074 8.61851H271.006V10.7195H296.074V8.61851Z" fill="white"/>
<path d="M317.112 146.34H258.578V164.38H317.112V146.34Z" fill="#F1F2F2"/>
<path d="M335.441 125.117H333.407V154.677H335.441V125.117Z" fill="white"/>
<path d="M335.642 178.541H333.608V208.1H335.642V178.541Z" fill="white"/>
<path d="M335.441 83.1301H333.407V112.69H335.441V83.1301Z" fill="white"/>
<path d="M286.574 201.189H258.332V236.272H286.574V201.189Z" fill="white"/>
<path d="M330.188 231.629H322.404V236.879H330.188V231.629Z" fill="white"/>
<path d="M326.008 234.254C328.808 234.254 331.077 231.482 331.077 228.063C331.077 224.643 328.808 221.871 326.008 221.871C323.209 221.871 320.94 224.643 320.94 228.063C320.94 231.482 323.209 234.254 326.008 234.254Z" fill="white"/>
<path d="M274.04 218.499H268.374C268.206 218.499 268.067 218.36 268.067 218.193C268.067 218.026 268.206 217.886 268.374 217.886H274.04C274.208 217.886 274.348 218.026 274.348 218.193C274.348 218.36 274.208 218.499 274.04 218.499Z" fill="#231F20"/>
<path d="M268.402 217.596C270.263 217.591 272.118 217.58 273.979 217.574C273.917 217.424 273.314 215.991 271.822 215.652C270.939 215.451 270.218 215.741 270.022 215.824C268.866 216.331 268.475 217.407 268.408 217.596H268.402Z" fill="#231F20"/>
<path d="M270.587 215.351C271.028 215.3 271.453 215.295 271.855 215.384C271.928 215.161 272.135 214.626 272.671 214.197C272.828 214.074 273.375 213.645 274.174 213.645C275.286 213.645 275.951 214.459 276.018 214.542C276.477 215.128 276.521 215.757 276.527 215.975C276.588 218.416 276.65 220.857 276.711 223.292C277.147 223.292 277.589 223.298 278.024 223.303C277.957 220.846 277.896 218.388 277.829 215.93C277.829 215.579 277.767 214.66 277.114 213.79C276.991 213.623 276.639 213.188 276.03 212.848C275.851 212.748 274.577 212.051 273.09 212.519C271.833 212.915 270.883 214.002 270.587 215.345V215.351Z" fill="#231F20"/>
<path d="M269.553 219.803C269.754 219.803 269.916 219.641 269.916 219.441C269.916 219.241 269.754 219.079 269.553 219.079C269.352 219.079 269.19 219.241 269.19 219.441C269.19 219.641 269.352 219.803 269.553 219.803Z" fill="#231F20"/>
<path d="M271.196 219.803C271.397 219.803 271.559 219.641 271.559 219.441C271.559 219.241 271.397 219.079 271.196 219.079C270.995 219.079 270.833 219.241 270.833 219.441C270.833 219.641 270.995 219.803 271.196 219.803Z" fill="#231F20"/>
<path d="M272.828 219.803C273.028 219.803 273.191 219.641 273.191 219.441C273.191 219.241 273.028 219.079 272.828 219.079C272.627 219.079 272.464 219.241 272.464 219.441C272.464 219.641 272.627 219.803 272.828 219.803Z" fill="#231F20"/>
<path d="M268.793 221.041C268.994 221.041 269.156 220.878 269.156 220.678C269.156 220.478 268.994 220.316 268.793 220.316C268.592 220.316 268.43 220.478 268.43 220.678C268.43 220.878 268.592 221.041 268.793 221.041Z" fill="#231F20"/>
<path d="M270.442 221.041C270.642 221.041 270.805 220.878 270.805 220.678C270.805 220.478 270.642 220.316 270.442 220.316C270.241 220.316 270.078 220.478 270.078 220.678C270.078 220.878 270.241 221.041 270.442 221.041Z" fill="#231F20"/>
<path d="M272.073 221.041C272.274 221.041 272.436 220.878 272.436 220.678C272.436 220.478 272.274 220.316 272.073 220.316C271.873 220.316 271.71 220.478 271.71 220.678C271.71 220.878 271.873 221.041 272.073 221.041Z" fill="#231F20"/>
<path d="M273.588 221.041C273.788 221.041 273.951 220.878 273.951 220.678C273.951 220.478 273.788 220.316 273.588 220.316C273.387 220.316 273.224 220.478 273.224 220.678C273.224 220.878 273.387 221.041 273.588 221.041Z" fill="#231F20"/>
<path d="M268.016 222.278C268.217 222.278 268.38 222.116 268.38 221.916C268.38 221.716 268.217 221.553 268.016 221.553C267.816 221.553 267.653 221.716 267.653 221.916C267.653 222.116 267.816 222.278 268.016 222.278Z" fill="#231F20"/>
<path d="M269.665 222.278C269.865 222.278 270.028 222.116 270.028 221.916C270.028 221.716 269.865 221.553 269.665 221.553C269.464 221.553 269.302 221.716 269.302 221.916C269.302 222.116 269.464 222.278 269.665 222.278Z" fill="#231F20"/>
<path d="M271.297 222.278C271.497 222.278 271.66 222.116 271.66 221.916C271.66 221.716 271.497 221.553 271.297 221.553C271.096 221.553 270.933 221.716 270.933 221.916C270.933 222.116 271.096 222.278 271.297 222.278Z" fill="#231F20"/>
<path d="M272.811 222.278C273.011 222.278 273.174 222.116 273.174 221.916C273.174 221.716 273.011 221.553 272.811 221.553C272.61 221.553 272.448 221.716 272.448 221.916C272.448 222.116 272.61 222.278 272.811 222.278Z" fill="#231F20"/>
<path d="M274.146 222.278C274.347 222.278 274.51 222.116 274.51 221.916C274.51 221.716 274.347 221.553 274.146 221.553C273.946 221.553 273.783 221.716 273.783 221.916C273.783 222.116 273.946 222.278 274.146 222.278Z" fill="#231F20"/>
<path d="M317.112 162.774H258.662C257.844 162.774 257.181 163.436 257.181 164.251V167.227C257.181 168.043 257.844 168.704 258.662 168.704H317.112C317.93 168.704 318.593 168.043 318.593 167.227V164.251C318.593 163.436 317.93 162.774 317.112 162.774Z" fill="white"/>
<path d="M284.451 147.967H262.149C260.776 147.967 259.662 149.077 259.662 150.447V158.896C259.662 160.265 260.776 161.376 262.149 161.376H284.451C285.824 161.376 286.937 160.265 286.937 158.896V150.447C286.937 149.077 285.824 147.967 284.451 147.967Z" fill="white"/>
<path d="M313.508 147.967H290.704C289.469 147.967 288.468 148.965 288.468 150.196V159.146C288.468 160.378 289.469 161.376 290.704 161.376H313.508C314.743 161.376 315.743 160.378 315.743 159.146V150.196C315.743 148.965 314.743 147.967 313.508 147.967Z" fill="white"/>
<path d="M174.278 104.213V20.6396M174.278 20.6396H138.04L119.823 2.47144H80.3215L62.6802 20.0655H0.558594V170.755H62.6858C64.5913 181.717 72.4927 186.906 85.3842 187.296V170.755H174.284V127.347M174.278 20.6396H272.766M174.278 170.755H215.875V154.671C228.029 152.799 237.014 157.279 237.109 170.755H334.62V20.6396H295.202M334.614 171.268L335.435 239.443H254.527V189.219H240.339M255.047 189.246H269.106C269.844 179.839 266.441 172.733 255.047 170.755M206.627 170.755V188.89H222.033M32.846 44.9993V47.262M33.9636 44.9993V47.262M35.0812 44.9993V47.262M36.1317 44.9993V47.262M37.2493 44.9993V47.262M38.3669 44.9993V47.262M39.4063 44.9993V47.262M40.5239 44.9993V47.262M41.6415 44.9993V47.262M42.692 44.9993V47.262M43.8096 44.9993V47.262M44.9272 44.9993V47.262M46.1398 44.9993V47.262M47.2574 44.9993V47.262M48.375 44.9993V47.262M49.4255 44.9993V47.262M50.5431 44.9993V47.262M51.6607 44.9993V47.262M52.6945 44.9993V47.262M53.8121 44.9993V47.262M54.9297 44.9993V47.262M55.9802 44.9993V47.262M57.0978 44.9993V47.262M58.2154 44.9993V47.262M59.266 44.9993V47.262M60.3836 44.9993V47.262M61.4341 44.9993V47.262M62.5517 44.9993V47.262M33.008 138.03V140.293M34.1256 138.03V140.293M35.2432 138.03V140.293M36.2938 138.03V140.293M37.4114 138.03V140.293M38.529 138.03V140.293M39.5683 138.03V140.293M40.6859 138.03V140.293M41.8035 138.03V140.293M42.8541 138.03V140.293M43.9717 138.03V140.293M45.0893 138.03V140.293M46.3018 138.03V140.293M47.4194 138.03V140.293M48.537 138.03V140.293M49.5876 138.03V140.293M50.7052 138.03V140.293M51.8228 138.03V140.293M52.8566 138.03V140.293M53.9742 138.03V140.293M55.0917 138.03V140.293M56.1423 138.03V140.293M57.2599 138.03V140.293M58.3775 138.03V140.293M59.428 138.03V140.293M60.5456 138.03V140.293M61.5962 138.03V140.293M62.7138 138.03V140.293M306.356 52.7626H304.087M306.356 53.8772H304.087M306.356 54.9918H304.087M306.356 56.0395H304.087M306.356 57.1541H304.087M306.356 58.2688H304.087M306.356 59.2998H304.087M306.356 60.4144H304.087M306.356 61.529H304.087M306.356 62.5767H304.087M306.356 63.6913H304.087M306.356 64.8059H304.087M306.356 66.0153H304.087M306.356 67.1299H304.087M306.356 68.2445H304.087M306.356 69.2922H304.087M306.356 70.4068H304.087M306.356 71.5215H304.087M306.356 72.558H304.087M306.356 73.6726H304.087M306.356 74.7873H304.087M306.356 75.835H304.087M306.356 76.9496H304.087M306.356 78.0642H304.087M306.356 79.1119H304.087M306.356 80.2265H304.087M306.356 81.2743H304.087M306.356 82.3889H304.087M213.075 52.9242H210.807M213.075 54.0388H210.807M213.075 55.1534H210.807M213.075 56.2012H210.807M213.075 57.3158H210.807M213.075 58.4304H210.807M213.075 59.4614H210.807M213.075 60.576H210.807M213.075 61.6906H210.807M213.075 62.7383H210.807M213.075 63.853H210.807M213.075 64.9676H210.807M213.075 66.1769H210.807M213.075 67.2915H210.807M213.075 68.4061H210.807M213.075 69.4539H210.807M213.075 70.5685H210.807M213.075 71.6831H210.807M213.075 72.7197H210.807M213.075 73.8343H210.807M213.075 74.9489H210.807M213.075 75.9966H210.807M213.075 77.1112H210.807M213.075 78.2258H210.807M213.075 79.2736H210.807M213.075 80.3882H210.807M213.075 81.4359H210.807M213.075 82.5505H210.807M258.494 145.983H317.28M244.094 187.781H222.033V190.004H244.094V187.781ZM314.765 90.8543H260.679C259.383 90.8543 258.332 91.9023 258.332 93.195V164.987C258.332 166.28 259.383 167.328 260.679 167.328H314.765C316.062 167.328 317.112 166.28 317.112 164.987V93.195C317.112 91.9023 316.062 90.8543 314.765 90.8543ZM32.5833 47.4459H62.982V137.88H32.5833V47.4459ZM303.902 52.5007V82.818H213.226V52.5007H303.902ZM170.668 51.4473H156.519V99.5984H170.668V51.4473ZM168.271 53.9998H166.192V97.3692H168.271V53.9998ZM160.744 41.6778C165.336 41.6778 169.059 37.965 169.059 33.3851C169.059 28.8052 165.336 25.0924 160.744 25.0924C156.152 25.0924 152.429 28.8052 152.429 33.3851C152.429 37.965 156.152 41.6778 160.744 41.6778ZM164.963 152.186H148.786V168.32H164.963V152.186ZM157.592 164.725C157.844 164.641 158.81 164.29 159.33 163.298C159.878 162.251 159.699 160.902 158.872 159.882C158.894 159.949 159 160.261 158.844 160.595C158.637 161.047 158.14 161.125 158.101 161.13C158.307 160.841 158.693 160.211 158.637 159.425C158.548 158.205 157.43 157.084 155.854 156.772C155.966 156.917 156.111 157.129 156.24 157.408C156.346 157.647 156.48 157.954 156.469 158.271C156.458 158.701 156.111 159.096 155.418 159.876C154.994 160.356 154.893 160.406 154.804 160.64C154.619 161.119 154.753 161.626 154.904 161.989C154.821 161.944 154.603 161.805 154.468 161.532C154.351 161.292 154.357 161.069 154.368 160.969C154.223 161.275 154.072 161.721 154.111 162.245C154.2 163.315 155.055 164.268 156.285 164.719C156.195 164.68 155.592 164.413 155.363 163.727C155.122 163.003 155.491 162.401 155.541 162.323C155.541 162.451 155.547 162.669 155.642 162.908C155.748 163.176 156.15 163.594 156.245 163.688C156.145 163.488 155.726 162.802 155.821 162.273C155.96 161.521 157.458 160.35 157.458 160.35C157.458 160.35 157.285 160.757 157.201 161.147C157.117 161.537 157.011 162.145 157.536 162.496C157.682 162.613 157.922 162.802 158.006 163.081C158.168 163.622 158.179 164.279 157.587 164.714L157.592 164.725ZM26.146 53.5985H7.45976C6.2901 53.5985 5.34191 54.5442 5.34191 55.7107V112.656C5.34191 113.823 6.2901 114.768 7.45976 114.768H26.146C27.3156 114.768 28.2638 113.823 28.2638 112.656V55.7107C28.2638 54.5442 27.3156 53.5985 26.146 53.5985ZM7.94591 52.601H4.67694C3.72023 52.601 2.94466 53.3745 2.94466 54.3286V114.908C2.94466 115.862 3.72023 116.635 4.67694 116.635H7.94591C8.90262 116.635 9.67819 115.862 9.67819 114.908V54.3286C9.67819 53.3745 8.90262 52.601 7.94591 52.601ZM11.0193 52.601H25.9951C26.7327 52.601 27.3362 53.1973 27.3362 53.9385V54.7967C27.3362 56.5913 25.8722 58.0514 24.0728 58.0514H11.0193C10.2817 58.0514 9.67819 57.4551 9.67819 56.7139V53.9385C9.67819 53.2029 10.2761 52.601 11.0193 52.601ZM11.254 111.185H24.4752C26.051 111.185 27.3362 112.461 27.3362 114.038V115.069C27.3362 115.933 26.6321 116.641 25.7604 116.641H11.254C10.3879 116.641 9.67819 115.939 9.67819 115.069V112.756C9.67819 111.893 10.3823 111.185 11.254 111.185ZM50.9622 61.4956H39.1883C37.5527 61.4956 36.2267 62.818 36.2267 64.4493V103.923C36.2267 105.554 37.5527 106.877 39.1883 106.877H50.9622C52.5979 106.877 53.9239 105.554 53.9239 103.923V64.4493C53.9239 62.818 52.5979 61.4956 50.9622 61.4956ZM20.1054 120.904H4.41989V136.548H20.1054V120.904ZM48.0285 80.5386C48.8155 80.5386 49.4535 79.9024 49.4535 79.1175C49.4535 78.3326 48.8155 77.6964 48.0285 77.6964C47.2416 77.6964 46.6036 78.3326 46.6036 79.1175C46.6036 79.9024 47.2416 80.5386 48.0285 80.5386ZM46.9109 84.5178C47.7257 84.5178 48.3862 83.8591 48.3862 83.0465C48.3862 82.2339 47.7257 81.5752 46.9109 81.5752C46.0962 81.5752 45.4357 82.2339 45.4357 83.0465C45.4357 83.8591 46.0962 84.5178 46.9109 84.5178ZM44.441 81.1071C44.9904 81.1071 45.4357 80.663 45.4357 80.1151C45.4357 79.5672 44.9904 79.1231 44.441 79.1231C43.8917 79.1231 43.4464 79.5672 43.4464 80.1151C43.4464 80.663 43.8917 81.1071 44.441 81.1071ZM11.6787 37.6708C15.6907 37.6708 18.9431 34.4271 18.9431 30.4258C18.9431 26.4245 15.6907 23.1809 11.6787 23.1809C7.66668 23.1809 4.4143 26.4245 4.4143 30.4258C4.4143 34.4271 7.66668 37.6708 11.6787 37.6708ZM78.5293 16.8248L75.2084 19.9897C72.8188 22.2672 72.7329 26.0454 75.0164 28.4286L78.1898 31.7406C80.4734 34.1238 84.2618 34.2095 86.6514 31.9321L89.9722 28.7671C92.3618 26.4896 92.4478 22.7114 90.1642 20.3282L86.9908 17.0163C84.7072 14.6331 80.9189 14.5473 78.5293 16.8248ZM84.0183 13.9022L84.0142 13.906C82.9343 14.9352 82.8955 16.6427 83.9275 17.7197L89.869 23.9205C90.901 24.9975 92.613 25.0363 93.6929 24.0071L93.6969 24.0032C94.7768 22.974 94.8157 21.2666 93.7837 20.1896L87.8422 13.9887C86.8102 12.9117 85.0982 12.873 84.0183 13.9022ZM71.7691 25.0326L71.7651 25.0364C70.6852 26.0656 70.6463 27.773 71.6783 28.8501L77.6198 35.0509C78.6518 36.1279 80.3638 36.1666 81.4437 35.1374L81.4478 35.1336C82.5277 34.1044 82.5665 32.3969 81.5345 31.3199L75.593 25.1191C74.561 24.0421 72.849 24.0033 71.7691 25.0326ZM83.5927 11.9944L83.5888 11.9904C82.397 10.7465 80.4197 10.7017 79.1724 11.8904L70.1109 20.5267C68.8636 21.7154 68.8188 23.6874 70.0106 24.9313L70.0145 24.9353C71.2064 26.1792 73.1837 26.224 74.4309 25.0353L83.4925 16.399C84.7397 15.2103 84.7846 13.2383 83.5927 11.9944ZM124.672 18.5835L121.498 15.2715C119.215 12.8883 115.426 12.8026 113.037 15.08L109.716 18.245C107.326 20.5224 107.24 24.3007 109.524 26.6839L112.697 29.9958C114.981 32.379 118.769 32.4648 121.159 30.1873L124.48 27.0224C126.869 24.7449 126.955 20.9667 124.672 18.5835ZM127.598 24.0485L127.594 24.0445C126.562 22.9675 124.85 22.9287 123.77 23.9579L117.553 29.8836C116.473 30.9128 116.434 32.6202 117.466 33.6972L117.47 33.7012C118.502 34.7782 120.214 34.817 121.294 33.7878L127.511 27.8622C128.591 26.8329 128.63 25.1255 127.598 24.0485ZM116.441 11.8352L116.437 11.8312C115.405 10.7542 113.693 10.7154 112.613 11.7447L106.396 17.6703C105.316 18.6995 105.277 20.4069 106.309 21.484L106.313 21.488C107.345 22.565 109.057 22.6037 110.137 21.5745L116.354 15.6489C117.434 14.6197 117.473 12.9122 116.441 11.8352ZM129.512 23.6277L129.516 23.6239C130.763 22.4352 130.808 20.4632 129.616 19.2192L120.957 10.1819C119.765 8.93802 117.787 8.89326 116.54 10.082L116.536 10.0858C115.289 11.2745 115.244 13.2465 116.436 14.4904L125.095 23.5278C126.287 24.7717 128.265 24.8164 129.512 23.6277ZM80.0217 4.15765L78.3306 2.47101L62.9837 17.7768L64.6749 19.4635L80.0217 4.15765ZM135.047 19.6088L136.776 17.9609L121.782 2.31173L120.052 3.95967L135.047 19.6088ZM118.392 3.66407V1.27881H82.4226V3.66407H118.392ZM190.869 19.8761H179.514V21.3919H190.869V19.8761ZM234.092 23.766H176.306V45.0829H234.092V23.766ZM232.382 25.0924H177.698V43.6228H232.382V25.0924ZM184.979 26.6362H183.688C181.358 26.6362 179.469 28.52 179.469 30.8438V37.0355C179.469 39.3593 181.358 41.2431 183.688 41.2431H184.979C187.309 41.2431 189.198 39.3593 189.198 37.0355V30.8438C189.198 28.52 187.309 26.6362 184.979 26.6362ZM197.787 83.3084C201.243 83.3084 204.045 80.5139 204.045 77.0666C204.045 73.6194 201.243 70.8248 197.787 70.8248C194.33 70.8248 191.528 73.6194 191.528 77.0666C191.528 80.5139 194.33 83.3084 197.787 83.3084ZM194.093 65.0567H176.306V94.8837H194.093V65.0567ZM332.384 23.766H311.256V65.0567H332.384V23.766ZM198.91 128.032H176.306V169.117H198.91V128.032ZM254.466 158.862H243.29V169.178H254.466V158.862ZM332.016 158.862H320.84V169.178H332.016V158.862ZM183.688 146.858C185.951 146.891 188.209 146.919 190.472 146.953C190.483 147.047 190.494 147.209 190.494 147.415C190.483 148.468 190.047 149.99 188.846 150.614C188.712 150.687 188.483 150.787 188.17 150.848C187.443 150.859 186.711 150.865 185.985 150.876C185.672 150.77 185.342 150.609 185.035 150.363C183.593 149.221 183.671 147.187 183.688 146.869V146.858ZM190.416 147.426C190.55 147.393 190.813 147.354 191.115 147.437C191.265 147.476 191.45 147.532 191.578 147.688C191.807 147.961 191.712 148.363 191.679 148.507C191.567 148.992 191.226 149.282 191.053 149.427C190.382 149.984 189.583 150.018 189.259 150.012C189.349 149.823 189.444 149.633 189.533 149.444C189.745 149.444 190.293 149.427 190.751 149.048C190.863 148.953 191.187 148.686 191.226 148.279C191.232 148.201 191.243 148.095 191.187 148.006C191.07 147.816 190.712 147.766 190.293 147.894L190.416 147.421V147.426ZM183.532 151.333C185.906 151.316 188.281 151.3 190.656 151.283C190.673 151.311 190.684 151.361 190.679 151.411C190.662 151.506 190.561 151.562 190.522 151.584C190.36 151.673 189.505 151.868 188.332 152.074C187.516 152.074 186.7 152.074 185.884 152.08C185.493 152.03 185.079 151.968 184.649 151.879C184.37 151.823 184.102 151.757 183.85 151.69C183.632 151.645 183.492 151.528 183.498 151.422C183.498 151.4 183.504 151.366 183.537 151.327L183.532 151.333ZM188.013 146.301C188.013 146.301 188.069 146.245 188.075 146.2C188.08 146.139 188.036 146.089 188.024 146.078C187.918 145.949 187.98 145.61 188.024 145.448C188.052 145.359 188.103 145.225 188.544 144.723C188.891 144.328 188.93 144.333 188.98 144.216C189.069 144.016 189.097 143.687 188.795 143.141C188.762 143.113 188.684 143.068 188.661 143.09C188.65 143.102 188.656 143.118 188.661 143.146C188.661 143.196 188.661 143.252 188.673 143.302C188.717 143.536 188.427 143.938 188.427 143.938C188.153 144.317 188.013 144.278 187.756 144.612C187.628 144.779 187.471 144.985 187.443 145.253C187.387 145.799 187.935 146.234 188.024 146.306L188.013 146.301ZM186.694 146.139C186.694 146.139 186.75 146.083 186.756 146.039C186.761 145.977 186.717 145.927 186.706 145.916C186.599 145.788 186.661 145.448 186.706 145.286C186.734 145.197 186.784 145.063 187.225 144.562C187.572 144.166 187.611 144.172 187.661 144.055C187.751 143.854 187.778 143.525 187.477 142.979C187.443 142.951 187.365 142.907 187.343 142.929C187.331 142.94 187.337 142.957 187.343 142.985C187.343 143.035 187.343 143.09 187.354 143.141C187.398 143.375 187.108 143.776 187.108 143.776C186.834 144.155 186.694 144.116 186.437 144.45C186.309 144.618 186.152 144.824 186.124 145.091C186.069 145.637 186.616 146.072 186.706 146.145L186.694 146.139ZM321.79 47.6967C320.029 47.6967 318.269 47.6911 316.509 47.6855C316.235 47.6242 316.017 47.4236 315.939 47.1617C315.85 46.8384 316.023 46.5765 316.051 46.5431C317.599 45.6514 319.141 44.7597 320.689 43.868C320.84 43.7565 321.192 43.5281 321.695 43.489C322.438 43.4333 322.963 43.8401 323.08 43.9349C324.477 44.7263 325.874 45.5232 327.271 46.3146C327.551 46.426 327.735 46.6935 327.741 46.9889C327.741 47.301 327.545 47.5908 327.238 47.6967H321.79ZM316.576 46.8217C318.062 45.9802 319.549 45.1387 321.035 44.2971C321.192 44.2135 321.426 44.1077 321.722 44.0909C322.259 44.0575 322.672 44.3361 322.834 44.4365C323.505 44.8656 324.986 45.696 327.014 46.8162C327.132 46.8552 327.199 46.961 327.188 47.0558C327.171 47.1728 327.025 47.2787 326.858 47.2286C323.449 47.2341 320.046 47.2453 316.637 47.2508C316.626 47.2508 316.503 47.2174 316.464 47.1004C316.431 47.0001 316.475 46.883 316.576 46.8162V46.8217ZM321.544 43.5503C321.549 43.3553 321.56 43.1602 321.566 42.9652C321.572 42.915 321.588 42.8481 321.644 42.8036C321.717 42.7423 321.801 42.7645 321.896 42.7534C322.075 42.7311 322.225 42.5974 322.298 42.4692C322.393 42.2964 322.404 42.0401 322.253 41.8561C322.063 41.6276 321.717 41.6165 321.51 41.7558C321.488 41.7725 321.303 41.9007 321.281 42.0902C321.275 42.1682 321.298 42.2017 321.27 42.2741C321.236 42.3633 321.147 42.458 321.041 42.4636C320.884 42.4748 320.756 42.2853 320.75 42.1404C320.75 42.1014 320.761 42.0512 320.789 41.9565C320.812 41.8729 320.851 41.7558 320.89 41.6667C320.996 41.4437 321.208 41.3267 321.281 41.2821C321.365 41.232 321.65 41.0759 322.019 41.1428C322.488 41.2264 322.717 41.6054 322.751 41.6667C322.79 41.7335 322.963 42.0456 322.874 42.4413C322.846 42.5528 322.779 42.7868 322.566 42.9819C322.387 43.1491 322.192 43.2104 322.097 43.2327V43.5559C321.912 43.5559 321.728 43.5559 321.544 43.5503ZM272.761 10.2068H271.006V21.1467H272.761V10.2068ZM296.074 10.2068H294.319V21.1467H296.074V10.2068ZM296.074 8.61851H271.006V10.7195H296.074V8.61851ZM317.112 146.34H258.578V164.38H317.112V146.34ZM335.441 125.117H333.407V154.677H335.441V125.117ZM335.642 178.541H333.608V208.1H335.642V178.541ZM335.441 83.1301H333.407V112.69H335.441V83.1301ZM286.574 201.189H258.332V236.272H286.574V201.189ZM330.188 231.629H322.404V236.879H330.188V231.629ZM326.008 234.254C328.808 234.254 331.077 231.482 331.077 228.063C331.077 224.643 328.808 221.871 326.008 221.871C323.209 221.871 320.94 224.643 320.94 228.063C320.94 231.482 323.209 234.254 326.008 234.254ZM274.04 218.499H268.374C268.206 218.499 268.067 218.36 268.067 218.193C268.067 218.026 268.206 217.886 268.374 217.886H274.04C274.208 217.886 274.348 218.026 274.348 218.193C274.348 218.36 274.208 218.499 274.04 218.499ZM268.402 217.596C270.263 217.591 272.118 217.58 273.979 217.574C273.917 217.424 273.314 215.991 271.822 215.652C270.939 215.451 270.218 215.741 270.022 215.824C268.866 216.331 268.475 217.407 268.408 217.596H268.402ZM270.587 215.351C271.028 215.3 271.453 215.295 271.855 215.384C271.928 215.161 272.135 214.626 272.671 214.197C272.828 214.074 273.375 213.645 274.174 213.645C275.286 213.645 275.951 214.459 276.018 214.542C276.477 215.128 276.521 215.757 276.527 215.975C276.588 218.416 276.65 220.857 276.711 223.292C277.147 223.292 277.589 223.298 278.024 223.303C277.957 220.846 277.896 218.388 277.829 215.93C277.829 215.579 277.767 214.66 277.114 213.79C276.991 213.623 276.639 213.188 276.03 212.848C275.851 212.748 274.577 212.051 273.09 212.519C271.833 212.915 270.883 214.002 270.587 215.345V215.351ZM269.553 219.803C269.754 219.803 269.916 219.641 269.916 219.441C269.916 219.241 269.754 219.079 269.553 219.079C269.352 219.079 269.19 219.241 269.19 219.441C269.19 219.641 269.352 219.803 269.553 219.803ZM271.196 219.803C271.397 219.803 271.559 219.641 271.559 219.441C271.559 219.241 271.397 219.079 271.196 219.079C270.995 219.079 270.833 219.241 270.833 219.441C270.833 219.641 270.995 219.803 271.196 219.803ZM272.828 219.803C273.028 219.803 273.191 219.641 273.191 219.441C273.191 219.241 273.028 219.079 272.828 219.079C272.627 219.079 272.464 219.241 272.464 219.441C272.464 219.641 272.627 219.803 272.828 219.803ZM268.793 221.041C268.994 221.041 269.156 220.878 269.156 220.678C269.156 220.478 268.994 220.316 268.793 220.316C268.592 220.316 268.43 220.478 268.43 220.678C268.43 220.878 268.592 221.041 268.793 221.041ZM270.442 221.041C270.642 221.041 270.805 220.878 270.805 220.678C270.805 220.478 270.642 220.316 270.442 220.316C270.241 220.316 270.078 220.478 270.078 220.678C270.078 220.878 270.241 221.041 270.442 221.041ZM272.073 221.041C272.274 221.041 272.436 220.878 272.436 220.678C272.436 220.478 272.274 220.316 272.073 220.316C271.873 220.316 271.71 220.478 271.71 220.678C271.71 220.878 271.873 221.041 272.073 221.041ZM273.588 221.041C273.788 221.041 273.951 220.878 273.951 220.678C273.951 220.478 273.788 220.316 273.588 220.316C273.387 220.316 273.224 220.478 273.224 220.678C273.224 220.878 273.387 221.041 273.588 221.041ZM268.016 222.278C268.217 222.278 268.38 222.116 268.38 221.916C268.38 221.716 268.217 221.553 268.016 221.553C267.816 221.553 267.653 221.716 267.653 221.916C267.653 222.116 267.816 222.278 268.016 222.278ZM269.665 222.278C269.865 222.278 270.028 222.116 270.028 221.916C270.028 221.716 269.865 221.553 269.665 221.553C269.464 221.553 269.302 221.716 269.302 221.916C269.302 222.116 269.464 222.278 269.665 222.278ZM271.297 222.278C271.497 222.278 271.66 222.116 271.66 221.916C271.66 221.716 271.497 221.553 271.297 221.553C271.096 221.553 270.933 221.716 270.933 221.916C270.933 222.116 271.096 222.278 271.297 222.278ZM272.811 222.278C273.011 222.278 273.174 222.116 273.174 221.916C273.174 221.716 273.011 221.553 272.811 221.553C272.61 221.553 272.448 221.716 272.448 221.916C272.448 222.116 272.61 222.278 272.811 222.278ZM274.146 222.278C274.347 222.278 274.51 222.116 274.51 221.916C274.51 221.716 274.347 221.553 274.146 221.553C273.946 221.553 273.783 221.716 273.783 221.916C273.783 222.116 273.946 222.278 274.146 222.278ZM317.112 162.774H258.662C257.844 162.774 257.181 163.436 257.181 164.251V167.227C257.181 168.043 257.844 168.704 258.662 168.704H317.112C317.93 168.704 318.593 168.043 318.593 167.227V164.251C318.593 163.436 317.93 162.774 317.112 162.774ZM284.451 147.967H262.149C260.776 147.967 259.662 149.077 259.662 150.447V158.896C259.662 160.265 260.776 161.376 262.149 161.376H284.451C285.824 161.376 286.937 160.265 286.937 158.896V150.447C286.937 149.077 285.824 147.967 284.451 147.967ZM313.508 147.967H290.704C289.469 147.967 288.468 148.965 288.468 150.196V159.146C288.468 160.378 289.469 161.376 290.704 161.376H313.508C314.743 161.376 315.743 160.378 315.743 159.146V150.196C315.743 148.965 314.743 147.967 313.508 147.967Z" stroke="#231F20" stroke-miterlimit="10"/>
</svg>
