<?xml version="1.0" encoding="UTF-8"?><svg id="Layer_2" xmlns="http://www.w3.org/2000/svg" width="587" height="443" viewBox="0 0 587 443"><defs><style>.cls-1{fill:none;stroke:#2d5e72;stroke-miterlimit:10;}</style></defs><path class="cls-1" d="m99.76,194.87c1.82,2.44,4.02,4.69,5.38,7.36,2.06,4.02,4.5,7.24,9.07,8.44,4.23,1.12,8.42,2.43,12.92,3.08-4.09-3.35-11.06-3.38-11.19-10.65.79.79,1.55,1.57,2.34,2.32,1.2,1.04,2.36,2.12,3.55,3.17,2.05,1.8,4.08,3.83,6.92,1.24,1.94,1.4,3.85,2.85,5.85,4.15.35.23,1.11-.18,1.67-.29-.41-1.67-.74-3.03-1.22-4.99-2.29.45-4.35.85-6.4,1.25-2.23-4.52-6.24-4.76-10.49-4.43,1.84-.25,3.72-.87,5.51-.67,4.33.49,8.63,1.37,13.14,2.12-.44-6-4.76-6.88-8.52-8.18-6.12-2.11-12.33-3.98-18.5-5.95,7.76,1.47,15.53,2.95,23.8,4.52,2.76-8.39,4.12-16.56,3.54-24.96-.61-.15-1.22-.31-1.83-.46-1.56,3.36-3.12,6.72-4.68,10.08.22-2.11.33-4.24.68-6.33.74-4.41,2.1-8.91-3.68-11.21-.52-.21-.54-1.7-.8-2.6l-.12.15c2.19,1.21,4.39,2.41,6,3.3-.43-6.25-1.73-13.25-1.15-20.08.55-6.48,2.59-12.97,4.92-19.09,1.07-2.81,4.16-5.06,6.73-7.04,6.84-5.27,12.32-10.65,10.2-20.75-1.31-6.22.59-12.45,5.2-17.37,0,0-.1-.11-.1-.11-2.55,6.83-6.11,13.52-2.55,21.47,1.69-1.88,3.25-3.92,3.74-6.2,1.71-7.87,5.83-14.38,12.16-18.78,4.79-3.32,10.97-4.53,16.12-7.44,4.74-2.68,8.93-6.36,13.36-9.6.63.05,1.26.1,1.89.15,3.88-.92,7.76-1.86,11.65-2.73,1.01-.23,2.1-.14,3.06-.46.23-.08.35-1.64.15-1.74-1.08-.53-2.36-1.27-3.41-1.08-3.19.58-6.31,1.57-9.46,2.39l.1.1c4.07-4.3,9.41-4.94,14.51-3.6,3.88,1.02,7.26.73,10.98-.02,2.49-.5,5.16-.1,7.86.41-7.22-.44-12.32,3.82-18.33,6.65-9.53,4.48-6.69,12.65-9.77,19.5,5.63-.75,10.6-1.31,15.52-2.16.87-.15,1.79-1.36,2.25-2.3,3.45-7.1,9.68-9.43,16.86-10.56,3.43-.54,6.76-1.77,10.13-2.69-.08-.43-.17-.85-.25-1.28-1.42-.16-2.84-.32-5.44-.61,2.39-.19,3.62-.28,4.86-.38.05-.24.1-.49.15-.73-3.74-1.02-7.48-2.03-11.22-3.05.05-.5.1-1,.15-1.5,8.9,4.69,17.29,1.53,25.8-.73,5.23-1.39,10.17-.48,14.29,3.38-3.69-.93-7.39-1.86-11.08-2.79-.1.43-.21.86-.31,1.3.8.12,1.6.23,2.39.38.06.01.07.27.05.19-4.95.73-9.93,1.45-14.9,2.18-.02.44-.03.89-.05,1.33,13.64-.87,26.47-.34,29.74,17.39.9-1.21,1.81-2.56,1.47-3.39-1.95-4.83-4.2-9.54-6.35-14.3,5.91.92,9.37,4.93,12.49,9.63.87,1.31,2.8,2.13,4.41,2.66,3.89,1.26,8.58,1.23,11.68,3.49,8.93,6.48,17.25,13.82,25.76,20.89.51.42.63,1.41.77,2.16.71,3.81.91,7.79,2.14,11.42,3.42,10.05,6.21,19.91,2.61,30.7-.69,2.08,1.48,5.94,3.41,7.91,2.9,2.96,6.76,4.99,10.61,7.69-3,6.11-6.24,12.29-4.29,20.62,4.04-4.02,8.48-6.57,9.15-12.26.12-.99.11-2.04.46-2.95,1.76-4.63.49-7.84-3.05-11.54-5.55-5.8-5.73-13.99-6.34-21.58-.54-6.75.12-13.6-.37-20.37-.28-3.91-2.53-7.72-2.57-11.59-.09-7.91-.28-16.06,1.4-23.7,2.05-9.29,2.94-18.13.79-27.52-2-8.71,1.97-14.31,10.23-14.63,3.71-.15,7.65,1.71,11.22,3.28,3.14,1.39,5.84,1.92,9.37,1.09,3.16-.75,7.21-.61,10.07.79,7.98,3.92,15.68,8.47,23.19,13.25,3.21,2.05,5.68,5.29,8.65,8.16,8.5-5.06,17.44-4.97,26.27.72-4-.9-7.96-2.04-12.01-2.66-7.66-1.17-12.39,1.4-15.49,7.03.61,2.86.94,4.42,1.28,6.03.47-.23,1.17-.58,2.06-1.03-.51,2.45-.92,4.47-1.34,6.48.29.11.58.21.87.32l2.05-3.48c.18.07.36.14.54.21-.62,3.61-1.24,7.22-1.86,10.84.33.21.67.43,1,.64.45-.93.89-1.87,1.34-2.8.18.16.37.32.55.48-.35,1.67-.69,3.34-1.04,5.01.24.08.48.17.72.25,1.21-2.45,2.41-4.91,3.62-7.36.13.05.25.1.38.15-.6,2.55-1.19,5.1-1.79,7.65.37.11.74.23,1.1.34,1.36-2.74,2.72-5.47,4.08-8.21.14.05.28.1.41.16-.59,2.28-1.19,4.57-1.82,7h13.44c-14.18-.31-26.64,6.85-29.63,17.94-.4,1.47-.38,3.05-.57,4.74,1.53-.71,2.48-1.15,3.43-1.59-3.06,6.58-7.09-.57-11.09,1.53v9.72c-.75-4.59-1.33-9.27-.62-13.75,1.47-9.37-1.26-17.4-6.36-24.94,2.26,2.56,4.51,5.11,6.91,7.83.77-1.59,1.63-3.35,2.48-5.11.14.06.28.12.42.17-.44,2.76-.87,5.52-1.31,8.29.35.08.7.15,1.04.23.6-1.58,1.2-3.16,1.8-4.74l.55.15c-.59,2.85-1.17,5.7-1.86,9.07,1.19-.67,1.89-1.07,2.83-1.61-.47,2.32-.88,4.32-1.4,6.91,6.38-6.4,8.1-13.02,6.59-21.49-1.25-7.01-6.39-8.33-10.97-9.57-3.08-.83-7.05,1.64-10.54,2.62.9,3.7,5.4,3.85,3.6,7.44-1.87-1.88-3.59-3.93-5.62-5.6-5.5-4.51-11.77-7-18.87-5.08-10.64,2.88-21.49,18.88-20.97,30.51,2.43-5.4,4.82-10.71,7.2-16.02.22.12.43.25.65.37-2.28,7.69-4.55,15.38-6.83,23.07.31.07.62.14.93.22,2.7-5.32,5.4-10.63,8.09-15.95.46.22.92.44,1.38.65-1.78,3.75-3.56,7.49-5.34,11.24.27.17.54.34.81.52,1.61-1.33,3.21-2.66,5.74-4.76-2.26,4.26-4.04,7.26-5.47,10.42-1.4,3.1-2.45,6.36-3.65,9.55.34.19.69.38,1.03.57,2.05-2.68,4.1-5.36,6.15-8.05.2.15.41.3.61.46-1.69,3.12-3.37,6.24-5.06,9.36.24.19.48.38.72.56,1.11-.76,2.21-1.52,4.07-2.78-2.2,2.46-3.82,4.27-6.66,7.45,4.47.54,7.81.93,10.46,1.25-2.15.56-4.98,1.3-7.81,2.04.05.3.1.6.15.89,1.87.41,3.73.82,6.76,1.48-2.89.49-4.6.78-6.31,1.07,0,.48,0,.97.01,1.45,5.12.72,10.24,1.45,15.36,2.17.02.12.03.25.05.37h-14.95c5.34,2.72,9.35,4.77,14.26,7.27-8.52,4.43-8.4,4.93-4.73,11.7,5.28,9.73,14.04,12.09,23.87,12.06,9.34-.02,16.99,3.37,23.47,9.94,9.14,9.26,21.63,11.75,33.06,16.33,1.29.52,2.98.36,4.41.1,1.03-.19,1.93-1.08,3.78-2.2-2.26-.45-3.27-.66-4.27-.86.02-.19.04-.38.07-.57h6.8c-1.06-.81-2.19-.89-3.27-1.14-10.55-2.48-20.48-6.25-28.51-13.94,1.69.95,3.49,1.75,5.06,2.87,4.29,3.06,9.04,4.31,14.14,3.35,1.53-.29,3.32-1.72,3.99-3.11.36-.76-1.12-2.88-2.24-3.8-4.08-3.33-8.19-6.87-14.12-5.71,2.82-.48,5.65-.96,9.18-1.57-1.59-1.12-2.55-1.8-3.76-2.64,1.59-.19,2.78-.34,3.96-.48,2.28,1.45,4.57,2.88,6.85,4.34,4.55,2.91,8.79,6.7,13.74,8.49,4.01,1.45,8.24,7.9,13.97.09-.75,2.34-1.05,3.26-1.39,4.3,6.83-.05,10.58-2.72,12.62-8.73,2.04-6.02.5-12.1-4.3-15.77-1.8,8.46-7.81,10.32-15.09,9.32-6.78-.94-13.47-2.55-20.23-3.66-1.52-.25-3.18.33-4.78.53-1.56-1.25-3.12-2.5-3.75-3.01-2.51,1.4-4.2,2.33-6.35,3.52,1.54-1.46,2.55-2.43,3.99-3.79-8.73-2.24-14.47.66-18.98,7.15,1.47.78,2.73,1.45,3.98,2.09,0-.03-.02-.12-.02-.12,1.24,2.18,2.48,4.36,3.72,6.53-6.19-5.68-12.93-10.87-18.43-17.17-6.12-7.01-13.42-11.14-22.17-13.25-1.45-.35-2.85-.86-4.28-1.29,11.04.73,17.43-3.9,19.45-14.1,2.4-.29,4.7-.57,6.68-.81-2.95,3.15-4.2,6.12,2.46,6.63-.58.85-1.17,1.7-2.06,2.98,1.48-.1,2.3-.16,3.19-.22-1.08,1.24-2.04,2.34-3.95,4.53,2.88-1.05,4.26-1.56,5.65-2.07l.34.75c-2.42,1.55-4.83,3.11-7.25,4.66.17.33.33.67.5,1,2.66-1.24,5.33-2.47,7.99-3.71.15.2.3.41.45.61-2.42,2.06-4.84,4.13-7.25,6.19l.51.77c2.04-.73,4.08-1.47,6.12-2.2.08.17.16.35.24.52-2.18,1.53-4.36,3.05-6.54,4.58.16.32.32.65.48.97,2.45-.71,4.9-1.43,8.47-2.47-2.33,1.78-3.66,2.79-6.19,4.72,3.22-.25,4.92-.38,6.63-.5-.06.85-.12,1.7-.22,3.1,6.97-3.07,10.65-7.13,12.31-14.85,2.25-10.49-.55-17.94-8.04-24.64-1.53-1.37-2.39-3.52-3.94-5.9,8.9-.47,7.75,8.09,11.73,11.06,3.73-2.63,6.86-5.46,10.49-7.26,5.94-2.95,7.44-8.36,8.07-13.95.63-5.59,1.57-11.9-5.83-14.51-.28-.1-.36-.78-.53-1.19,2.63.98,6.1,2.36,6.51,4.37,1.15,5.65,1.03,11.56,1.37,16.76,2.93,2.02,5.97,4.1,8.99,6.23,3.62,2.55,9.49,1.48,12.19-2.65,4.1-6.26,5.67-13.09,3.34-20.46-1.15-3.65-2.83-7.17-3.59-10.89-1.77-8.68-7.48-12.39-15.38-14.99-5.03-1.66-9.28-5.72-13.88-8.71,7.55,3.59,15.17,7.03,22.58,10.88,2.07,1.07,3.98,3.11,5.15,5.17,6.77,12.01,8.34,24.2,5.01,37.11,7.5,5.48,20.47,5.99,20.71,18.53.17,9.13,5.49,20.62-7.61,26.51,4.41,7.74,5.34,15.98-.47,22.78-12.33,14.43-36.44,22.9-53.94,10.28-2.76-1.99-6.87-1.99-10.13-3.42-10.11-4.43-20.11-9.11-30.17-13.67-1.62-.73-3.27-1.53-5-1.9-5.08-1.07-10.19-1.94-15.23-2.87-3.39,1.34-7.28,2.74-11.03,4.44-1.26.57-2.16,1.94-3.24,2.93-2.56,2.36-4.97,4.93-7.74,7.02-4.4,3.34-6.55,7.31-6.37,13.09.1,3.02-1.98,6.06-2.83,9.17-.62,2.26-.85,4.63-1.15,6.37,7.99-3.49,15.67-6.84,23.1-10.09,1.54,3.24,2.87,6.04,4.04,8.49,5.34,0,10.5.48,15.52-.17,3.41-.44,7-1.91,9.84-3.88,9.48-6.6,19.3-7.12,28.44-.15,5.99,4.57,12.15,4.27,18.74,2.56-.94,4.48-7.34,6.54-5.46,12.79,17.76-14.44,38.54-11.5,58.87-11.33-17.85-3.02-35.58-7.61-53.58-1.31,6.13-4.45,13.45-5.22,20.34-4.46,13.9,1.54,27.63,4.57,41.5,6.56,10.93,1.57,21.93,2.89,32.95,3.53,3.82.22,7.77-1.92,12.34-3.17-7.62,5.21-15.1,8.53-23.96,6.78-8.26-1.62-16.46-3.6-24.75-5.04-5.3-.92-10.73-1.12-16.26-.74,4.85,1.79,9.69,3.58,14.54,5.37-9.3-2.53-18.67-4.52-28.4-4.16-1.61.06-3.23,0-4.84,0,.02.29.04.57.06.86,4.21.71,8.42,1.42,12.62,2.13-.04.18-.08.37-.11.55-4.99-.55-9.99-1.09-14.98-1.64-.03.32-.06.64-.09.96,1.87.6,3.73,1.19,6.79,2.17-5.93-.31-10.57-.55-16.33-.85,12.57,10.47,33.69,9.21,46.69,1.65-.53-.61-1.05-1.22-1.57-1.82,9.05,2.16,18.1,4.32,27.14,6.48l-.23,1.72-13.96,3.2c.03.41.07.82.1,1.22h12.91c.04.58.07,1.15.11,1.73-20.04,1.77-40.08,3.54-60.11,5.31,0,.48.01.97.02,1.45,15.32,4.64,30.74,1.95,47.12-.57-.85,1.21-1.32,2.53-1.85,2.56-18.9,1.02-37.75,5.35-56.76,1.03-5.8-1.32-10.19-4.54-13.58-9.34-3.61-5.1-7.57-6.22-13.65-4.14-4.22,1.44-8.48,2.76-12.77,3.97-1.27.36-2.7.18-4.06.24-.05-.43-.09-.86-.14-1.29,8.77-2.01,17.54-4.03,26.55-6.09-.36-.96-.92-2.45-1.79-4.78.92-2.02,2.36-5.16,3.35-7.32-6.88-2.62-13.41-5.52-20.19-7.59-6.5-1.98-13.27-1.84-19.1,2.15-4.79,3.28-9.87,4.33-15.46,4.33-3.63,0-7.28.29-10.87.78-1.17.16-2.21,1.38-3.3,2.12,1.3.6,2.58,1.65,3.92,1.73,4.92.32,9.87.12,14.78.52,4.43.36,8.03,2.21,10.76,6.2,1.57,2.29,4.59,3.56,6.86,5.4.97.79,1.71,1.88,2.55,2.84-.55.64-1.1,1.28-1.65,1.92-3.85-2.86-8.21-5.23-11.43-8.68-5.7-6.1-18.42-9.71-25.83-5.91-1.53.79-2.52,4.01-2.57,6.14-.19,8.68-2.18,16.95-7.69,23.48-3.67,4.35-8.85,7.67-13.87,10.53-4.19,2.38-9.14,3.41-14.32,5.24,2.33,1.66,4.55,3.24,6.76,4.82-.13.23-.26.45-.4.68-5.33-3.3-10.66-6.6-15.99-9.9,2.13.47,4.26.95,7.38,1.65-.89-3.3-1.53-5.68-2.17-8.07-.52-.17-1.03-.34-1.55-.51-1.16,2.37-2.33,4.74-3.49,7.11h-4.01c12.11,7.56,23.26,14.51,34.41,21.46-.23.36-.46.72-.69,1.08-.88.15-1.76.31-2.65.46-.08.49-.17.97-.25,1.46-7.25-4.61-14.5-9.22-22.78-14.49.83,5.48,1.38,9.59,2.07,13.68,2.47,14.57-3.3,26.11-13.34,35.87-4.2,4.08-9.45,7.13-9.51,14.1-.01,1.36-1.72,2.69-2.65,4.04.81-2.17,1.92-4.29,2.31-6.54.19-1.11-.68-3.3-1.51-3.56-4.2-1.32-10.48,1.62-12.68,5.3-3.91-4.46,4.43-8.66-.06-14.64-2.49-3.33-1.01-9.97-5.36-13.68,1.15.79,2.3,1.57,4.04,2.76,1.09-2.69,1.84-4.8,2.78-6.82,1.62-3.53,2.56-7.86,5.19-10.35,7.32-6.9,13.26-15.99,24.35-17.68.16-.02.35-.05.47-.15.73-.58,1.89-1.1,2.02-1.81.11-.6-.82-1.66-1.54-2.11-2.1-1.31-4.26-2.6-6.54-3.51-.99-.39-2.62-.23-3.5.37-6.53,4.47-12.88,9.22-19.44,13.64-2.01,1.35-4.45,2.49-6.81,2.78-7.16.87-14.4,1.1-21.57,1.95-2.13.25-4.13,1.69-6.19,2.59.21.41.42.83.64,1.24,2.61.92,5.22,1.83,7.83,2.75-4.71-.19-9.48-2.98-15.36.72h7.57c-1.83.9-2.88,1.42-4.45,2.19,2.65.76,4.63,1.32,6.6,1.89-.02.17-.04.34-.06.51h-7.08v.83c.88.31,1.76.62,3.2,1.13-1.81.18-2.93.3-4.75.48,1.25.94,2,1.51,2.63,1.98-3.2,3.55-2.95,6.71-.27,10.17.78,1,.57,2.78.95,5.05,2.59,2.06,6.43,4.87,9.99,8.02,3.47,3.07,6.61,6.51,9.95,9.72,4.05,3.88,7.42,4.1,12.15.64-.57,1.64-1.02,2.96-1.7,4.92,1.5-.9,2.38-1.42,2.65-1.59.83,2.13,1.62,4.14,2.41,6.16-4.6-2.3-9.2-4.6-13.8-6.9,1.48,3.54,4.28,5.12,6.35,7.78,2.63,3.39,2.93,6.91,3.98,10.37.4,1.33-1.08,3.6-2.25,4.97-1.17,1.37-3.02,2.15-4.78,3.32,1,.3,1.59.48,2.73.83-2.77.32-4.8.56-6.87.8,1.04,6.23,5.79,2.87,8.85,4.21-1.81.61-3.28,1.11-4.76,1.61.03.3.06.61.09.91,1.81.13,3.62.26,4.37.31,2.6,3.59,5.59,4.7,8.84,4.94.24,4.84,2.91,4.15,6.15,2.47-.54,1.52-.93,2.64-1.55,4.41,4.97-1.55,8.16-4.24,8.11-8.81-.06-4.87-1.29-9.72-2.01-14.58,5,8.34,5.53,16.52-.91,22.83-6.38,6.25-7.13,13.98-8.98,21.59-1.33,5.48-3.33,7.53-9.06,7.89-2.13.13-4.26.45-6.39.57-4.9.27-9.81.47-14.84.71-3.24,3.08-7.1,6.76-10.97,10.43,1.57-1.67,3.08-3.41,4.72-5.01,3.74-3.65,5.67-8.28,4.17-13.14-2.77-8.97-4.73-18.91-10.06-26.2-6.6-9.02-16.22-15.83-24.7-23.4-1.22-1.09-3.36-1.16-5.07-1.7-.4,2.34-1.5,4.83-1.02,6.97.55,2.47,2.44,4.65,3.85,6.89,3.55,5.6,7.21,11.12,10.73,16.74,2.39,3.81,4.61,7.72,6.55,10.99-.21-.05-1.46-.33-2.71-.61-.45.57-.89,1.15-1.34,1.72l6.15,4.27c-.13.1-.26.21-.39.31-1.28-.51-2.56-1.03-3.92-1.58.18,1.87.38,3.34.45,4.82.07,1.37-.54,3.13.1,4.02,1.05,1.44,2.87,2.3,4.37,3.4-.09.14-.17.29-.26.43-1.87-.76-3.74-1.51-5.6-2.27-.4.5-.8.99-1.2,1.49,1.79.94,3.58,1.89,5.36,2.83-.27.31-.55.62-.82.93-1.24-.42-2.47-.84-4.41-1.5.73,2.3,1.21,3.79,1.76,5.51-1-.71-1.83-1.3-3.14-2.22.45,3.6.81,6.57,1.18,9.54-1.08-2.51-2.01-5.09-3.3-7.49-.78-1.45-2.11-2.59-3.44-4.17,7.72-9.58,7.69-22.87-.15-34.21-5.13-7.42-9.66-15.27-14.7-23.31-1.84,2.23-4.29,5.22-5.91,7.19-.3-4.12-1.18-4.97-6.15-3.82.21-1.29.4-2.45.62-3.81-1.2.2-2.22.37-3.36.56.64-2.3,1.21-4.33,1.77-6.36l-.15.16c1.92.87,3.81,1.82,5.78,2.57.8.31,1.76.26,2.64.19.16-.01.49-1.17.37-1.25-.67-.45-1.44-.77-2.19-1.07-1.05-.43-2.13-.8-3.26-1.23.58-2.64,1.12-5.13,1.93-8.83.82,2.66,1.29,4.18,1.75,5.67,2.49-1.25,5.12-2.58,7.76-3.91.3,1.03.3,2.32.94,3.04,5.51,6.22,12.7,7.42,20.31,7.19.17-.67.34-1.34.52-2.01-1.71-.3-3.43-.59-5.07-.88.05-.19.46-1.55.4-1.57-3.54-1.25-5.6-3.98-7.9-6.8-2.25-2.75-5.53-2.1-8.29.08,1.1-1.44,2.21-2.88,3.95-5.14,4.12,3.13,8.06,6.57,12.43,9.32,4.28,2.7,9,4.7,15.08,7.8-.84-3.31-.77-5.84-1.98-7.26-2.53-2.96-5.35-6.23-8.76-7.75-6.38-2.85-10.2-7.73-13.24-13.53-2.41-4.6-5.71-7.48-11.06-8.04-5.89-.62-9.72-3.84-12.18-9.53-6.18-14.27-19.11-16.05-29.93-9.93-6.82,3.86-6.65,10.34.1,14.37,1.84,1.1,3.73,2.46,5.75,2.81,4.55.79,4.93,3.96,5.47,9.05-2.04-1.83-3.1-2.84-4.22-3.77-2.01-1.68-4.09-3.28-6.08-4.98-2.07-1.77-4.51-3.31-6.04-5.48-4.88-6.93-9.81-8.69-17.43-5.01-3.81,1.84-7.2,2.09-11.38,1.22-2.67-.55-6.38.97-8.66,2.79-1.14.91-1.14,5.6.08,6.82,7.11,7.1,15.6,10.76,25.95,8.61,3.71-.77,7.56-.79,11.3-1.42,1.46-.25,2.78-1.25,4.48-2.05,2.64,2.43,6.56,4.57,8.17,7.86,2.26,4.62,6.56.08,9,3.58.36-1.75.63-3.1.83-4.1.48,1.57,1.05,3.44,1.61,5.31.46-.07.92-.15,1.37-.22v-13.29c-1.49.8-2.67,1.43-4.19,2.24-1.16-1.27-2.57-2.8-3.97-4.34.36-.47.71-.95,1.07-1.42,10.62,1.49,18.15,8.7,26.45,15.53-3.04.38-5.64.71-8.22,1.04-.07-.83-.22-2.75-.46-5.6-3.22,5.66-3.06,6.51,2.29,14.59-2.76-1-4.99-1.81-7.42-2.69.04-.18.26-1.13.45-2.1,2.09-3.36,1.85-6.79.57-10.25-2.15,3.41-3.1,6.85-.42,10.36-4.24-.82-8.49-1.65-14.09-2.73.22,4.51.4,8.03.6,11.99-.13.03-1.03.22-1.75.37-1.99-1.49-4.59-2.59-5.91-2.85,1.76-1.2,3.51-2.4,5.27-3.6-.36-.56-.72-1.12-1.07-1.68-1.99.55-3.97,1.1-6.91,1.92,2.16-1.76,3.6-2.94,6.05-4.94-2.69.26-4.27.4-6.44.61,2.04-1.23,3.58-2.16,5.77-3.49-3.92-1.49-8.21-2-6.34-7.19-1.92-.29-3.57-.54-5.47-.83,2.21,7.79-4.71,2-6.43,4.24.81-.73,1.63-1.46,2.69-2.41-8.05-1.29-15.05.41-20.97,5.39-6.06,5.09-11.75,10.63-17.6,15.96,2.53-3.87,4.51-8.31,7.75-11.43,2.97-2.86,5.67-5.39,6.26-9.73-2.93-.48-5.77-.94-9.09-1.48,2.21-.33,3.92-.59,6.87-1.04-5.43-2.64-9.71-4.72-13.59-6.6.35-.22,1.41-.89,3.64-2.29h-6.46c1.81-.93,2.88-1.49,5.08-2.63h-8.54c1.36-2.02,2.18-3.69-1.49-2.74-.61-1.63-1.06-3.35-1.86-4.88-4.77-9.11-2.42-17.94,7.21-24.37,2.76-1.84,2.93-3.65,2.99-6.47.06-2.84,1.15-5.66,1.79-8.49l-.12-.13c-.46,4.17-.91,8.35-1.46,13.3,9.46-1.16,17.91-1.86,26.23-3.33,7.17-1.27,14-1.51,20.55,2.55.73-13.1-5.79-19.11-18.48-17.54l.13.12c6.68-3.79,11.25-2.84,17.3,3.57,3.29-6.32,2.25-7.67-3.79-10.61-6.6-3.21-13.05-7.17-18.62-11.94-4.61-3.95-7.8-9.58-11.71-14.39-1.42-1.75-3.11-3.29-5.62-5.91.69,5.44.96,9.19,1.68,12.86,1.49,7.69-3.25,12.52-7.5,17.69-1.46,1.78-2.37,4.06-3.94,5.71-1.23,1.29-3.11,1.95-4.71,2.89,0,0,.11.12.11.12,3.63-3.36,3.5-8.95,8.42-12.14,3.38-2.2,5.42-7.86,6.24-12.31.77-4.22-.83-8.88-1.48-14.08-3.04,2.78-5.21,4.77-7.39,6.75,1.24-2,2.47-3.99,4.23-6.83-6.01-.96-11.15-1.9-16.32-2.51-1.07-.13-2.24,1.08-3.44,1.44-3.07.92-6.17,1.7-9.26,2.54l.15.11c8.97-7.84,18.88-7.07,29.42-3.53-.37-.33-.7-.72-1.12-.97-.42-.24-.92-.36-1.4-.49-4.15-1.1-8.44-1.85-12.44-3.35-7.16-2.69-12.65-2.71-16.69,5.48-1.4,2.83-6.32,3.89-9.65,5.74-.27.15-.74.01-.95.2-5.67,4.98-12.96,2.95-19.44,4.36-6.05,1.32-12.01-.4-18.17-3.75,4.16-1.51,7.37-2.67,10.84-3.92v4.85c6.98.53,13.91,2.19,19.46-3.56.11,2.82.68,4.36,3.71,1.95,1.9-1.51,4.53-3.9,6.25-3.48,7.34,1.81,4.46-7,8.8-8.11.32-.08.03-2.6.03-3.99,0,0-.03-.05-.03-.05-1.61-5.16-3.23-10.33-4.84-15.49Zm265.09,18.65c1.11,1.95,3.25,2.59,5.82.52,2.21-1.78,3.52-4.7,5.42-7.4-2.1-.32-3.46-.52-4.82-.73l2.39,2.7c-2.83,1.43-5.66,2.86-8.49,4.3,1.04-2.54,5.11-4.68.49-8.74-.97,2.11-2.13,3.68-2.33,5.37-.14,1.25.97,2.65,1.52,3.98Zm-210.75-34.41c-4.39-.72-1.87,2.52-1.84,3.73.21,6.75,3.24,11.54,7.79,12.12-.82-1.14-1.69-1.91-2-2.86-1.45-4.33-2.75-8.71-4.13-13.08h4.13c-1.44-1.56-2.27-2.46-2.98-3.22.89-.58,1.45-.94,2.63-1.71-2.07-.93-3.48-1.57-4.88-2.2-.47.28-.94.55-1.42.83.9,2.13,1.8,4.26,2.7,6.39Zm162.09,115.83c-5.03.73-11.01-1.53-14.7,3.41.3.83.61,1.65.91,2.48,4.6-1.97,9.19-3.95,13.79-5.92,1.85,4.96,3.69,9.92,5.85,15.71,1.98-2.25,2.98-3.38,3.75-4.26-2.09-3.03-3.85-5.83-5.88-8.41-.97-1.23-2.46-2.03-3.72-3.01Zm-37.51,107.03c.63-.78,1.81-1.58,1.8-2.35-.08-5.16-4.67-7.68-10.24-6.31-.7,6.42,5.59,5.81,8.57,8.78-2.29-.59-4.58-1.18-6.87-1.77.79,2.41,2,4.11,3.57,5.36.52.42,2.34,0,2.86-.62.54-.66.24-2.03.3-3.08Zm-95.18-147.25c1.78.77,3.77,1.25,5.29,2.37,2.51,1.84,4.56.72,4.45-1.5-.1-2.09-1.82-4.92-3.65-5.93-3.87-2.13-4.11,2.29-5.7,4.2.41-1.69.81-3.38,1.41-5.89-1.54.96-2.34,1.46-3.22,2.01-.11-1.46-.2-2.62-.28-3.78-.32-.16-.63-.32-.95-.47-.48.96-.96,1.92-1.44,2.88-.24-.15-.48-.31-.72-.46v-3.38c-3.81,4.8-1.85,8.45,4.8,9.96Zm135.42,35.02c2.4,4.91,4.8,9.82,7.5,15.34,3.54-8.25,3.77-8.53-2.84-14.03-1.18-.98-.19-5.9-4.11-3.22-8.49-1.57-10.93-.78-14.68,5.44,5.18-1.29,9.65-2.41,14.12-3.53Zm40.35-68.81c.5-4.11,1.01-8.22,1.51-12.34-.49-.39-.97-.78-1.46-1.18-2.09,2.17-5.11,4.01-6.03,6.6-.97,2.74-.02,6.21.26,9.35.25,2.8,1.53,3.03,3.38,1.07-.13.74-.26,1.49-.41,2.35,12.98-2.56,14.34-3.57,14.35-10.88-3.96,1.71-7.79,3.37-11.61,5.02Zm-10.87,16.77c.22.57.62,1.63.63,1.63,6.11-2.25,12.25-4.45,18.2-7.06.72-.32.47-2.88.66-4.41-1.08-.12-2.21-.47-3.25-.31-2.09.34-4.26.69-6.17,1.54-2.55,1.13-4.89,2.75-7.32,4.16.42-2.36.84-4.73,1.31-7.39-5.57,1.51-8.05,7.26-6.28,13.64.79-.65,1.5-1.23,2.2-1.81Zm-5,8.1c.27-2.16.55-4.31.82-6.47-.97-.16-1.93-.32-2.9-.48-.65,3.25-1.3,6.5-1.96,9.75l1.45.35c.92-1.11,1.84-2.23,2.76-3.34-.44,1.38-.88,2.76-1.43,4.47,6.58.35,12.75.65,17.55-4.55,2.09-2.26,4.09-4.6,6.65-7.48-8.94-1.1-15.45,4.96-22.93,7.74Zm-177.07-123.66l-4.58-2.9c-.24.15-.48.3-.72.46,1.36,2.56,2.71,5.11,4.52,8.51-3.35-2.56-5.73-4.38-8.11-6.2.45-1.72,1.36-3.48,1.25-5.16-.22-3.47-.66-7.01,3.38-8.38,4.14-1.41,8.5-2.06,12,1.67,1.85,1.97,3.47,4.16,5.33,6.42-.39-6.28-4.95-11.83-10.84-13.44-5.3-1.45-10.96,1.33-14.49,5.99-3.05,4.03-7.07,7.31-10.46,11.1-2.48,2.77-5.11,5.56-6.85,8.8-4.39,8.13-4.71,17.18-4.01,26.08.45,5.71.52,12.32,8,15.16-.08-1.09.07-1.83-.21-2.35-3.96-7.45-3.77-15.44-2.66-23.38.93-6.64,2.67-13.13,9.86-16.04-3.24,4.27.65,6.79,2.29,9.95-1.85-1.66-3.7-3.33-5.55-4.99-.46.23-.92.46-1.39.69.43,2.11.86,4.22,1.28,6.27-.99-.6-1.98-1.21-2.3-1.4-1.08,1.99-2.96,3.87-2.63,5.16,1.21,4.62-1.65,10.56,4.08,13.79-.87-.31-1.74-.63-2.71-.98.82,4.91,3.26,6.65,9.91,6.54-2.87-2.23-5.12-3.98-7.37-5.73,2.04.83,4.08,1.66,6.12,2.48.21-.27.41-.54.62-.82-1.14-1.58-2.28-3.16-3.44-4.78,1.48.39,2.73.71,4.96,1.3-1.13-2.53-1.79-4.02-2.44-5.47,1.43-.11,2.66-.2,4.23-.33-.31-1.77-.55-3.16-.8-4.55.45.17.9.35,1.35.52.62-1.31,1.25-2.61,2.02-4.23.48.06,1.79.22,3.19.4-.06-1.28-.1-2.15-.15-3.33,3.09,1.38,5.65,2.09,5-2.29,2.02.2,3.97.39,6.51.64-.61-2-.96-3.17-1.33-4.39,1.6.62,3.09,1.21,4.58,1.79.24-.34.48-.68.73-1.02-1.51-1.86-3.12-3.66-4.51-5.61-1.4-1.97-2.57-4.09-3.85-6.14,3.11,3.2,6.22,6.41,9.91,10.21,1.87-9.01-5.01-20.95-11.67-21.76.81,1.69,1.54,3.22,2.44,5.11-1.93-.92-3.37-1.6-4.81-2.29-.39.42-.78.84-1.17,1.26,1.82,2.56,3.64,5.11,5.46,7.67Zm82.67-39.48c.68-5.25,1.36-10.49,2.1-16.15-4.08,1.33-4.84,5.25-6.6,7.44-4.45,5.55-4.19,13.02-1.04,20.02.29-1.67.58-3.35.96-5.5.2,2.76.37,4.99.53,7.22l.84.05,3.31-13.25c-.45,5.63-.9,11.26-1.35,16.9.27.03.55.07.82.1.58-1.28,1.17-2.56,1.75-3.84.16.05.33.11.49.16-.86,4.41-1.71,8.83-2.57,13.24.4.2.79.41,1.19.61,1.76-1.83,3.52-3.66,5.19-5.39-.08.61-.2,1.61-.33,2.62.23.11.45.21.68.32,1.6-2.4,3.2-4.8,4.61-6.93.17.13.7.82,1.07.75,2.65-.52,5.27-1.24,7.92-1.81.78-.17,2.1.25,2.35-.14,3.64-5.62,7.85-11.02,10.53-17.1,5.2-11.8-1.4-21.17-14.17-21.06-.66,0-1.34-.03-1.97.11-.42.09-.79.46-1.19.7.58,1.39,1.12,2.66,2.14,5.09-5.47-6.38-7.72-6.54-11.29-.16-2.75,4.91-4.04,10.64-5.99,16.02Zm214.56,47.3c-3.69-1.73-7.22-4.32-11.09-5.01-8.49-1.51-11.12,1.64-9.37,9.97.19.92.57,1.79.92,2.88,1.36-.62,2.4-1.1,3.63-1.66-1.35,2.48-2.47,4.53-3.59,6.57.41.27.82.53,1.23.8,1.15-.81,2.3-1.62,4.39-3.09-2.12,3.16-3.52,5.24-5.38,8,1.95-.45,2.81-.64,4.23-.97-1.82,2.08-3.13,3.58-4.43,5.07.24.23.48.47.72.7,1.93-1.03,3.86-2.06,6.83-3.65-1.74,2-2.67,3.07-3.6,4.14.2.28.39.57.59.85,3.68-1.59,7.37-3.18,11.05-4.77.07.13.13.27.2.4-2.5,1.75-4.99,3.51-7.49,5.26l.46,1.3c3.7-1.02,7.39-2.04,12.19-3.36-2.82,1.76-4.69,2.93-6.56,4.09.14.39.29.78.43,1.17,3.24-1.02,6.49-2.04,10.43-3.27-1.86,1.61-3.13,2.71-4.4,3.81.21.36.42.72.63,1.09,3.16-1.47,6.32-2.94,10.19-4.75-1.71,1.98-2.96,3.42-4.21,4.86.21.21.42.42.63.63,2.54-1.35,5.08-2.69,8.75-4.63-1.4,2.04-2.09,3.04-3.29,4.79,1.99-.56,3.47-.57,4.35-1.3,4.05-3.39,8.19-6.75,11.72-10.65,1.02-1.12,1-4.89-.04-5.92-4.3-4.28-9.41-7.76-15.93-6.07-7.2,1.86-11.27-1.65-14.34-7.45,1.46,1.02,3.01,1.93,4.35,3.09,3.4,2.95,6.47,2.78,7.62-1.38.95-3.45,1.49-8.56-.34-10.89-2.62-3.33-7.56-4.85-11.58-6.98-.4-.21-1.47.54-2.06,1.04-3.01,2.53-5.97,5.13-9.18,7.91,4.9,1.47,9.55,2.27,11.36,7.38Zm-211.91,149.43c-4.19-3.45-8.25-7.09-12.65-10.24-1.45-1.04-3.83-1.25-5.72-1.09-5.27.46-10.89,2.88-15.69,1.71-11.81-2.89-24.17-4.41-35.25-10.99-.65,2.11-1.5,4.11-1.85,6.2-1.04,6.17,4.14,14.15,9.17,14.38,9.94.46,19.36,2.06,24.81,12.42,7.84-6.85,15.45-2.66,23.09-.58.29-.96.56-1.88.94-3.16,1.83,4.41,4.33,7.58,8,9.69,1.33,3.02,2.66,6.03,4.13,9.35.66-1.42,1.34-2.86,2.26-4.84.23,2.48.4,4.32.57,6.15.5.09.99.18,1.49.27.74-2.35,2.42-4.87,2.04-7.02-1.13-6.45-3.06-12.76-4.67-19.12,1.29.99,2.57,1.98,4.38,3.37,1.39-1.96,2.71-3.83,4.14-5.83-4.3-2.07-7.9-3.81-12.52-6.04,1.51,2.43,2.42,3.89,3.33,5.36Zm26.17-84.23c-1.14-.59-2.27-1.18-3.93-2.05-6.36,11.92-12.62,24.52-30.07,16.87v9.8c-.12,0-.24.01-.36.02l-.69-5.63c-.52.03-1.05.06-1.57.08.4,6.12.77,12.25,1.22,18.37.38,5.1,3.37,8.41,7.98,9.73,8.54,2.44,17.17,4.58,25.86,6.4,1.61.34,3.65-1.41,5.49-2.18.88.43,2.02,1.46,2.6,1.2,5.79-2.54,10.73-6.15,15.69-10.26,8.76-7.25,6.86-20.92-.24-26.6-2.27-1.82-4.19-4.08-6.27-6.14,3.38,2.84,7.4,5.19,10.01,8.63,6.16,8.12,8.73,16.91.15,26.05-1.31,1.4-1.54,3.83-2.39,6.1,2.29-.19,3.75-.52,5.18-.4,8.38.68,12.91-2.52,15.3-10.74.38-1.29,1.18-2.92,2.25-3.46,6.19-3.12,9.44-8.79,12.44-14.5,4.38-8.35,2.67-15.49-5.01-20.92-9.96-7.05-20-14.01-30.36-20.44-3.43-2.13-7.95-2.48-11.98-3.64-.11.45-.23.89-.34,1.34,2.05,1.06,4.1,2.12,6.14,3.18-.08.15-.17.3-.25.46-4.32-1.19-8.63-2.38-12.95-3.57-.18.49-.35.98-.53,1.47,3,1.28,6,2.55,8.99,3.83-.07.12-.13.25-.2.37-3.67-.87-7.35-1.75-11.02-2.62-.09.28-.18.56-.27.83,2.85,1.52,5.7,3.03,8.55,4.55-.11.22-.22.44-.33.66-3.01-1.01-6.01-2.02-9.02-3.04-.12.27-.24.55-.36.82,2.19,1.53,4.39,3.07,7.22,5.04-2.12-.28-3.42-.44-4.72-.61-.1.3-.2.59-.3.89,3.27,1.73,6.55,3.45,9.82,5.18l-.27.47c-3.04-.95-6.07-1.9-9.11-2.84-.28.41-.56.82-.83,1.24,4.79,5.29,9.58,10.59,14.37,15.88-3.64-2.62-7.21-5.35-10.95-7.82-1.46-.96-3.29-1.34-4.96-1.99Zm-59.23-35.1q-.49,2.18-6.39,3.61c-7.75,1.88-14.12,9.79-13.3,16.52.68,5.53,10.07,14.21,15.85,14.11,8.81-.15,17.15.66,23.93,7.3.8.79,3.21,1.09,3.94.48,1.03-.86,2.01-3.74,1.61-4.08-2.84-2.41-.46-5.1-.8-7.56-.13-.93-.39-1.85-.79-3.68-.65,1.73-.95,2.56-.82,2.2v-14.43c2.32,1.01,4.57,2,6.82,2.98-.18.6-.36,1.21-.54,1.81-1.74-.14-3.48-.28-5.27-.43.07.51.07,1.19.28,1.79,2.31,6.89,5.79,13.48,4.88,21.19-.11.92,1.86,2.76,3.11,3.03,4.22.91,8.14.12,11.36-3.21,1.92-1.99,4.14-3.68,6.22-5.5,3.8-3.33,7.64-6.7,6.5-12.55-1.12-5.79-4.07-9.62-10.49-10.09-1.76-.13-3.42-1.67-5.13-2.57,8.04.87,15.21-.16,22.71-2.59,9.07-2.93,13.68-9.45,10.9-18.34-.64-2.05-1.26-4.24-1.2-6.34.14-4.54-1.96-7.76-5.49-9.97-5.72-3.59-7.91-8.92-8.9-15.32-.63-4.05-1.74-8.18-3.51-11.85-2.13-4.42-7.84-6.62-11.19-4.94-5.21,2.61-8.01,7.01-8.45,13.15,3.39-3.83,6.78-7.66,10.17-11.49.17.21.34.41.51.62-1.81,2.57-3.63,5.14-6.02,8.53,1.91-.53,2.61-.72,3.37-.93-.87,2-1.7,3.92-2.53,5.83.29.14.58.28.88.42,1.4-1.17,2.8-2.33,4.99-4.15-1.74,3.42-2.97,5.82-4.77,9.37,2.26-1.02,3.25-1.47,3.4-1.54-4.4,7.73-9.2,15.86-13.63,24.19-.87,1.63-.32,4.01-.44,6.36-.83.12-2.58.37-4.38.63,4.43-9.92,8.85-19.83,13.24-29.69-7.15-3.86-11.48-2.8-14.94,4.56-3.2,6.82-5.28,14.18-7.94,21.55,0-5.14.25-10.06-.06-14.94-.42-6.72-4.12-8.63-10.03-5.83-1.83.87-4.3,1.58-6.11,1.07-5.36-1.52-7.73,1.27-9.38,5.58-1.93,5.05-.49,12.87,2.52,14.93,1.84,1.26,3.45,2.85,5.17,4.29-.38.41-.76.81-1.15,1.22-4.87-3.97-10.15-7.58-11.36-14.82-2.06,8.59,2.61,14.27,7.65,19.61.76.8,3.22-.03,5-.11Zm-46,45.65c-17.85-7.5-19.04-8.91-22.12-26.34-.72-4.05-3.89-4.65-6.23-3.21-2.48,1.52-5.06,4.51-5.63,7.28-3.99,19.16,2.48,35.65,13.87,50.65,1.28,1.69,3.34,2.88,4.29,4.7,2.44,4.66,7.32,3.42,10.99,5.06.15.07.64-.94,1.1-1.23,2.3-1.45-.22-2.8-.15-3.12.69-3.63,2.04-7.14,3.27-10.87.45.18,1.53,1.08,2.33.87,2.94-.76,2.9-.89,3.16,1.39,1.44,12.77,4.47,15.43,16.98,14.99.47-.02.95.2,1.39.29,3.49,11.69,16.04,15.44,30.75,10.69,10.79-3.48,15.3-21.98,10.6-32.9-.18,2.95-.36,5.9-.54,8.84-.23,0-.46,0-.7-.01v-13.94c-.27,0-.55-.01-.82-.02-.19,2.36-.38,4.71-.57,7.07-.14-1.87-.1-3.7-.14-5.53-.1-4.94,1.87-10.96-6.03-11.89-.29-.03-.6.1-.92.16-.25.89-.49,1.76-.47,1.67-1.24-1.65-2.51-3.75-4.17-5.46-2.54-2.62-5.13-5.3-8.1-7.37-4.34-3.03-9.06-6.52-14.66-4.1-7.47,3.23-15.03,6.95-17.34,15.83-1.73,6.68-4.64,12.38-11.62,17.45,1.26-5.78,2.28-10.46,3.28-15.01-5.31-1.14-6.38,5.06-10.88,7.59,3.26-4.85,6.04-8.99,9.1-13.53Zm135.69-27.96c10.88,6.03,20.49,11.7,30.44,16.67,3.62,1.81,8.14-1.64,8.43-5.85.24-3.46-.12-6.97-.34-10.45-.54-8.61-4.03-17.47,3.33-25.76-9.26-2.94-12.97-9.89-16.02-17.44-.37-.91-1.02-1.72-1.63-2.49-10.36-13.08-20.63-12.48-32.95-4.54-4.48,2.89-4.3,6.5-.1,15.62,1.76-2.33,3.39-4.49,5.02-6.66.13.07.25.15.38.22l-2.87,6.89c.24.13.48.25.72.38,1.34-1.17,2.68-2.33,4.07-3.54-2.4,4.88-4.67,9.51-6.95,14.14.32.19.64.39.96.58,1.42-1.67,2.84-3.33,4.27-5,.23.19.46.38.68.58-2.24,3.16-4.48,6.33-6.72,9.49.14.27.29.55.43.82,2.81-1.36,5.63-2.72,8.44-4.08.14.23.28.46.41.69-3.45,2.27-6.9,4.54-10.36,6.81.18.45.37.9.55,1.35,3-.27,6-.55,9.75-.89-2.02,1.27-3.46,2.18-6.13,3.86,3.34-.43,5.22-.67,8.44-1.09-3.31,1.31-5.3,2.1-7.29,2.89.1.35.2.7.29,1.05h7.54c.02.23.04.45.07.68-1.88.52-3.75,1.04-5.63,1.56.02.28.03.56.05.84,2.2.4,4.4.8,6.97,1.27-1.21.39-1.97.63-4.27,1.36Zm-50.64,178.01c7.32,1.46,14.15,3.22,21.09,4.08,5.36.66,11.17.03,13.39-6.03,2.15-5.86-2.01-10.03-6.11-13.02-7.86-5.73-15.96-11.25-24.46-15.95-6.7-3.72-11.45-8.66-14.92-15.37-2.12-4.1-4.64-8.09-7.6-11.62-5.28-6.3-12.18-8.25-20.12-5.91-3.77,1.11-8.29,7-7.76,9.94,1.28,7.07,5,10.03,12.29,12.33,4.14,1.31,9.1,3.82,11.11,7.29,4.06,7.01,8.84,12.2,16.09,16.02,7.52,3.96,9.46,10.12,6.98,18.24Zm-99.87-174.97c.36.21.73.42,1.09.63.51,2.77.73,5.63,1.57,8.29,3.54,11.2,15.84,15.28,25.36,8.67,3.66-2.54,7.69-4.55,11.28-7.19,1.22-.9,2.67-3.6,2.2-4.39-4.88-8.18-1.53-14.63,3.91-20.62,2.17-2.39,1.87-3.7-.54-5.79-5.6-4.87-10.96-10.02-16.19-15.29-4.5-4.53-8.93-6.64-11.43-3.95-2.71,2.93-4.56,6.83-6.18,10.57-1.86,4.3-2.91,8.95-4.58,13.34-2.02,5.3-4.32,10.49-6.49,15.72Zm129.27-68.73c.57-.06,1.15-.13,1.72-.19.34-3.79.34-7.66,1.13-11.35.75-3.53,2.32-6.88,2.93-8.63-.77,8.16-1.68,17.83-2.69,28.57,2.04-1.25,2.76-1.7,3.81-2.35.16,2.43.29,4.45.5,7.69,1.81-1.68,2.7-2.76,3.81-3.47.95-.61,2.14-1.04,3.27-1.16,1.81-.2,3.68.07,5.5-.11,3.93-.39,8.51-2.46,11.63-1.08,5.78,2.55,7.29-2.31,10.28-4.38.68-.47.02-3.34-.53-4.93-.16-.47-2.04-.35-3.02-.48.61-1.07,1.29-2.27,2.52-4.43-2.34,1-3.64,1.56-5.1,2.19,1.17-1.78,2.18-3.3,3.79-5.75-2.3.69-3.28.98-4.05,1.21,1.23-2.06,2.41-4.05,3.58-6.03-.42-.25-.84-.5-1.26-.75-1.37,1.56-2.73,3.12-4.19,4.79.95-3.74,1.85-7.26,3.08-12.05,5.61,11.03,11,20.89,10.61,32.95-.1,3.21,1.51,6.48,2.34,9.72.91-.17,1.82-.33,2.74-.5-.43-5.17-.7-10.36-1.33-15.51-.95-7.68-7-14.09-5.61-22.41.08-.47-.55-1.17-1-1.6-3.19-3.12-6.11-6.66-9.73-9.18-4.95-3.46-10.62-7.03-16.82-5.22-10.85,3.17-16.05,11.76-17.81,22.47-.64,3.89-.1,7.98-.1,11.98Zm-81.29,9.48c-.55-1.99-1.15-4.15-1.99-7.19-2.81,8.43-2.02,15.8,2.02,20.05,3.86-5.36,8.77-7.85,15.61-6.25,3.69.87,2.74-2.68,2.94-4.82.02-.17.26-.31.4-.47.2.79.38,1.52.56,2.24.31,0,.63.02.94.02.52-2.21,1.04-4.43,1.4-5.95.45.83,1.19,2.2,1.88,3.48,5.4-1.44,5.55-5.66,5.99-9.87.35,1.81.66,3.41.97,5.02.4-.03.81-.06,1.21-.08.68-3.38,1.35-6.76,1.87-9.36.05.26.25,1.29.45,2.32,2.24-8.88,2.11-17.36-3.22-25.12-3.68-5.35-10.81-7.78-15.57-5.22-6.41,3.45-8.13,8.13-5.73,15.46.34,1.04.45,2.15.71,3.47-4.66-2.08-5.15-1.01-6.39,13.29-.57-1.53-1.08-2.91-1.59-4.3-.42.04-.83.09-1.25.13-.4,4.36-.8,8.72-1.21,13.14Zm-19.92,168.27c0-1.96.55-4.71-.09-5.02-5.94-2.92-11.88-6.6-18.22-7.68-5.58-.94-11.67,1.12-17.52,1.97-3.83.56-7.68,2.05-11.45,1.83-7.27-.42-12.49,3.25-14.73,9.03-1.58,4.08-.03,9.62.93,14.33.34,1.65,3.12,2.79,4.78,4.16.32-.4.63-.8.95-1.2-1.03-1.19-2.06-2.38-3.09-3.57,3.85,2.8,7.01,2.35,10.81-.3,1.97-1.38,5.69-2.18,7.66-1.22,4.59,2.22,8.07.21,11.95-1.29,2.78-1.08,5.67-2.32,8.57-2.52,5.05-.33,10.23,1.36,14.52-3.36,1.71-1.88,4.96-2.33,7.49-3.49.31-.14.43-.7.79-1.32-1.39-.15-2.49-.26-3.37-.35Zm79.94,86.86c9.88,8.8,21.15,16.89,15.86,33.49,2.38-.45,3.53-.99,4.57-.82,10.39,1.68,14.26-3.92,16.05-13.25,1.25-6.51-.65-13.15-6.02-17.11-5.28-3.88-10.06-8.44-15.29-12.4-2.31-1.75-5.07-3.51-7.83-3.93-5.83-.87-11.79-.85-18.91-1.27,2.67,1.07,4.2,1.69,5.7,2.29-1.46.82-2.86,1.61-5.79,3.25,4.93,3.3,8.94,5.98,13.03,8.71-.22.17-.77.58-1.37,1.04ZM416.79,67.18c7.02-6.92,7.13-12.48-.07-17.24-7.27-4.81-14.88-9.27-22.78-12.91-8.62-3.97-19.41,1.99-18.42,10.1.63,5.13,2.15,10.2,2.21,15.48,0,.36.58.71,1.68,1.97.5-4.17.89-7.45,1.28-10.73.19,0,.38,0,.57,0v10.37c.42.06.85.13,1.27.19.76-2.3,1.53-4.59,2.28-6.86.2,1.63.4,3.32.75,6.16,1.13-2.13,1.66-3.13,2.78-5.24-.18,2.79-.27,4.28-.37,5.77l.73.16c.58-1.11,1.16-2.23,1.95-3.75.19,1.39.3,2.18.44,3.2.88-.68,1.51-1.16,2.34-1.81v3.91c1.11-1.4,1.76-2.22,2.5-3.15.3,1.91.58,3.65.86,5.4l1.25.24c.99-1.36,1.98-2.73,3.15-4.33v4.57c1.61-1.46,2.74-2.48,3.98-3.6v2.4c4.35-1.51,8.5-2.94,12.28-4.25-.06.35-.31,1.86-.66,3.92Zm-222.41,32.86c.38-.1.76-.19,1.14-.29-.2-2.87-.4-5.73-.6-8.6.15-.02.31-.05.46-.07.71,1.82,1.41,3.65,2.12,5.47.41-.12.83-.24,1.24-.35v-9.1c.21-.02.42-.03.64-.05.47,1.14.93,2.29,1.4,3.43.29-.04.58-.08.87-.12.53-3.92,1.07-7.85,1.78-13.07.62,3.1.96,4.78,1.59,7.95,2.18-5.43,3.76-9.46,5.42-13.45,1.65-3.95,3.38-7.87,5.08-11.82-2.6-.81-3.31,3.85-6.05,1.61-.59,1.66-1.18,3.32-1.78,5.01-.17-1.75-.35-3.47-.52-5.18-.35-.07-.69-.15-1.04-.22-.87,2.3-1.74,4.59-2.54,6.69-.17-.49-.41-1.19-.65-1.9-.52-.04-1.05-.08-1.57-.12-.57,4.39-1.14,8.78-1.7,13.16-.24,0-.48,0-.71,0v-13.24c-.46-.02-.91-.04-1.37-.07-.79,3.31-1.59,6.61-2.56,10.67-.52-2.33-.84-3.77-1.44-6.48-1.23,3.08-1.94,4.88-2.66,6.68-.29-.33-.59-.66-.88-.99-.81.85-2.19,1.62-2.33,2.57-.45,3.12-.46,6.31-.67,10.06-.46-4.02-.85-7.42-1.23-10.81-.44.02-.87.04-1.31.06-.68,2.26-1.36,4.53-2.04,6.79-.18-.09-.36-.17-.54-.26-.22-2.97-.43-5.93-.65-8.9-.56-.05-1.11-.1-1.67-.15-.98,3.73-1.97,7.46-3.07,11.65-.52-2.77-.95-5.1-1.68-9-1.65,3.79-2.7,6.19-3.74,8.59-.27-.08-.54-.16-.81-.23v-4.91c-6.47,6.32-7.16,12.24-2.34,17.18.08-.83.16-1.65.38-3.9,4.05,11.14,12.42,9.41,20.29,9.45-.27-2.06-.54-4.17-.91-6.94,1.19,1.75,2.04,2.99,2.83,4.16.26-2.51.5-4.87.89-8.61,1.34,3.47,2.15,5.56,2.95,7.65Zm175.92-29.6c.53.14,1.07.28,1.6.42,1.23-3.53,3.21-6.99,3.53-10.6.77-8.8-3.61-16.15-8.67-22.71-1.58-2.05-6.06-3.37-8.66-2.74-3.93.95-4.16,5.07-3.21,8.76,2.68,10.42,1.56,20.56-.97,30.93-1.58,6.48-1.29,13.48-1.38,20.25-.03,2.47,1.25,4.95,1.94,7.43.39-.12.78-.23,1.17-.35v-10.65c.06,0,.11,0,.17,0,.13,2.57.27,5.13.4,7.7,5.59-13.93,15.19-26.29,14.38-42.23.54.08,1.09.15,1.63.23-.64,4.52-1.27,9.04-1.91,13.56Zm-118.51,177.12c-1.14-.5-2.83-1.45-2.98-1.26-1.4,1.9-2.99,3.87-3.61,6.08-.4,1.42.22,4.13,1.28,4.78,4.17,2.57,8.5,5.69,13.13,6.5,8.8,1.55,17.87,2.31,26.79,2.08,4.08-.11,8.22-3.12,12.03-5.34,1.13-.66,1.61-3.09,1.64-4.72.01-.85-1.51-1.88-2.52-2.55-.79-.52-1.93-.99-2.8-.83-3.77.7-6.87-6.51-11-.93-.07.1-.55-.11-.84-.16-9.2-1.67-18.39-3.42-27.62-4.91-1.23-.2-2.68.93-3.52,1.25Zm-55.8-100.99c-1.02-4.2-1.68-7.17-2.47-10.11-2.59-9.77-1.2-18.45,6.63-25.47,2.1-1.88,4.4-3.63,6.12-5.82,1.8-2.3,3.7-4.91,4.33-7.67,1.04-4.53,1.09-9.28,1.57-14.12-4.67,1.64-7.86,5.33-9.96,9.95-2.27,4.99-5.35,8.88-10.19,11.76-9.01,5.37-11.93,13.29-9.03,23.43,2.01,7.03,5.36,13.27,12.99,18.06Zm301.02,7.66c4.92-1.05,7.17-4.54,7.59-9.13.43-4.71.04-9.48.35-14.21.38-5.67-2.89-8.93-7.06-11.61-4.26-2.73-8.96-4.26-13.38-.81-4,3.12-6,7.29-6.15,12.84-.07,2.54.59,3.99,2.11,4.07,5.15.27,9.03,2.94,13.1,5.6,1.55,1.02,3.69,1.12,5.03,1.5-.36.09-1.34.33-1.6.39v11.36Zm5.26,76.73c-.05-.22-.09-.43-.14-.65-15.65-3.3-31.3-6.59-46.94-9.9-2.95-.62-4.49.29-5.2,3.47-.81,3.65.32,6.1,3.73,6.65,5.66.92,11.42,1.71,17.13,1.67,10.48-.08,20.95-.8,31.42-1.25Zm-229.13-130.74c5.87,4.27,6.49,3.95,8.39-1.51,1.23-3.55,2.77-7.26,5.13-10.09,4.51-5.39,9.71-10.2,15.03-15.67-14.16,4.49-22.19,14.74-28.55,27.27Zm-63.73,196.23c2.32-3.86,2.32-6.04-.2-8.82-5.1-5.61-11.49-4.5-17.76-4.42-3.98.05-5.17,2.1-3.84,5.82,4.19-.41,7.82,4.88,12.36,1.11.55,3.62,2.45,3.39,5.17.07-.86,4.85.61,5.44,3.42,3.29.24.84.41,1.4.85,2.95Zm161.36-138.34c-1.45,4.69-2.69,8.68-3.92,12.66-.43-.12-.86-.24-1.28-.37.21-2.34.42-4.68.53-5.9-2.43,3.37-4.87,7.68-8.2,11.1-2.77,2.84-3.14,5.5-2.21,9.44,3.78-3.48,6.97-6.87,10.62-9.67,5.62-4.32,7.79-9.43,4.47-17.27Zm-204.35-15c.18-.05,1.28-.36,2.37-.72.45-.15.86-.4,1.89-.89-8.69-1.41-17.36,6.95-17.06,16.01,3.58-.31,7.1-.62,10.63-.93-.42-.62-.85-1.23-1.27-1.85.54-.86,1.08-1.72,1.62-2.57-.96-.67-1.67-1.18-2.58-1.82,1.71-.3,3.1-.54,3.83-.67.23-2.56.38-4.28.58-6.56Zm148.54,173c.61.17,1.23.33,1.84.5.96-1.83,2.96-3.87,2.65-5.44-.55-2.77-2.63-5.21-3.86-7.88-1.58-3.42-4.17-1.37-6.26-1.18-3.94.37-7.85,1.15-11.77,1.77.09.78.19,1.56.28,2.33,4.6-.2,9.21-.41,14.2-.63.86,3.1,1.89,6.81,2.92,10.53Zm179.57-91.18c9.64,1.55,18.97.94,28.38-2.98-8.38-4.46-15.59-1.33-23,1.33.62.55,1.02.91,1.85,1.66h-7.24Zm-336.44-59.03c1.75-1.37,3.47-2.72,5.69-4.45-1.74-.39-2.93-.65-4.28-.95,1.72-.5,3.26-.95,4.81-1.4-.05-.33-.09-.67-.14-1h-10.86v12.82q2.73,1.3,6.67-3.81c-.83-.53-1.65-1.05-1.89-1.2Zm104.69,104.79c-1.06-1.14-2.25-2.44-3.45-3.74-.85,1.3-2.62,2.89-2.33,3.83.42,1.36,2.19,2.61,3.66,3.23,1.39.59,3.15.31,5.21.45.18-2.33.33-4.27.48-6.21-.37-.14-.74-.28-1.11-.41-.99,1.14-1.97,2.29-2.46,2.86Zm93.49-156.48c-.53.07-1.06.14-1.59.21.78,6.01,1.56,12.02,2.34,18.02,5.28-6.83-.33-12.18-.75-18.24Zm-47.49,195.4c-2.56,4.56-4.42,7.88-6.29,11.21,3.31-.5,6.33-1.52,8.3-3.57.74-.77-.96-3.92-2.01-7.63Zm-108.71-190.88c-2.37,8.44-.64,19.02,2.9,20.01-.93-6.43-1.87-12.88-2.9-20.01Zm47.9-2.89c.66.57,1.32,1.14,1.98,1.72-7.48.58-10.54,3.58-10.97,9.32,2.49-3.06,5.74-7.04,8.99-11.03Zm82.37,121.25c.71-.1,1.41-.2,2.12-.29.54-2.56,1.08-5.11,1.62-7.67-.51-.33-1.03-.66-1.54-.99-1.66,1.06-4.53,1.97-4.68,3.22-.21,1.79,1.56,3.81,2.48,5.74Zm92.01-57.58c-1.66-5.64-5.8-7.52-10.02-4.84,3.31,1.6,6.45,3.12,10.02,4.84Zm-176.9,25.71c3.97,6.74,6,6.99,8.03,2.04-2.75-.7-5.39-1.37-8.03-2.04Zm214.11,29.77c-.2.66-.4,1.31-.6,1.97,4.29,1.31,8.59,2.63,12.88,3.94.17-.58.35-1.15.52-1.73-4.27-1.4-8.54-2.79-12.81-4.19Zm-152.94,74.63c-2.92.91-4.41,1.38-5.72,1.79-.24,3.27-.48,6.49-.82,11.08,2.45-4.83,4.2-8.26,6.54-12.87Zm30.92-82.21c.31-.29.63-.59.94-.88-1.11-1.3-2.22-2.59-3.34-3.89-.32.3-.65.59-.97.89,1.12,1.29,2.24,2.59,3.37,3.88Z"/><path class="cls-1" d="m492.39,350.05c3.96,3.61,8.32,6.91,9.52,12.63.87,4.16,1.95,8.3,2.52,12.5.41,2.99.13,6.07.15,9.1-5.18-2.82-10.36-5.63-15.54-8.44,4.18-.61,8.35-1.22,12.39-1.81-1.32-6.05-6.25-7.34-11.64-8.18-3.36-.52-6.66-1.46-9.99-2.21,5.66,1.43,10.69-.87,15.74-2.82.96-.37,1.96-1.37,2.3-2.32.19-.54-.73-1.92-1.46-2.29-11.38-5.83-23.4-6.79-35.76-4.33-.83.17-1.31,2.07-1.96,3.16-1.04,1.14-2.67,2.12-3.02,3.44-2.37,8.96-2.11,17.87,1.06,26.66,1,2.78,1.6,5.71,2.39,8.58.46-.08.91-.15,1.37-.23.53-1.7,1.42-3.38,1.52-5.11.35-5.91.12-11.88.7-17.76.48-4.8.93-9.34-2.76-13.14,3.23,3.63,6.91,6.22,12.11,5.5,1.44-.2,2.92-.4,4.35-.28,1.22.1,2.41.67,3.62,1.05-3.87.53-7.76,1.04-12.34,1.65,3.38,3.34,4.87,6.81,10.18,6.35,3.64-.32,7.57,2.69,11.37,4.21-3.73,0-7.47,0-12.24,0,1.87,2.19,2.9,4.59,4.52,5.1,6.35,1.98,12.86,3.48,19.38,4.85,1.01.21,2.35-1.15,3.54-1.78.48,1.65,1.6,3.42,1.32,4.92-.67,3.55-2.39,6.92-2.91,10.48-.28,1.89,1,4.04,1.68,6.03.76,2.23,1.65,4.42,2.95,7.84-3.59-1.9-5.72-3.32-8.05-4.18-4.02-1.49-10.02-4.96-11.89-3.45-4.36,3.51-6.82-1.75-10.69-.53-2.81.89-6.93-3.67-10.6-3.95-5.31-.41-8.39-4.4-11.9-6.84-5.26-3.64-10.37-8.4-12.96-15.05-1.79-4.61-5.64-8.62-6.58-13.31-1.43-7.11-5.93-13.79-3.72-21.55.91-3.2,1.07-6.79,4.38-8.53.58.22,1.15.45,1.73.67-.82,2.3-1.64,4.6-2.44,6.91-.77,2.23-1.51,4.46-2.37,7,2.06.51,3.44.85,4.83,1.19-.42,1.8-4.27,4.26.94,4.99-.61,2.04-1.23,4.07-1.84,6.1,1.28.11,2.55.21,3.83.32,1.29,5.5,2.57,11,3.86,16.51.59-.13,1.19-.27,1.78-.4v-5.31s-.13.06-.13.06c1.47,3.38,2.94,6.76,4.42,10.14,1.63-7.79,2.55-15.37,2.89-22.97.21-4.7,1.7-9.71-1.65-14.05.72-.58,1.43-1.15,2.02-1.62,0,4.89,2.51,3.06,6.01,3.06,6.09,0,12.17,1.85,18.22-.55l-.1-.1c1.42,2.11,12.75,4.78,14.63,3.38.31-.23.28-.91.41-1.38l-.1.13Zm-18.86,48.63c0-8.82.5-16.87-.29-24.79-.25-2.51-3.95-4.68-6.22-7.16-4.87,9.6-1.91,24.85,6.51,31.95Zm1.97-19.18c.95,4.95,1.82,9.93,2.9,14.85.23,1.02,1.27,1.86,1.94,2.79.83-1.09,2.48-2.27,2.37-3.25-.61-5.29.55-11.37-7.21-14.39Zm11.16,19.65c4.88-3.86,4.31-5.78-2.63-10.27.88,3.42,1.75,6.85,2.63,10.27Zm15.91-4.41c.32-.44.64-.88.95-1.32-1.74-1.6-3.37-3.35-5.28-4.7-.44-.31-1.83.73-2.78,1.14.4.78.61,1.91,1.24,2.26,1.87,1.04,3.9,1.77,5.87,2.62Z"/><path class="cls-1" d="m440.97,346.46c3.79-5.39,2-10.73-4.09-12.83-1.53-.53-3.75-1.69-3.99-2.9-.87-4.35-4.77-4.17-8.18-6.99.94,2.89,1.47,4.54,2,6.18-.24.22-.47.43-.71.65-5.11-5.9-10.22-11.8-16-18.47-1.79,3.28-3.15,5.78-4.51,8.27,0,0,.06.09.06.09-.09-2.83-.18-5.67-.26-8.5-2.98.83-6.09,1.35-8.89,2.6-2.3,1.02-5.01,2.46-6.17,4.5-2.82,4.98-4.85,10.41-7.61,16.57,2.37-.72,3.43-1.05,3.43-1.04-2.43,4.84-5.07,10.07-7.7,15.31.43.32.86.63,1.29.95,7.99-4.83,15.97-9.67,24.17-14.63,1.44,2.25,3.12,4.86,5.22,8.14-4.52-1.46-7.22-4.68-11.33-1.74-4.46,3.2-9.68,5.44-13.79,9-2.44,2.11-3.37,5.98-5.3,9.66-.73-1.08-1.96-2.07-1.92-3,.22-5.09.19-10.3,1.32-15.22,1.61-6.99,3.95-13.84,6.43-20.58.73-1.98,2.73-3.76,4.57-5.01,4.33-2.95,8.91-5.53,14.15-8.72-4.79-2.73-9.22-5.51-13.87-7.85-6.36-3.19-12.85-6.1-19.37-8.96-1.05-.46-2.49,0-3.75.04,0,0,.09-.09.09-.09-2.08,1.71-4.15,3.42-6.23,5.13-.78-2.57-1.55-5.15-2.36-7.81.83-.14,2.27-.37,3.86-.64-.71-1.67-1.38-3.27-1.73-4.08,1.99-.53,3.7-.98,5.42-1.44l-.08-.17c1.17,1.04,2.19,2.36,3.53,3.08,12.63,6.79,25.31,13.49,38.01,20.14.64.33,1.64-.03,3.99-.14-2.94-2.17-4.73-3.48-6.52-4.8.31.1.65.16.93.32,5.1,2.73,7.54.6,8.95-4.51,1.53-5.54,4.85-9.93,9.86-12.89.32.5.64,1.01.96,1.51-2.59,2.46-5.31,4.8-7.7,7.45-.86.95-1.08,2.62-1.21,4-.03.35,1.66,1.38,2.15,1.16,1.24-.56,2.31-1.58,3.32-2.55.64-.62,1.06-1.47,1.59-2.21-.42,2.53-.83,5.07-1.25,7.6.41.41.81.81,1.22,1.22,2.45-1.52,5.13-2.77,7.27-4.64,2.42-2.11,4.35-4.77,6.5-7.2-.88,2.55-1.77,5.09-2.65,7.64.4.4.8.8,1.2,1.2,3.95-2.37,7.91-4.72,11.85-7.12,1.58-.96,3.09-2.05,4.62-3.08l-.14-.13c-1.41,1.97-2.81,3.94-4.26,5.98,2.52,3.17,4.88,6.14,7.25,9.12l.11-.09c-3.97,1.66-5.94-2.08-7.95-3.83-3.32-2.9-6.03-1.86-9.17-1.14.18,4.66,6.29,6.01,5.76,11.22-3.22-3.07-5.8-5.57-8.43-8.02-3.27-3.06-6.56-1.42-10.78.36,6.2,6.52,12.15,12.76,18.79,19.74h-11.72c2.28,2.73,1.57,8.35,7.77,5.99.59-.22,1.89,1.44,2.94,2.29,6.33-2.93,12.84-4.73,19.72-1.52-7.02,1.32-14.05,2.64-22.1,4.15,6.96,5.92,25.39,5.18,31.04-.63-2.18-.53-4.07-.82-5.82-1.49-1.2-.46-2.2-1.44-3.29-2.19,9.22,1.77,17.62,4.95,24.52,11.92,2.8,2.83,6.03,4.91,6.39,9.28,0,0,.1-.13.1-.13-4.7-3.01-9.63-4.35-15.03-2,0,0,.1.1.1.1,3.23-1.37,6.46-2.73,10.72-4.53-5.12-1.6-9.23-2.88-13.34-4.17h6.14c-.02-.51-.05-1.03-.07-1.54-2.82-.99-5.58-2.42-8.47-2.8-1.65-.22-3.53,1.25-5.31,1.97.43.72.86,1.45,1.29,2.17h-22.91c1.2,2.22,1.66,3.06,2.12,3.91-.7.63-2,1.25-2.02,1.9-.19,7.29-.35,14.58-.14,21.86.07,2.41,1.76,4.77.08,7.22,0,0,.13-.06.13-.06-.59-2.68-1.12-5.37-1.78-8.03-.72-2.91-1.55-5.8-2.33-8.69.32-1.81.64-3.62,1.1-6.22-1.53.81-2.19,1.16-2.85,1.51q2.92-4.61,1.05-6.07Zm-17.51-39.64c-2.59,4.05-1.71,5.26,6.97,9.87.63-1.24,1.25-2.48,1.85-3.67-3.06-2.15-5.78-4.06-8.82-6.2Z"/><path class="cls-1" d="m298.07,341.15c-.79-2.01-1.57-4.03-2.41-6.16-.27.16-1.15.69-2.65,1.59.68-1.97,1.14-3.28,1.7-4.92-4.73,3.47-8.1,3.25-12.15-.64-3.35-3.21-6.48-6.66-9.95-9.72-3.55-3.14-7.39-5.96-9.99-8.02-.39-2.28-.18-4.05-.95-5.05-2.68-3.46-2.94-6.61.27-10.17-.63-.48-1.38-1.04-2.63-1.98,1.82-.19,2.94-.3,4.75-.48-1.44-.5-2.33-.82-3.21-1.13v-.83h7.09c.02-.17.04-.34.06-.51-1.98-.56-3.95-1.13-6.6-1.89,1.56-.77,2.62-1.29,4.45-2.19h-7.57c5.88-3.7,10.65-.91,15.36-.72,6.09,4.79,12.19,9.57,18.28,14.36,4.36,3.71,2.87,10.35,5.36,13.68,4.49,5.98-3.85,10.18.06,14.64,2.2-3.67,8.48-6.62,12.68-5.3.84.26,1.71,2.45,1.51,3.56-.39,2.25-1.5,4.37-2.31,6.54-2.7,2.41-5.41,4.82-8.11,7.24-1.01-.63-2.01-1.26-3.02-1.89Z"/><path class="cls-1" d="m245.14,425.04c-.37-2.97-.73-5.94-1.18-9.54,1.31.93,2.13,1.51,3.14,2.22-.55-1.72-1.02-3.21-1.76-5.51,1.93.66,3.17,1.08,4.41,1.5.27-.31.55-.62.82-.93-1.79-.94-3.58-1.89-5.36-2.83.4-.5.8-.99,1.2-1.49,1.87.76,3.74,1.51,5.6,2.27.09-.14.17-.29.26-.43-1.5-1.1-3.32-1.96-4.37-3.4-.64-.89-.04-2.65-.1-4.02-.07-1.48-.27-2.95-.45-4.82,1.36.55,2.64,1.06,3.92,1.58.13-.1.26-.21.39-.31l-6.15-4.27c.45-.57.89-1.15,1.34-1.72,1.25.28,2.5.57,2.71.61-1.94-3.27-4.16-7.18-6.55-10.99-3.52-5.61-7.18-11.14-10.73-16.74-1.42-2.24-3.3-4.43-3.85-6.89-.48-2.14.62-4.63,1.02-6.97,1.71.54,3.85.6,5.07,1.7,8.48,7.58,18.1,14.38,24.7,23.4,5.33,7.29,7.29,17.22,10.06,26.2,1.5,4.86-.43,9.49-4.17,13.14-1.64,1.6-3.15,3.33-4.72,5.01-2.34,1.19-4.58,2.92-7.06,3.44-2.6.54-5.44-.07-8.17-.19Z"/><path class="cls-1" d="m365.23,283.05c1.42-2.02,2.84-4.03,4.45-6.31,2.25,5.85,7.32,9.52,14.6,9.86.36-1.37.77-2.93,1.07-4.06-3.95-1-7.78-1.96-12.96-3.27.63-3.7,1.27-7.54,1.92-11.38.63,2,1.26,3.99,1.89,5.99-.74,1.18-1.49,2.36-2.75,4.36,9.37-.07,17.92,5.64,26.36-.4-2.37-1.12-4.75-1.63-7.14-2.07-5.18-.95-10.36-1.87-15.54-2.81.71-1.93,1.5-3.83,2.1-5.78,1.63-5.33,3.22-10.67,4.71-16.04.14-.51-.61-1.26-.94-1.9,3.07-1.86,6.14-3.72,9.21-5.58-8.16,7.46-11.92,16.71-10.86,28.19,10.07.58,20.13,7.4,30.84,1.74.14-.53.27-1.05.41-1.58-8.14-2.63-16.28-5.26-23.93-7.73,1.28-2.58,3-4.44,2.66-5.74-.52-1.97.64-3.47.47-4.85-.42-3.52,3.34-4.6,3.55-7.51-.9,5.81-1.8,11.61-2.75,17.71,9.66,1.41,19.17,9.51,29.21-1.82-3.44-1.01-6.3-1.78-9.11-2.71-1.82-.6-3.55-1.44-5.32-2.18,5.16.3,10.36,1.06,15.45.59,1.4-.13,2.46-3.95,4.65-7.78-6.82.51-12.28.91-17.74,1.32,5.43-3.12,3.17-8.8,4.9-13.43-6.72,1.43-8.31,6.17-9.09,11.61-.33,2.29.13,3.28,2.53,2.22-1.8,1.74-3.59,3.48-5.39,5.21.65-4.93,1.31-9.86,1.98-14.93-2.58.13-5.07.26-7.56.39,1.5-1.27,2.08-4.83,5.21-2.09.22.19.92-.05,1.33-.24,4.05-1.84,8.09-3.71,12.27-5.64,2.63,3.32,5.35,4.79,9.7,2.56,3.73-1.91,8.1-2.57,12.91-3.99-.27,1.88.02,3.88-.76,4.5-4.5,3.54-3.8,9.1-5.72,13.61-1.17,2.74-2.86,5.3-4.6,7.73-2.58,3.61-5.41,7.04-8.16,10.52-.3.38-1.01.54-1.13.93-3.49,10.83-14.79,11.25-22.24,16.79-2.73,2.03-6.33,2.89-10.1,4.53,2.4,1.48,4.31,2.65,6.21,3.83-2.28-.84-4.63-1.51-6.81-2.56-6.74-3.24-13.41-6.63-20.11-9.96l.08.17Zm50.98-35.84c6.27,1.82,10.95,2.01,14.28-2.48.62-.83-.52-2.97-.87-4.66-4.67,2.49-8.58,4.57-13.41,7.14Z"/><path class="cls-1" d="m366.17,291.99c4.56,2.12,7.31,5.75,7.6,10.72.37,6.29,1.37,12.89-.03,18.85-1.79,7.58-1.45,16.3-8.47,22.1-1.87,1.55-2.68,4.34-4.29,6.3-3.09,3.75-6.4,7.31-10.19,9.85-3.01,1.47-6.03,2.94-9.42,4.59-.64-2.01-1.41-4.27-2.07-6.56-3.86-13.31-5.88-26.58-4.12-40.71,1.1-8.84,4.17-15.34,10.8-20.64.44-.35.49-1.18,1.59-1.06-1.19,1.42-2.39,2.84-3.57,4.27-1.41,1.71-2.79,3.44-3.4,6.08,3.95-2.28,7.9-4.56,11.85-6.85-1.25,3.53-4.43,4.86-7.35,6.44-4.47,2.41-6.55,6.36-7.93,12.03,1.83-1,2.89-1.58,3.95-2.17-1.75,3.69-3.5,7.37-5.26,11.06.31.18.62.37.93.55,1.97-1.34,3.94-2.68,5.91-4.03-2.37,3.51-4.74,7.01-7.11,10.52l1.35,1.02c4.13-3.43,8.26-6.86,12.61-10.47,4.04,6.32,7.86,12.3,12.5,19.55.84-3.67,1.91-6.1,1.81-8.47-.13-2.93-1.24-5.82-1.92-8.72,1.61,2.41,3.21,4.81,4.9,7.35,3.2-3.92,2.4-7.82.46-11.84-.65-1.36-.92-2.91-1.36-4.38,1.06.93,2.11,1.86,4.23,3.73.25-2.69,1.06-4.63.43-5.73-2.77-4.79-6.02-9.29-8.94-14-.61-.98-.55-2.37-.8-3.57,3.4,3.81,6.8,7.62,10.19,11.42.24-.12.47-.23.71-.35-1.84-5.65-3.68-11.31-5.52-16.96l-.09.09Zm-21.13,56.03c-1.24-1.47-2.48-2.94-3.73-4.41-.46.17-.92.34-1.38.51.26,3.14.51,6.29.77,9.43.42-.08.83-.15,1.25-.23,1.03-1.8,2.06-3.6,3.08-5.4-.53,3.01-1.05,6.01-1.73,9.87,7.45-4.34,6.01-10.14,3.84-16.19-.7,2.12-1.4,4.25-2.11,6.41Zm4.82-17.62c-4.98,8.48,3.08,12.63,2.62,19.17,2.86-1.04,7.25.11,5.81-4.03-1.76-5.08-5.22-9.56-8.43-15.14Zm-3.54.76c-1.97,1.7-3.85,3.13-5.51,4.79-2.44,2.44-2.67,3.97-1.18,5.81q7.76-7.36,6.69-10.6Z"/><path class="cls-1" d="m124.64,309.25c3.67-.95,2.85.72,1.49,2.74h8.54c-2.2,1.14-3.27,1.69-5.08,2.63h6.46c-2.23,1.4-3.3,2.08-3.64,2.29,3.88,1.88,8.16,3.96,13.59,6.6-2.96.45-4.66.71-6.87,1.04,3.32.54,6.15,1.01,9.09,1.48-.59,4.33-3.29,6.86-6.26,9.73-3.24,3.12-5.22,7.56-7.75,11.43,0,0,.09-.27.09-.27-7.92,2.56-11.45,2.47-12.68-7.24-.08-.6-.54-1.16-.82-1.74-2.58-8.02-3.7-16.05.45-23.91.91-1.72,2.26-3.2,3.4-4.78Z"/><path class="cls-1" d="m298.07,341.15c1.01.63,2.01,1.26,3.02,1.89,3.48,4.91,6.95,9.82,10.43,14.73.72,4.86,1.95,9.71,2.01,14.58.05,4.57-3.14,7.26-8.11,8.81.62-1.78,1.02-2.89,1.55-4.41-3.24,1.68-5.92,2.37-6.15-2.47-3.25-.24-6.24-1.35-8.84-4.94-.75-.05-2.56-.18-4.37-.31-.03-.3-.06-.61-.09-.91,1.47-.5,2.94-1,4.76-1.61-3.07-1.33-7.81,2.03-8.85-4.21,2.07-.24,4.1-.48,6.87-.8-1.13-.34-1.73-.52-2.73-.83,1.76-1.17,3.61-1.95,4.78-3.32,1.17-1.37,2.66-3.63,2.25-4.97-1.04-3.46-1.34-6.97-3.98-10.37-2.07-2.67-4.87-4.24-6.35-7.78,4.6,2.3,9.2,4.6,13.8,6.9Z"/><path class="cls-1" d="m423.73,364.13c.82-.33,2.37-.79,2.34-.99-.68-4.12-1.45-8.23-2.4-12.3-.52-2.22-1.39-4.35-1.04-6.97.81,1.14,1.62,2.29,3.21,4.54-.32-2.5-.47-3.68-.65-5.04.98-.07,1.91-.13,2.16-.15,0,8.34.26,16.51-.12,24.65-.16,3.52-1.3,7.12-2.63,10.43-.73,1.83-2.65,3.28-4.25,4.62-2.46,2.06-5.12,3.88-7.68,5.81-.5.38-1.12.72-1.41,1.24-3.01,5.37-5.97,10.78-8.57,15.51-3.49-5.49-7.27-11.86-11.49-17.92-2.27-3.26-5.29-5.99-7.96-8.93,2.76-5.47,2.36-6.33-3.76-8.24-.33-1.7-.66-3.4-.99-5.1.42-.25.83-.49,1.25-.74,2.68,4.19,5.35,8.38,8.18,12.8,5.84-4.56,14.89-7.38,13.75-15.75-1.95,4.6,3.04,8.45,7,13.03,2.31,2.67,3.62,6.2,5.58,9.72,1.4-1.42,4.2-3.26,5.5-5.86,1.76-3.52-1.09-6.1-3.33-8.7-3.8-4.41-7.3-9.07-10.93-13.63.41-.34.82-.68,1.24-1.02,4.71,5.32,9.43,10.63,14.59,16.45.95-2.83,1.74-5.2,2.54-7.58l-.12.13Zm-20.99,31.7c.39.08.79.16,1.18.25,1-1.62,1.65-3.72,3.07-4.77,5.02-3.71,5.12-12.06-.09-15.72-.73-.51-2.14-1.36-2.27-1.21-.79.91-1.78,2.05-1.81,3.13-.17,6.1-.08,12.22-.08,18.32Zm-8.62-16.21c1.88,4.86,3.56,9.2,5.25,13.55.48-.16.97-.31,1.45-.47,1.82-6.32,1.59-12.53-1.34-18.59-.07-.14-.59-.05-1.28-.08.43.99.79,1.82.73,1.68-1.69,1.37-3.15,2.57-4.8,3.91Z"/><path class="cls-1" d="m490.51,293.08c1.57-.59,3.13-1.17,4.42-1.65,2.02,1.75,4.03,3.42,5.94,5.18,2.12,1.96,2.2,3.8-.48,5.42-3.23,1.95-7.02,3.42-9.5,6.1-4.29,4.64-10.87,6.16-14.42,12.04-1.34,2.22-6.11,2.7-9.43,3.26-3.54.6-7.26.73-10.83.36-2.29-.24-4.45-1.75-7.07-2.87-1.51,3.56-3.75,2.46-6.07-.66,1-2.4,1.94-4.3,5.24-2.34,2.04,1.21,4.6,1.52,6.93,2.23.34-.51.69-1.01,1.03-1.52l-3.79-1.32c.28-.42.56-.83.84-1.25,5.6,3.45,11.24,4.51,17.34.51-4.56-2.91-9.07-5.61-13.36-8.64-1.2-.85-1.73-2.66-2.57-4.02,0,0-.11.09-.11.09,3.72,2.69,7.47,5.32,11.13,8.07,3.37,2.54,6.86,3.87,10.36,2.15.66-2.14,1.14-3.7,1.8-5.83-8.5-3.99-13.88-14.43-24.88-11.82,4.94-2.92,9.88-5.83,14.83-8.75-1.04,1.76-2.08,3.53-3.31,5.6,7.79,2.13,13.66-1.6,19.69-4.71-1.6,1.78-3.2,3.57-4.9,5.47,2.79.72,5.05,1.3,7.31,1.88h-5.24c7.64,6.72,9.66,6.98,13.66,2.18-1.87-.53-3.64-1.03-5.41-1.53.33-1.23.66-2.46.99-3.69,0,0-.13.05-.13.05Zm-3.09,11.58c-7-5.59-12.59-11.38-22.7-9.02,6.44,5.09,12.14,9.61,18.35,14.52.68-2,.74-3.09,1.32-3.68.75-.78,1.91-1.18,3.03-1.82Z"/><path class="cls-1" d="m124.72,259.89c-1.29,4.74-5.35,5.3-9.2,6.19,1.67-2.74,4.34-5.32,4.77-8.24.63-4.28-.62-8.79-.58-13.2.05-4.66-2.54-6.2-6.46-6.48-3.88-.28-7.78-.32-11.66-.57-9.4-.63-10.56-.3-13.25,4.11,3.72.44,7.44.96,11.17,1.3,12.96,1.19,14.06,2.48,13.07,15.73-.06.83-.06,1.69-.3,2.47-.84,2.76.35,4.33,2.83,5.23-3.64,1.33-7.42,4.05-10.9,3.71-8.87-.87-17.62-2.52-26.51-.38-.39.09-.85-.11-1.85-.26,2.01-2.44,3.77-4.57,5.52-6.7-.24.87-.47,1.74-.9,3.32,2.38-1.33,4.05-2.27,5.71-3.2-.54,1.12-1.08,2.24-1.67,3.45,8.23.74,11.6-1.51,13.04-8.87-1.55.51-2.88.94-4.2,1.37.83-1.3,1.66-2.6,2.68-4.21-1.38-.58-2.2-1-3.08-1.28-4.52-1.42-7.52,1.3-10.51,3.99.47-2.74.95-5.47,1.42-8.2-.12,1.35-.24,2.69-.3,3.39h18.07c-.33,5.51-.63,10.44-.97,16.01,8.69-3.72,11.48-9.1,9.51-16.33-.12-.45-.68-.96-.56-1.26,1.55-3.98-.53-5.52-4-5.88-4.79-.5-9.59-.98-14.4-1.08-2.11-.04-4.24.88-6.36,1.36-.54-2.61-.58-4.66,2.52-6.17,1.95-.95,3.14-3.5,4.67-5.33.9.73,1.77,2.05,2.7,2.1,8.69.45,17.39.68,26.09.98.56,6.9,1.05,13.81,1.77,20.69.09.86,1.45,1.59,2.22,2.38l-.11-.12Z"/><path class="cls-1" d="m57.08,215.94c-1.51,2.55-3.01,5.1-5.13,8.69-3.51-3.66-7.09-7.74-11.04-11.42-3.49-3.26-7.39-6.08-11.03-9.03.04,0,.77-.37,1.45-.3,6.48.71,9.02-4.9,13-8.16.91-.75,1.56-1.86,2.54-2.47,3.5-2.2,7.1-4.27,10.65-6.39.14-.08.25-.26.39-.29,3.49-.82,6.99-1.63,10.57-2.46-.73,2.5-1.41,4.86-1.94,6.67-3.82-.22-7.35-.42-10.95-.63,1.61,3.64,3.01,6.8,4.41,9.96,0,0,.19-.2.19-.2-4.29-2.2-8.58-4.4-13-6.68-.63,2.34-1.02,3.82-1.21,4.51,7.18,2.05,11.22,7.95,16.81,11.39-6.66-.63-10.96,3.29-14.93,8.03,3.11-.38,6.22-.75,9.34-1.13,0,0-.13-.09-.13-.09Zm1.01-7.19c-4.09-.47-8.58-2.75-11.56,2.52q4.97,1.45,11.5-2.53c1.39-3.46-2.28-7.1-9.01-7.54,1.77,1.9,2.68,3.14,3.85,4.06,1.64,1.29,3.47,2.33,5.22,3.48Z"/><path class="cls-1" d="m395.36,246.18c-.21,2.91-3.97,3.99-3.55,7.51.16,1.39-.99,2.88-.47,4.85.35,1.31-1.38,3.17-2.66,5.74,7.65,2.47,15.79,5.1,23.93,7.73-.14.53-.27,1.05-.41,1.58-10.72,5.66-20.77-1.16-30.84-1.74-1.06-11.48,2.69-20.73,10.86-28.19.99-.11,1.99-.22,2.98-.33.05.95.11,1.9.16,2.85Z"/><path class="cls-1" d="m395.36,246.18c-.05-.95-.11-1.9-.16-2.85.65-.32,1.3-.64,1.94-.96,2.49-.13,4.98-.25,7.56-.39-.67,5.08-1.33,10.01-1.98,14.93,1.56.09,3.12.17,4.68.26,1.77.73,3.51,1.58,5.32,2.18,2.81.93,5.67,1.7,9.11,2.71-10.05,11.33-19.55,3.23-29.21,1.82.95-6.09,1.85-11.9,2.75-17.71Z"/><path class="cls-1" d="m84.84,245.36c2.12-.48,4.25-1.41,6.36-1.36,4.81.1,9.61.58,14.4,1.08,3.47.36,5.55,1.9,4,5.88-.12.3.44.81.56,1.26,1.96,7.23-.82,12.62-9.51,16.33.34-5.58.64-10.5.97-16.01h-18.07c.06-.7.18-2.04.3-3.39.33-1.27.66-2.53.99-3.79Z"/><path class="cls-1" d="m115.11,266.41c-2.47-.91-3.67-2.48-2.83-5.23.24-.78.24-1.64.3-2.47.99-13.25-.11-14.55-13.07-15.73-3.73-.34-7.45-.86-11.17-1.3,2.69-4.4,3.84-4.73,13.25-4.11,3.88.26,7.78.29,11.66.57,3.92.29,6.51,1.82,6.46,6.48-.04,4.41,1.21,8.93.58,13.2-.43,2.92-3.1,5.51-4.77,8.24-.15.1-.28.21-.41.34Z"/><path class="cls-1" d="m130.62,182.01c1.56-3.36,3.12-6.72,4.68-10.08.61.15,1.22.31,1.83.46.58,8.4-.78,16.57-3.54,24.96-8.28-1.57-16.04-3.04-23.8-4.52,0,0,.19.18.19.18-2.55-2.04-5.09-4.07-7.64-6.11-.13-.13-.27-.25-.4-.38.67-1.89,1.34-3.78,2-5.67,8.63,3.89,17.27,7.78,26.93,12.13-.45-3.49-.78-6.06-1.11-8.63.29-.78.57-1.56.86-2.35Z"/><path class="cls-1" d="m341.12,315.22c-1.06.58-2.12,1.16-3.95,2.17,1.38-5.66,3.46-9.62,7.93-12.03,2.92-1.57,6.1-2.9,7.35-6.44,2.52-.62,5.03-1.24,7.55-1.86.29.24.59.48.88.72.25,1.2.19,2.6.8,3.57,2.92,4.7,6.17,9.21,8.94,14,.63,1.1-.18,3.04-.43,5.73-2.12-1.87-3.18-2.8-4.23-3.73-3.31-3.62-6.62-7.24-9.93-10.86-1.81.55-3.85.73-5.39,1.72-3.31,2.12-6.36,4.65-9.51,7.01Z"/><path class="cls-1" d="m424.86,285.58c-.32-.5-.64-1.01-.96-1.51,6.56-4.36,13.7-7.13,21.55-7.94,2.42-.25,4.9-1.04,7.24-.74,6.32.81,12.88-.04,18.9,3.19,1.79.96,4.54-.1,6.66.47,4.87,1.31,8.26,5.19,12.34,7.88-2.18.66-4.36,1.33-6.53,1.99.23-3.89-2.81-5.63-5.41-6.92-1.35-.67-3.9.6-5.67,1.47-1.39.68-2.42,2.1-3.62,3.18.77-1.52,1.54-3.04,2.25-4.45-6.8-5.57-7.03-5.58-12.83-.13-2.41,2.26-4.78,4.57-7.16,6.85l.14.13c.44-1.32.74-2.7,1.34-3.93,1.37-2.8,2.9-5.54,4.64-8.83-6.69.23-11.55,1.92-15,6.63.01-1.32.02-2.65.03-3.97-1.26.16-2.52.38-3.79.49-6.78.58-9.79,6.1-13.64,10.5-.16-1.46-.32-2.91-.49-4.37Z"/><path class="cls-1" d="m103.95,180.85c-.67,1.89-1.34,3.78-2,5.67-4.35-4.07-2.63-8.95-1.78-13.7.13-.73.72-1.44.69-2.13-.29-6.53-.67-13.06-1.05-20.2,2.61,1.11,4.62,1.98,6.59,2.86-1.11.26-2.16.5-3.21.74-1.88,6.63,1.14,9.19,6.84,9.16-2.19-2.93-4.52-6.05-6.85-9.17,3.56,3.23,7.11,6.46,11.44,10.39v-10.59c3.06,1.33,6.26,2.43,9.12,4.1,1.32.77,2,2.66,2.97,4.04,0,0,.12-.15.12-.15-1.19,2.69-2.38,5.38-3.58,8.06.78-8,3.33-10.47-7.76-12.55.57,4.62,1.09,8.86,1.61,13.09-4.35-2.28-8.7-4.57-13.29-6.97-.91,2.5-1.45,3.97-1.67,4.59,1.13,1.57,1.97,2.74,2.82,3.92-4.3,2.51-3.7,5.62-1.1,8.98l.09-.15Z"/><path class="cls-1" d="m120.83,236.94c-8.7-.3-17.4-.53-26.09-.98-.93-.05-1.8-1.37-2.7-2.1,1.78-1.29,3.56-2.58,5.34-3.87,8.64.28,17.29.5,25.92.94.82.04,1.57,1.5,2.35,2.3-1.61,1.23-3.21,2.47-4.82,3.7Z"/><path class="cls-1" d="m210.53,349.65c-11.34,9.99-22.67,19.99-34.02,29.96-.73.64-1.62,1.25-2.54,1.51-4.8,1.33-7.76,4.14-7.45,10.05-3.62-4.56-1.07-7.4,1.66-9.67,2.69-2.23,5.99-3.69,8.89-5.69,1.31-.91,2.28-2.31,2.61-4.35l4.18-.45c-.29-.38-.57-.75-.86-1.13,4.79-4.12,9.59-8.24,14.46-12.42-.55-.4-1.13-.81-1.89-1.35,3.45-1.43,6.65-2.76,9.86-4.09.28.46.55.92.83,1.39.85-1.92,1.71-3.85,2.85-6.42.56,1.28.91,2.06,1.26,2.83,0,0,.16-.17.16-.17Z"/><path class="cls-1" d="m109.79,192.84c6.17,1.97,12.38,3.84,18.5,5.95,3.76,1.3,8.09,2.18,8.52,8.18-4.51-.76-8.8-1.63-13.14-2.12-1.79-.2-3.67.42-5.51.67l.08-.08c-.76-.77-1.52-1.55-2.31-2.34-.53-.38-1.03-.73-1.53-1.09-1.16-1.87-2.11-3.93-3.54-5.55-1.51-1.71-1.83-1.95-.89-3.43l-.19-.18Z"/><path class="cls-1" d="m284.63,59.61c2.15,4.75,4.4,9.46,6.35,14.3.34.84-.57,2.18-1.47,3.39-3.26-17.74-16.1-18.26-29.74-17.39.02-.44.03-.89.05-1.33,4.97-.73,9.94-1.46,14.9-2.18.02.08,0-.18-.05-.19-.79-.15-1.59-.26-2.39-.38.1-.43.21-.86.31-1.3,3.69.93,7.39,1.86,11.08,2.79.32.77.64,1.53.97,2.3Z"/><path class="cls-1" d="m226.05,341c2.76-2.19,6.04-2.84,8.29-.08,2.3,2.82,4.37,5.55,7.9,6.8.06.02-.35,1.37-.4,1.57,1.65.28,3.36.58,5.07.88-.17.67-.34,1.34-.52,2.01-7.61.23-14.8-.96-20.31-7.19-.64-.72-.65-2.02-.94-3.04l.91-.94Z"/><path class="cls-1" d="m99.76,194.87c1.61,5.16,3.23,10.33,4.84,15.49-1.37-.94-2.94-1.67-4.06-2.85-2.96-3.11-5.73-6.41-8.57-9.63-.64-1.24-1.29-2.49-1.93-3.73.9-2.05.4-5.64,4.51-4.17,1.74,1.63,3.48,3.26,5.22,4.89Z"/><path class="cls-1" d="m104.63,210.41c0,1.39.29,3.91-.03,3.99-4.34,1.11-1.46,9.92-8.8,8.11-1.72-.42-4.36,1.97-6.25,3.48-3.03,2.41-3.6.87-3.71-1.95,1.06-1.05,2.12-2.11,3.18-3.16,1.3-1.13,2.42-2.77,3.93-3.29,2.39-.82,2.69-5.86,6.62-3.31-.89-4.7,3.34-2.62,5.06-3.87Z"/><path class="cls-1" d="m86.18,262.91c-1.67.94-3.34,1.87-5.71,3.2.43-1.58.67-2.45.9-3.32.36-1.81.71-3.62,1.07-5.44,2.99-2.7,5.99-5.42,10.51-3.99.87.27,1.7.7,3.08,1.28-1.03,1.61-1.85,2.91-2.68,4.21-2.39,1.35-4.78,2.7-7.17,4.05Z"/><path class="cls-1" d="m125.64,233.24c-.78-.8-1.53-2.26-2.35-2.3-8.63-.44-17.28-.66-25.92-.94,2.87-2.34,5.73-4.67,8.6-7.01,0,0-.15-.11-.15-.11-.41,1.52-.82,3.04-1.16,4.31,2.61.16,5.86.36,9.12.58,5.39.36,10.78.73,16.17,1.09-.16,1.3-.32,2.6-.48,3.9-.33-.4-.67-.8-1-1.2-.94.56-1.89,1.13-2.83,1.69Z"/><path class="cls-1" d="m365.14,282.88c6.7,3.33,13.37,6.72,20.11,9.96,2.18,1.05,4.54,1.72,6.81,2.56,4.03,1.92,8.07,3.85,12.09,5.76,1.78,1.31,3.57,2.63,6.51,4.79-2.36.11-3.36.48-3.99.14-12.7-6.65-25.38-13.35-38.01-20.14-1.34-.72-2.36-2.04-3.53-3.08Z"/><path class="cls-1" d="m383.01,249.25c.33.64,1.08,1.39.94,1.9-1.48,5.37-3.07,10.71-4.71,16.04-.6,1.96-1.4,3.86-2.1,5.78-.31.31-.63.61-.94.92-.63-2-1.26-3.99-1.89-5.99,0,0-.13.17-.13.17,2.8-6.06,5.6-12.12,8.4-18.19.16-.2.31-.41.44-.64Z"/><path class="cls-1" d="m203.22,60.51l-1.89-.15c-5.78,2.74-11.31,6.72-17.39,7.95-9.81,1.97-18.51,5.21-25.44,12.59,0,0,.1.11.1.11,3.27-7.85,10.47-10.74,17.62-12.11,9.7-1.86,18.11-6.03,26.41-10.92.81-.48,1.79-.66,2.69-.98,0,0-.1-.1-.1-.1-.67,1.21-1.33,2.41-2,3.62Z"/><path class="cls-1" d="m104.63,210.41c-1.72,1.25-5.95-.83-5.06,3.87-3.93-2.55-4.23,2.48-6.62,3.31-1.5.52-2.63,2.15-3.93,3.29-.12-.89-.67-2.15-.28-2.6,2.4-2.78,4.66-5.91,7.65-7.88,2.72-1.79,1.53-3.14.6-4.73-1.56-2.66-3.34-5.2-5.03-7.79,2.84,3.22,5.61,6.52,8.57,9.63,1.12,1.18,2.7,1.91,4.06,2.85,0,0,.03.05.03.05Z"/><path class="cls-1" d="m484.06,288.92c2.18-.67,4.35-1.33,6.53-1.99.24,1.76.48,3.52.73,5.27-.23.28-.45.56-.68.84-.33,1.23-.66,2.46-.99,3.69-1.01-.22-2.01-.43-3.02-.65-2.26-.58-4.51-1.16-7.31-1.88,1.71-1.9,3.31-3.69,4.9-5.47,0,0-.16.19-.16.19Z"/><path class="cls-1" d="m170.67,403.79c9.33,3.47,11.38,3.11,16.05-3.55-4.24-.76-8.15-1.47-12.06-2.17.06-.25.13-.5.19-.76h18.83c-2.8,1.9-4.76,2.72-6.02,4.16-5.92,6.78-9.09,7.33-17,2.32Z"/><path class="cls-1" d="m360.88,297.78c-.29-.24-.59-.48-.88-.72,0,0,.04-.04.04-.04,2.07-1.71,4.15-3.42,6.23-5.13,1.84,5.65,3.68,11.31,5.52,16.96-.24.12-.47.23-.71.35-3.4-3.81-6.8-7.62-10.19-11.42Z"/><path class="cls-1" d="m405.49,320.37c.26,5.71,5.47,7.91,8.24,11.85,1.22,1.73,2.22,3.61,2.76,5.74-6.3-3.82-8.57-14.06-19.17-9.71,2.97-2.78,5.62-5.26,8.26-7.76-.02-.02-.08-.12-.08-.12Z"/><path class="cls-1" d="m114.61,153.88v10.59c-4.33-3.93-7.88-7.16-11.44-10.39h0c1.05-.23,2.1-.46,3.21-.73,2.78.16,5.51.34,8.23.52Z"/><path class="cls-1" d="m382.57,249.88c-2.8,6.06-5.6,12.12-8.4,18.19-4.07-3.92-2.12,3.53-4.95,2.22,2.19-8.18,5.48-15.76,13.34-20.4Z"/><path class="cls-1" d="m120.79,337.94c.28.58.74,1.13.82,1.74,1.23,9.71,4.76,9.8,12.68,7.24-.93,2.29-2.13,4.52-2.7,6.9-.51,2.13-.31,4.42-1.13,6.62v-9.03c-8.36-2.28-8.71-2.77-9.67-13.47Z"/><path class="cls-1" d="m94.09,210.15c-6.93-1.65-10.42,3.6-16.11,6.36,2.63-4.13,4.84-7.59,7-10.96,2.4,1.21,5.32,2.69,9.11,4.6Z"/><path class="cls-1" d="m164.55,313.28c-8.73-2.09-9.11-2.05-9.31-.38-4.12.86-7.87,1.64-11.63,2.42-.27-.19-.53-.38-.8-.57,1.38-1.01,2.63-2.42,4.17-2.95,4.91-1.68,15.89-.85,17.56,1.48Z"/><path class="cls-1" d="m94.54,189.98c-4.11-1.47-3.61,2.12-4.51,4.17-2.6-2.95-5.21-5.9-7.81-8.85l.97-1.26c4.44.5,7.9,3.22,11.35,5.94Z"/><path class="cls-1" d="m522.91,235.81c6.04,1.85,11.55,3.53,17.06,5.22-12.71-.29-14.77-1.02-17.06-5.22Z"/><path class="cls-1" d="m109.98,193.01c-.94,1.48-.61,1.73.89,3.43,1.43,1.62,2.38,3.69,3.54,5.55-4.02-5.03-8.05-10.07-12.07-15.1,2.55,2.04,5.09,4.07,7.64,6.11Z"/><path class="cls-1" d="m134.77,265.05c1.67-5.04,5.98-5.97,9.87-4.64,5.92,2.02,11.37,2.02,16.99-.39,0,0-.13-.12-.13-.12-3.58,2.38-7.18,4.95-11.77,2.91-5.51-2.45-10.54-2.16-15.08,2.11l.12.13Z"/><path class="cls-1" d="m136.52,375.6c6.16,3.58,13,7.55,17.27,10.03-3.19-4.23-14.78-1.51-17.27-10.03Z"/><path class="cls-1" d="m226.31,416.06c-12.24-2.18-25.85-4.61-34.33-6.13,8.16-1.63,23.96,13.48,34.33,6.13Z"/><path class="cls-1" d="m423.85,364c-1.54-1.04-3.46-1.79-4.56-3.19-2.15-2.73-3.85-5.83-5.7-8.7,2.63.17,6.87,5.12,10.14,12.01,0,0,.12-.13.12-.13Z"/><path class="cls-1" d="m422.99,223.56c-6.69.48-11.3-2.4-11.91-7.47,3.84,2.41,7.95,4.98,11.91,7.47Z"/><path class="cls-1" d="m440.97,346.46q1.87,1.45-1.05,6.07c-.59,1.4-1.19,2.8-1.78,4.21-5.21-.72-1.36-3.18-.94-4.98,1.25-1.76,2.51-3.53,3.76-5.29Z"/><path class="cls-1" d="m490.64,293.04c.23-.28.45-.56.68-.84-.27.3-.54.59-.81.89,0,0,.13-.05.13-.05Z"/><path class="cls-1" d="m405.99,78.61c5.09,7.54,7.83,15.57,6.36,24.94-.7,4.48-.12,9.17.62,13.75v-9.72c4-2.1,8.03,5.05,11.09-1.53-.95.44-1.9.88-3.43,1.59.19-1.68.17-3.27.57-4.74,2.99-11.1,15.45-18.25,29.63-17.94h-13.44c.63-2.43,1.22-4.72,1.82-7-.14-.05-.28-.1-.41-.16-1.36,2.74-2.72,5.47-4.08,8.21-.37-.11-.74-.23-1.1-.34.6-2.55,1.19-5.1,1.79-7.65-.13-.05-.25-.1-.38-.15-1.21,2.45-2.41,4.91-3.62,7.36-.24-.08-.48-.17-.72-.25.35-1.67.69-3.34,1.04-5.01-.18-.16-.37-.32-.55-.48-.45.93-.89,1.87-1.34,2.8-.33-.21-.67-.43-1-.64.62-3.61,1.24-7.22,1.86-10.84-.18-.07-.36-.14-.54-.21l-2.05,3.48c-.29-.11-.58-.21-.87-.32.42-2.01.83-4.02,1.34-6.48-.89.44-1.59.79-2.06,1.03-.34-1.6-.67-3.17-1.28-6.03,3.1-5.64,7.83-8.21,15.49-7.03,4.04.62,8.01,1.76,12.01,2.66,0,0-.18-.18-.19-.18,4.6,2.98,8.85,7.05,13.88,8.71,7.9,2.6,13.62,6.31,15.38,14.99.76,3.72,2.44,7.24,3.59,10.89,2.33,7.37.76,14.21-3.34,20.46-2.7,4.12-8.57,5.19-12.19,2.65-3.02-2.12-6.06-4.2-8.99-6.23-.34-5.19-.23-11.1-1.37-16.76-.41-2.01-3.88-3.39-6.51-4.37.17.41.25,1.09.53,1.19,7.4,2.61,6.45,8.92,5.83,14.51-.63,5.59-2.13,11-8.07,13.95-3.63,1.8-6.76,4.63-10.49,7.26-3.97-2.97-2.82-11.53-11.73-11.06,1.55,2.38,2.41,4.53,3.94,5.9,7.48,6.69,10.29,14.14,8.04,24.64-1.66,7.72-5.34,11.78-12.31,14.85.1-1.4.16-2.25.22-3.1-1.71.13-3.42.26-6.63.5,2.53-1.93,3.87-2.95,6.19-4.72-3.56,1.04-6.01,1.75-8.47,2.47-.16-.32-.32-.65-.48-.97,2.18-1.53,4.36-3.05,6.54-4.58-.08-.17-.16-.35-.24-.52-2.04.73-4.08,1.47-6.12,2.2l-.51-.77c2.42-2.06,4.84-4.13,7.25-6.19-.15-.2-.3-.41-.45-.61-2.66,1.24-5.33,2.47-7.99,3.71-.17-.33-.33-.67-.5-1,2.42-1.55,4.83-3.11,7.25-4.66l-.34-.75c-1.39.51-2.77,1.01-5.65,2.07,1.91-2.19,2.87-3.29,3.95-4.53-.89.06-1.71.12-3.19.22.89-1.28,1.47-2.14,2.06-2.98-6.66-.5-5.41-3.47-2.46-6.63-1.98.24-4.28.52-6.68.81-2.02,10.21-8.41,14.83-19.45,14.1,1.43.44,2.83.95,4.28,1.29,8.75,2.11,16.06,6.24,22.17,13.25,5.5,6.3,12.24,11.49,18.43,17.17,0,0-.18-.18-.18-.18,8.04,7.69,17.97,11.46,28.51,13.93,1.08.25,2.21.34,3.27,1.14h-6.8c-.02.19-.04.38-.07.57,1.01.2,2.01.4,4.27.86-1.85,1.12-2.75,2.01-3.78,2.2-1.43.26-3.12.42-4.41-.1-11.43-4.58-23.92-7.07-33.06-16.33-6.49-6.57-14.14-9.96-23.47-9.94-9.83.03-18.6-2.33-23.87-12.06-3.67-6.77-3.78-7.27,4.73-11.7-4.91-2.51-8.92-4.55-14.26-7.27h14.95c-.02-.12-.03-.25-.05-.37-5.12-.72-10.24-1.45-15.36-2.17,0-.48,0-.97-.01-1.45,1.71-.29,3.42-.58,6.31-1.07-3.03-.66-4.89-1.07-6.76-1.48-.05-.3-.1-.6-.15-.89,2.83-.74,5.66-1.48,7.81-2.04-2.66-.32-5.99-.72-10.46-1.25,2.84-3.17,4.46-4.98,6.66-7.45-1.85,1.27-2.96,2.03-4.07,2.78-.24-.19-.48-.38-.72-.56,1.69-3.12,3.37-6.24,5.06-9.36-.2-.15-.41-.3-.61-.46-2.05,2.68-4.1,5.36-6.15,8.05-.34-.19-.69-.38-1.03-.57,1.2-3.19,2.25-6.45,3.65-9.55,1.43-3.16,3.21-6.15,5.47-10.42-2.52,2.09-4.13,3.42-5.74,4.76-.27-.17-.54-.34-.81-.52,1.78-3.75,3.56-7.49,5.34-11.24-.46-.22-.92-.44-1.38-.65-2.7,5.32-5.4,10.63-8.09,15.95-.31-.07-.62-.14-.93-.22,2.28-7.69,4.55-15.38,6.83-23.07-.22-.12-.43-.25-.65-.37-2.39,5.31-4.78,10.62-7.2,16.02-.52-11.62,10.34-27.63,20.97-30.51,7.09-1.92,13.36.57,18.87,5.08,2.04,1.67,3.76,3.72,5.62,5.6,0,0-.15-.17-.15-.17Zm-31.54-3.8c6.73-2.48,12.77-.72,17.77,3.84,7.6,6.92,12.55,15.28,12.25,26.16-.14,5.12,1.06,9.97,4.37,12.68-.91-4.62-2.32-9.91-2.94-15.28-1.43-12.27-7.25-21.66-17.79-27.74-4.26-2.46-9.21-2.73-13.66.34Zm70.58,43.15c1.05-1.58,2.06-3.11,3.9-5.87-2.09,1.35-2.87,1.85-3.71,2.39-.3-1.11-.56-2.09-.89-3.32-2.43,2.68-3.44,4.89.71,6.8Z"/><path class="cls-1" d="m218.61,160.06c-1.78.08-4.24.91-5,.11-5.04-5.33-9.71-11.02-7.65-19.61,1.21,7.24,6.49,10.85,11.36,14.82.38-.41.76-.81,1.15-1.22-1.71-1.44-3.33-3.04-5.17-4.29-3.01-2.06-4.45-9.88-2.52-14.93,1.65-4.31,4.02-7.09,9.38-5.58,1.81.51,4.27-.21,6.11-1.07,5.92-2.8,9.62-.89,10.03,5.83.3,4.89.06,9.81.06,14.94,2.66-7.36,4.74-14.72,7.94-21.55,3.45-7.36,7.78-8.42,14.94-4.56-4.4,9.86-8.81,19.76-13.24,29.69,1.8-.26,3.54-.51,4.38-.63.12-2.35-.42-4.73.44-6.36,4.44-8.33,9.23-16.47,13.63-24.19-.15.07-1.14.52-3.4,1.54,1.81-3.55,3.03-5.96,4.77-9.37-2.19,1.82-3.59,2.99-4.99,4.15-.29-.14-.58-.28-.88-.42.83-1.91,1.66-3.83,2.53-5.83-.76.21-1.46.4-3.37.93,2.39-3.39,4.21-5.96,6.02-8.53-.17-.21-.34-.41-.51-.62-3.39,3.83-6.78,7.66-10.17,11.49.44-6.14,3.24-10.54,8.45-13.15,3.35-1.68,9.06.52,11.19,4.94,1.76,3.67,2.88,7.8,3.51,11.85.99,6.4,3.18,11.73,8.9,15.32,3.53,2.21,5.63,5.43,5.49,9.97-.06,2.1.56,4.29,1.2,6.34,2.78,8.89-1.83,15.41-10.9,18.34-7.5,2.42-14.68,3.45-22.71,2.59,1.71.89,3.37,2.44,5.13,2.57,6.43.47,9.37,4.3,10.49,10.09,1.13,5.86-2.7,9.22-6.5,12.55-2.08,1.82-4.31,3.51-6.22,5.5-3.22,3.33-7.15,4.12-11.36,3.21-1.25-.27-3.22-2.11-3.11-3.03.9-7.72-2.58-14.3-4.88-21.19-.2-.61-.2-1.28-.28-1.79,1.79.14,3.53.29,5.27.43.18-.6.36-1.21.54-1.81-2.25-.98-4.5-1.97-6.82-2.98v14.43c-.13.36.17-.47.82-2.2.4,1.83.66,2.74.79,3.68.34,2.47-2.05,5.15.8,7.56.4.34-.57,3.23-1.61,4.08-.73.61-3.14.3-3.94-.48-6.77-6.64-15.11-7.45-23.93-7.3-5.78.1-15.17-8.58-15.85-14.11-.82-6.73,5.55-14.64,13.3-16.52q5.9-1.43,6.39-3.61Z"/><path class="cls-1" d="m172.61,205.71c-3.06,4.54-5.84,8.68-9.1,13.53,4.5-2.54,5.57-8.73,10.88-7.59-.99,4.54-2.02,9.23-3.28,15.01,6.98-5.07,9.89-10.78,11.62-17.45,2.31-8.89,9.87-12.61,17.34-15.83,5.6-2.42,10.32,1.07,14.66,4.1,2.97,2.08,5.56,4.75,8.1,7.37,1.66,1.71,2.93,3.81,4.17,5.46-.03.09.22-.78.47-1.67.32-.06.63-.19.92-.16,7.89.93,5.92,6.95,6.03,11.89.04,1.83,0,3.66.14,5.53.19-2.36.38-4.71.57-7.07.27,0,.55.01.82.02v13.94c.23,0,.46,0,.7.01.18-2.95.36-5.9.54-8.84,4.7,10.92.19,29.43-10.6,32.9-14.71,4.74-27.27.99-30.75-10.69-.44-.1-.92-.31-1.39-.29-12.51.45-15.54-2.22-16.98-14.99-.26-2.29-.22-2.15-3.16-1.39-.8.21-1.88-.69-2.33-.87-1.23,3.73-2.58,7.24-3.27,10.87-.06.33,2.45,1.67.15,3.12-.46.29-.95,1.29-1.1,1.23-3.66-1.64-8.55-.39-10.99-5.06-.95-1.82-3.01-3.01-4.29-4.7-11.38-15-17.86-31.49-13.87-50.65.58-2.76,3.15-5.76,5.63-7.28,2.34-1.43,5.51-.84,6.23,3.21,3.08,17.42,4.28,18.84,22.12,26.34Z"/><path class="cls-1" d="m308.3,177.75c2.3-.73,3.05-.98,4.27-1.36-2.58-.47-4.78-.87-6.97-1.27-.02-.28-.03-.56-.05-.84,1.88-.52,3.75-1.04,5.63-1.56-.02-.23-.04-.45-.07-.68h-7.54c-.1-.35-.2-.7-.29-1.05,1.99-.79,3.98-1.58,7.29-2.89-3.21.41-5.1.66-8.44,1.09,2.66-1.68,4.11-2.59,6.13-3.86-3.76.34-6.75.61-9.75.89-.18-.45-.37-.9-.55-1.35,3.45-2.27,6.9-4.54,10.36-6.81-.14-.23-.28-.46-.41-.69-2.81,1.36-5.63,2.72-8.44,4.08-.14-.27-.29-.55-.43-.82,2.24-3.16,4.48-6.33,6.72-9.49-.23-.19-.46-.38-.68-.58-1.42,1.67-2.84,3.33-4.27,5-.32-.19-.64-.39-.96-.58,2.27-4.63,4.55-9.26,6.95-14.14-1.38,1.2-2.73,2.37-4.07,3.54-.24-.13-.48-.25-.72-.38l2.87-6.89c-.13-.07-.26-.15-.38-.22-1.63,2.16-3.26,4.33-5.02,6.66-4.2-9.12-4.38-12.74.1-15.62,12.32-7.95,22.59-8.55,32.95,4.54.62.78,1.27,1.59,1.63,2.49,3.04,7.55,6.76,14.5,16.02,17.44-7.36,8.29-3.87,17.15-3.33,25.76.22,3.48.59,6.99.34,10.45-.3,4.21-4.81,7.66-8.43,5.85-9.95-4.98-19.56-10.65-30.44-16.67Z"/><path class="cls-1" d="m293.75,204.97c-4.79-5.29-9.58-10.59-14.36-15.88.28-.41.56-.82.83-1.24,3.04.95,6.07,1.9,9.11,2.84l.27-.47c-3.27-1.73-6.55-3.45-9.82-5.18.1-.3.2-.59.3-.89,1.3.17,2.6.34,4.72.61-2.83-1.98-5.02-3.51-7.22-5.04.12-.27.24-.55.36-.82,3.01,1.01,6.01,2.02,9.02,3.04.11-.22.22-.44.33-.66-2.85-1.52-5.7-3.03-8.55-4.55.09-.28.18-.56.27-.83,3.67.87,7.35,1.75,11.02,2.62.07-.12.13-.25.2-.37-3-1.28-6-2.55-8.99-3.83.18-.49.35-.98.53-1.47,4.32,1.19,8.63,2.38,12.95,3.57.08-.15.17-.3.25-.46-2.05-1.06-4.1-2.12-6.14-3.18.11-.45.23-.89.34-1.34,4.02,1.16,8.55,1.51,11.98,3.64,10.36,6.43,20.4,13.39,30.36,20.44,7.67,5.43,9.39,12.58,5.01,20.92-3,5.71-6.25,11.38-12.44,14.5-1.07.54-1.88,2.17-2.25,3.46-2.4,8.22-6.93,11.43-15.3,10.74-1.43-.12-2.89.21-5.18.4.85-2.26,1.07-4.7,2.39-6.1,8.57-9.14,6-17.93-.15-26.05-2.61-3.44-6.63-5.79-10.01-8.63,0,0,.19.18.19.18Z"/><path class="cls-1" d="m257.66,355.76c2.48-8.12.54-14.28-6.98-18.24-7.25-3.82-12.03-9.01-16.09-16.02-2.01-3.48-6.97-5.99-11.11-7.29-7.3-2.3-11.02-5.26-12.29-12.33-.53-2.94,3.99-8.82,7.76-9.94,7.94-2.34,14.83-.39,20.12,5.91,2.95,3.52,5.48,7.52,7.6,11.62,3.47,6.71,8.21,11.65,14.92,15.37,8.49,4.71,16.59,10.22,24.46,15.95,4.1,2.99,8.25,7.16,6.11,13.02-2.22,6.06-8.03,6.7-13.39,6.03-6.94-.86-13.77-2.62-21.09-4.08Z"/><path class="cls-1" d="m281.77,246.57c-1.84.78-3.88,2.53-5.5,2.19-8.69-1.82-17.32-3.96-25.86-6.4-4.61-1.32-7.6-4.63-7.98-9.73-.45-6.12-.82-12.25-1.22-18.37.52-.03,1.05-.06,1.57-.08l.69,5.63c.12,0,.24-.01.36-.02v-9.8c17.45,7.65,23.71-4.95,30.07-16.87,1.65.86,2.79,1.45,3.93,2.05,4.27,3.84,8.53,7.68,12.8,11.52,1.86,2.72,4.16,5.24,5.51,8.2,3.57,7.86.45,14.26-7.72,17.01-.99.34-1.77,1.57-2.45,2.54-1.22,1.74-1.88,4.3-3.5,5.23-3.56,2.04-7.58,3.28-10.77,4.58,2.74.62,6.41,1.44,10.08,2.27v.06Z"/><path class="cls-1" d="m157.8,180.79c2.18-5.24,4.48-10.43,6.49-15.72,1.67-4.39,2.72-9.04,4.58-13.34,1.62-3.74,3.47-7.65,6.18-10.57,2.49-2.69,6.93-.58,11.43,3.95,5.23,5.27,10.59,10.43,16.19,15.29,2.41,2.09,2.71,3.4.54,5.79-5.44,5.99-8.79,12.44-3.91,20.62.47.78-.98,3.49-2.2,4.39-3.59,2.63-7.62,4.65-11.28,7.19-9.53,6.61-21.82,2.52-25.36-8.67-.84-2.66-1.06-5.52-1.57-8.29-.36-.21-.73-.42-1.09-.63Z"/><path class="cls-1" d="m287.07,112.05c0-4-.54-8.09.1-11.98,1.76-10.71,6.97-19.3,17.81-22.47,6.2-1.81,11.86,1.75,16.82,5.22,3.61,2.53,6.53,6.06,9.73,9.18.45.44,1.08,1.13,1,1.6-1.38,8.32,4.67,14.73,5.61,22.41.63,5.15.9,10.34,1.33,15.51-.91.17-1.82.33-2.74.5-.83-3.24-2.44-6.51-2.34-9.72.38-12.06-5-21.92-10.61-32.95-1.22,4.79-2.12,8.31-3.08,12.05,1.46-1.66,2.82-3.22,4.19-4.79.42.25.84.5,1.26.75-1.18,1.98-2.36,3.97-3.58,6.03.76-.23,1.74-.52,4.05-1.21-1.61,2.45-2.62,3.97-3.79,5.75,1.46-.63,2.77-1.19,5.1-2.19-1.23,2.16-1.91,3.36-2.52,4.43.98.13,2.86,0,3.02.48.55,1.59,1.21,4.45.53,4.93-3,2.08-4.51,6.93-10.28,4.38-3.12-1.37-7.69.7-11.63,1.08-1.82.18-3.68-.08-5.5.11-1.13.12-2.31.54-3.27,1.16-1.12.72-2.01,1.79-3.81,3.47-.21-3.24-.34-5.26-.5-7.69-1.06.65-1.78,1.09-3.81,2.35,1.01-10.74,1.92-20.41,2.69-28.57-.62,1.75-2.18,5.1-2.93,8.63-.78,3.7-.78,7.56-1.13,11.35-.57.06-1.15.13-1.72.19Z"/><path class="cls-1" d="m252.33,282.53c1.62,6.36,3.55,12.67,4.67,19.12.38,2.15-1.3,4.67-2.04,7.02-.5-.09-.99-.18-1.49-.27-.17-1.83-.34-3.67-.57-6.15-.92,1.98-1.59,3.42-2.26,4.84-1.47-3.32-2.8-6.33-4.13-9.35-3.67-2.1-6.17-5.28-8-9.69-.38,1.27-.65,2.2-.94,3.16-7.64-2.08-15.26-6.27-23.09.58-5.45-10.36-14.87-11.96-24.81-12.42-5.04-.23-10.22-8.21-9.17-14.38.35-2.09,1.21-4.09,1.85-6.2,11.08,6.58,23.44,8.1,35.25,10.99,4.8,1.17,10.41-1.25,15.69-1.71,1.89-.16,4.27.05,5.72,1.09,4.4,3.15,8.46,6.79,12.65,10.24.22,1.05.44,2.09.67,3.14Z"/><path class="cls-1" d="m205.79,121.53c.41-4.42.81-8.78,1.21-13.14.42-.04.83-.09,1.25-.13.51,1.38,1.02,2.77,1.59,4.3,1.24-14.29,1.73-15.37,6.39-13.29-.26-1.32-.37-2.44-.71-3.47-2.4-7.33-.68-12.01,5.73-15.46,4.76-2.56,11.89-.13,15.57,5.22,5.33,7.76,5.47,16.24,3.22,25.12-.2-1.03-.4-2.06-.45-2.32-.52,2.6-1.2,5.98-1.87,9.36-.4.03-.81.06-1.21.08-.31-1.6-.62-3.21-.97-5.02-.44,4.21-.59,8.44-5.99,9.87-.69-1.28-1.43-2.65-1.88-3.48-.36,1.53-.88,3.74-1.4,5.95-.31,0-.63-.02-.94-.02-.18-.73-.36-1.45-.56-2.24-.14.15-.38.3-.4.47-.2,2.14.75,5.69-2.94,4.82-6.84-1.6-11.75.89-15.61,6.25-4.04-4.25-4.83-11.62-2.02-20.05.84,3.04,1.44,5.2,1.99,7.19Z"/><path class="cls-1" d="m185.86,289.81c.87.09,1.97.21,3.37.35-.36.62-.48,1.18-.79,1.32-2.52,1.17-5.77,1.61-7.49,3.49-4.29,4.72-9.47,3.02-14.52,3.36-2.9.19-5.79,1.44-8.57,2.52-3.88,1.5-7.36,3.51-11.95,1.29-1.97-.95-5.69-.15-7.66,1.22-3.8,2.65-6.96,3.1-10.81.3,1.03,1.19,2.06,2.38,3.09,3.57-.32.4-.63.8-.95,1.2-1.67-1.37-4.45-2.51-4.78-4.16-.97-4.72-2.51-10.26-.93-14.33,2.24-5.78,7.46-9.45,14.73-9.03,3.77.22,7.62-1.27,11.45-1.83,5.85-.85,11.94-2.91,17.52-1.97,6.34,1.07,12.28,4.76,18.22,7.68.63.31.09,3.06.09,5.02Zm-17.34-7.34c-3.96.22-7.89.43-10.97.6.32.75.97,2.27,1.67,3.91,2.33-1.36,4.57-2.66,7.01-4.09.41.86.96,2,1.79,3.74.22-1.86.36-2.99.5-4.16Zm-29.52,7.78c.16.31.66,1.3,1.27,2.49.55-1.6.93-2.72,1.32-3.83.99.5,1.98,1,3.25,1.64-.1-2.1-.2-4.11-.29-6.04-1.64,1.7-3.23,3.35-5.54,5.74Z"/><path class="cls-1" d="m463.4,129.79c3.07,5.8,7.14,9.32,14.34,7.45,6.52-1.69,11.63,1.79,15.93,6.07,1.04,1.03,1.06,4.8.04,5.92-3.53,3.9-7.67,7.26-11.72,10.65-.88.74-2.37.74-4.35,1.3,1.21-1.76,1.89-2.75,3.29-4.79-3.67,1.94-6.21,3.29-8.75,4.63-.21-.21-.42-.42-.63-.63,1.25-1.44,2.5-2.88,4.21-4.86-3.87,1.8-7.03,3.27-10.19,4.75-.21-.36-.42-.72-.63-1.09,1.27-1.1,2.53-2.2,4.4-3.81-3.95,1.24-7.19,2.26-10.43,3.27-.14-.39-.29-.78-.43-1.17,1.87-1.17,3.74-2.33,6.56-4.09-4.79,1.32-8.49,2.34-12.19,3.36l-.46-1.3c2.5-1.75,4.99-3.51,7.49-5.26-.07-.13-.13-.27-.2-.4-3.68,1.59-7.37,3.18-11.05,4.77-.2-.28-.39-.57-.59-.85.93-1.07,1.86-2.14,3.6-4.14-2.97,1.59-4.9,2.62-6.83,3.65-.24-.23-.48-.47-.72-.7,1.3-1.49,2.61-2.99,4.43-5.07-1.41.32-2.28.52-4.23.97,1.86-2.76,3.25-4.84,5.38-8-2.09,1.47-3.24,2.28-4.39,3.09-.41-.27-.82-.53-1.23-.8,1.12-2.05,2.24-4.09,3.59-6.57-1.22.56-2.27,1.04-3.63,1.66-.35-1.09-.73-1.97-.92-2.88-1.76-8.33.88-11.49,9.37-9.97,3.87.69,7.4,3.28,11.09,5.01l-.17-.17Z"/><path class="cls-1" d="m249.01,82.65c1.94-5.37,3.23-11.1,5.98-16,3.57-6.38,5.82-6.22,11.29.16-1.02-2.42-1.55-3.7-2.14-5.09.4-.25.76-.61,1.19-.7.64-.14,1.31-.1,1.97-.11,12.76-.11,19.36,9.26,14.17,21.06-2.68,6.08-6.89,11.48-10.53,17.1-.25.39-1.57-.03-2.35.14-2.65.57-5.26,1.29-7.92,1.81-.37.07-.9-.62-1.07-.75-1.42,2.13-3.02,4.53-4.61,6.93-.23-.11-.45-.21-.68-.32.13-1,.25-2,.33-2.62-1.67,1.73-3.43,3.56-5.19,5.39-.4-.2-.79-.41-1.19-.61.86-4.41,1.71-8.83,2.57-13.24-.16-.05-.33-.11-.49-.16-.58,1.28-1.17,2.56-1.75,3.84-.27-.03-.55-.07-.82-.1.45-5.63.9-11.26,1.35-16.9,0,0-.09.16-.09.16Z"/><path class="cls-1" d="m265.8,376.66c.61-.46,1.15-.87,1.37-1.04-4.09-2.73-8.1-5.41-13.03-8.71,2.93-1.64,4.33-2.43,5.79-3.25-1.49-.6-3.03-1.21-5.7-2.29,7.12.42,13.08.4,18.91,1.27,2.76.41,5.52,2.18,7.83,3.93,5.23,3.96,10.01,8.52,15.29,12.4,5.37,3.95,7.27,10.59,6.02,17.11-1.79,9.33-5.66,14.93-16.05,13.25-1.04-.17-2.19.37-4.57.82,5.29-16.6-5.99-24.68-15.86-33.49Z"/><path class="cls-1" d="m416.79,67.18c.34-2.06.6-3.57.66-3.92-3.78,1.31-7.93,2.75-12.28,4.25v-2.4c-1.23,1.12-2.37,2.14-3.98,3.6v-4.57c-1.16,1.6-2.15,2.96-3.15,4.33l-1.25-.24c-.28-1.75-.55-3.49-.86-5.4-.73.92-1.38,1.74-2.5,3.15v-3.91c-.83.64-1.46,1.13-2.34,1.81-.14-1.02-.25-1.81-.44-3.2-.79,1.52-1.37,2.64-1.95,3.75l-.73-.16c.09-1.49.19-2.97.37-5.77-1.12,2.11-1.65,3.1-2.78,5.24-.34-2.84-.55-4.53-.75-6.16-.75,2.27-1.52,4.56-2.28,6.86-.42-.06-.85-.13-1.27-.19v-10.37c-.19,0-.38,0-.57,0-.39,3.28-.78,6.56-1.28,10.73-1.11-1.27-1.68-1.62-1.68-1.97-.05-5.28-1.58-10.36-2.21-15.48-.99-8.11,9.8-14.07,18.42-10.1,7.9,3.64,15.51,8.1,22.78,12.91,7.19,4.76,7.09,10.32.07,17.24Z"/><path class="cls-1" d="m194.38,100.04c-.81-2.09-1.61-4.18-2.95-7.65-.39,3.74-.63,6.11-.89,8.61-.8-1.17-1.64-2.41-2.83-4.16.36,2.77.64,4.88.91,6.94-7.87-.03-16.23,1.69-20.29-9.45-.22,2.24-.3,3.07-.38,3.9-4.82-4.95-4.13-10.86,2.34-17.18v4.91c.27.08.54.16.81.23,1.05-2.4,2.09-4.8,3.74-8.59.73,3.91,1.16,6.24,1.68,9,1.1-4.19,2.09-7.92,3.07-11.65.56.05,1.11.1,1.67.15.22,2.97.43,5.93.65,8.9.18.09.36.17.54.26.68-2.26,1.36-4.53,2.04-6.79.44-.02.87-.04,1.31-.06.39,3.4.77,6.79,1.23,10.81.21-3.75.21-6.94.67-10.06.14-.95,1.52-1.72,2.33-2.57.29.33.59.66.88.99.72-1.8,1.43-3.6,2.66-6.68.6,2.7.93,4.15,1.44,6.48.97-4.05,1.77-7.36,2.56-10.67.46.02.91.04,1.37.07v13.24c.24,0,.48,0,.71,0,.57-4.39,1.14-8.78,1.7-13.16.52.04,1.05.08,1.57.12.24.7.48,1.41.65,1.9.8-2.1,1.67-4.4,2.54-6.69.35.07.69.15,1.04.22.17,1.71.34,3.43.52,5.18.6-1.69,1.19-3.35,1.78-5.01,2.74,2.24,3.46-2.42,6.05-1.61-1.7,3.95-3.43,7.86-5.08,11.82-1.66,3.99-3.23,8.01-5.42,13.45-.64-3.17-.97-4.85-1.59-7.95-.71,5.22-1.25,9.14-1.78,13.07-.29.04-.58.08-.87.12-.47-1.14-.93-2.29-1.4-3.43-.21.02-.42.03-.64.05v9.1c-.41.12-.83.24-1.24.35-.71-1.82-1.41-3.65-2.12-5.47-.15.02-.31.05-.46.07.2,2.87.4,5.73.6,8.6-.38.1-.76.19-1.14.29Z"/><path class="cls-1" d="m370.3,70.44c.64-4.52,1.27-9.04,1.91-13.56-.54-.08-1.09-.15-1.63-.23.81,15.94-8.78,28.3-14.38,42.23-.13-2.57-.27-5.13-.4-7.7-.06,0-.11,0-.17,0v10.65c-.39.12-.78.23-1.17.35-.68-2.48-1.97-4.96-1.94-7.43.09-6.77-.2-13.77,1.38-20.25,2.53-10.38,3.65-20.51.97-30.93-.95-3.69-.72-7.81,3.21-8.76,2.61-.63,7.08.69,8.66,2.74,5.06,6.56,9.44,13.91,8.67,22.71-.32,3.61-2.3,7.07-3.53,10.6-.53-.14-1.07-.28-1.6-.42Z"/><path class="cls-1" d="m291.91,302.67c-6.09-4.79-12.19-9.57-18.28-14.36-2.61-.92-5.22-1.83-7.83-2.75-.21-.41-.42-.83-.64-1.24,2.06-.9,4.06-2.34,6.19-2.59,7.17-.84,14.41-1.08,21.57-1.95,2.36-.28,4.8-1.43,6.81-2.78,6.56-4.42,12.91-9.17,19.44-13.64.88-.6,2.51-.76,3.5-.37,2.29.91,4.44,2.2,6.54,3.51.72.45,1.65,1.51,1.54,2.11-.13.71-1.29,1.22-2.02,1.81-.12.1-.31.13-.47.15-11.09,1.69-17.03,10.79-24.35,17.68-2.63,2.48-3.57,6.82-5.19,10.35-.93,2.03-1.69,4.13-2.78,6.82-1.73-1.18-2.89-1.97-4.04-2.76Z"/><path class="cls-1" d="m251.79,247.56c.84-.32,2.28-1.44,3.52-1.25,9.23,1.49,18.42,3.24,27.62,4.91.29.05.77.26.84.16,4.13-5.58,7.23,1.63,11,.93.87-.16,2.01.31,2.8.83,1.01.67,2.53,1.7,2.52,2.55-.03,1.63-.52,4.06-1.64,4.72-3.81,2.22-7.95,5.23-12.03,5.34-8.92.24-17.99-.52-26.79-2.08-4.63-.82-8.96-3.94-13.13-6.5-1.06-.65-1.68-3.36-1.28-4.78.62-2.21,2.2-4.18,3.61-6.08.15-.2,1.83.76,2.98,1.26Z"/><path class="cls-1" d="m134.65,264.92c4.53-4.27,9.57-4.56,15.08-2.11,4.59,2.04,8.19-.53,11.77-2.91,12.69-1.57,19.2,4.44,18.48,17.54-6.55-4.06-13.38-3.82-20.55-2.55-8.32,1.48-16.77,2.17-26.23,3.33.54-4.96,1-9.13,1.46-13.3Z"/><path class="cls-1" d="m195.99,146.57c-7.63-4.79-10.98-11.03-12.99-18.06-2.9-10.14.01-18.05,9.03-23.43,4.84-2.88,7.92-6.77,10.19-11.76,2.09-4.61,5.29-8.3,9.96-9.95-.48,4.83-.53,9.59-1.57,14.12-.63,2.76-2.53,5.37-4.33,7.67-1.72,2.2-4.02,3.94-6.12,5.82-7.84,7.02-9.22,15.7-6.63,25.47.78,2.94,1.45,5.92,2.47,10.11Z"/><path class="cls-1" d="m497.01,154.23v-11.36c.25-.06,1.24-.3,1.6-.39-1.34-.37-3.48-.48-5.03-1.5-4.06-2.66-7.95-5.33-13.1-5.6-1.53-.08-2.18-1.52-2.11-4.07.15-5.55,2.15-9.72,6.15-12.84,4.42-3.45,9.12-1.93,13.38.81,4.17,2.68,7.44,5.94,7.06,11.61-.31,4.72.08,9.5-.35,14.21-.42,4.6-2.67,8.09-7.59,9.13Z"/><path class="cls-1" d="m166.17,121.95c1.27,2.05,2.45,4.18,3.85,6.14,1.39,1.95,2.99,3.74,4.51,5.61-.24.34-.48.68-.73,1.02-1.49-.58-2.99-1.17-4.58-1.79.37,1.22.72,2.39,1.33,4.39-2.54-.25-4.49-.44-6.51-.64.66,4.39-1.91,3.67-5,2.29.05,1.18.09,2.05.15,3.33-1.4-.17-2.71-.34-3.19-.4-.77,1.62-1.4,2.93-2.02,4.23-.45-.17-.9-.35-1.35-.52.24,1.39.49,2.78.8,4.55-1.57.12-2.8.22-4.23.33.65,1.45,1.31,2.94,2.44,5.47-2.23-.59-3.48-.91-4.96-1.3,1.17,1.62,2.3,3.2,3.44,4.78-.21.27-.41.54-.62.82-2.04-.83-4.08-1.66-6.12-2.48l.17.16c-5.72-3.23-2.86-9.16-4.07-13.79-.34-1.29,1.55-3.17,2.63-5.16.31.19,1.31.8,2.3,1.4-.42-2.05-.85-4.16-1.28-6.27.46-.23.92-.46,1.39-.69,1.85,1.66,3.7,3.33,5.55,4.99-1.64-3.16-5.53-5.68-2.29-9.95,0,0-.19.01-.19.01,1.87,1.46,3.74,2.92,5.38,4.2v-6.79c.66-.49,1.33-.99,1.99-1.48,1.07,2.08,2.14,4.16,3.14,6.11-.17-3.42-.29-6.05-.42-8.67l-.21.16c2.38,1.82,4.76,3.64,8.11,6.2-1.8-3.4-3.16-5.96-4.52-8.51.24-.15.48-.3.72-.46,1.53.97,3.05,1.93,4.58,2.9,0,0-.17-.2-.17-.2Z"/><path class="cls-1" d="m455.29,162.72c1.6-.2,3.26-.78,4.78-.53,6.76,1.11,13.45,2.72,20.23,3.66,7.28,1.01,13.29-.86,15.09-9.32,4.8,3.67,6.35,9.75,4.3,15.77-2.04,6.02-5.79,8.69-12.62,8.73.33-1.04.63-1.96,1.39-4.3-5.73,7.81-9.96,1.36-13.97-.09-4.95-1.79-9.19-5.58-13.74-8.49-2.28-1.46-4.56-2.89-6.85-4.34.46-.37.92-.73,1.39-1.1Z"/><path class="cls-1" d="m147.56,128.49s.18-.01.19-.01c-7.18,2.91-8.93,9.4-9.86,16.04-1.11,7.94-1.3,15.94,2.66,23.38.27.51.13,1.26.21,2.35-7.47-2.84-7.55-9.45-8-15.16-.7-8.9-.38-17.95,4.01-26.08,1.74-3.23,4.38-6.03,6.85-8.8,3.39-3.79,7.41-7.07,10.46-11.1,3.53-4.66,9.19-7.44,14.49-5.99,5.89,1.61,10.45,7.16,10.84,13.44-1.86-2.25-3.48-4.44-5.33-6.42-3.5-3.74-7.86-3.08-12-1.67-4.04,1.37-3.61,4.91-3.38,8.38.11,1.69-.8,3.44-1.25,5.16,0,0,.21-.16.21-.16-3.36,2.21-6.72,4.42-10.08,6.63Z"/><path class="cls-1" d="m455.29,162.72c-.46.37-.92.73-1.39,1.1-1.18.14-2.37.29-3.96.48,1.2.85,2.17,1.53,3.76,2.64-3.54.6-6.36,1.09-9.18,1.57,5.93-1.16,10.04,2.37,14.12,5.71,1.12.92,2.6,3.04,2.24,3.8-.66,1.39-2.46,2.82-3.99,3.11-5.1.96-9.85-.28-14.14-3.35-1.57-1.12-3.37-1.92-5.06-2.87,0,0,.18.18.18.18-1.24-2.18-2.48-4.35-3.73-6.56.15-.73.32-1.42.48-2.12.33-.35.66-.7.99-1.04.01.09.03.19.04.28-.05-.1-.09-.2-.13-.28-.29.4-.59.79-.87,1.2-.15.72-.31,1.43-.47,2.14-1.26-.67-2.52-1.34-3.99-2.12,4.51-6.49,10.25-9.39,18.98-7.15-1.44,1.37-2.45,2.33-3.99,3.79,2.14-1.19,3.83-2.13,6.35-3.52.64.51,2.2,1.76,3.75,3.01Z"/><path class="cls-1" d="m125.64,233.24c.94-.56,1.89-1.13,2.83-1.69.33.4.67.8,1,1.2.16-1.3.32-2.6.48-3.9.24-.18.45-.39.65-.61,2.17-1.99,4.34-3.97,7.39-6.75.65,5.2,2.25,9.86,1.48,14.08-.81,4.45-2.85,10.11-6.24,12.31-4.91,3.19-4.79,8.78-8.42,12.14-.77-.79-2.13-1.52-2.22-2.38-.73-6.88-1.21-13.79-1.77-20.69,1.61-1.23,3.21-2.47,4.82-3.7Z"/><path class="cls-1" d="m507.09,215.79c.52.6,1.04,1.21,1.57,1.82-12.99,7.56-34.11,8.82-46.69-1.65,5.76.3,10.4.54,16.33.85-3.06-.98-4.92-1.57-6.79-2.17.03-.32.06-.64.09-.96,4.99.55,9.99,1.09,14.98,1.64.04-.18.08-.37.11-.55-4.21-.71-8.42-1.42-12.62-2.13-.02-.29-.04-.57-.06-.86,1.61,0,3.23.05,4.84,0,9.72-.36,19.1,1.64,28.4,4.16,0,0-.17-.15-.17-.15Z"/><path class="cls-1" d="m502.27,230.96c-10.47.45-20.95,1.18-31.42,1.25-5.71.04-11.47-.75-17.13-1.67-3.41-.56-4.54-3.01-3.73-6.65.71-3.18,2.26-4.1,5.2-3.47,15.64,3.31,31.29,6.6,46.94,9.9.05.22.09.43.14.65Z"/><path class="cls-1" d="m405.99,78.61s.15.17.15.17c1.8-3.59-2.7-3.74-3.6-7.44,3.49-.97,7.46-3.45,10.54-2.62,4.58,1.24,9.72,2.57,10.97,9.57,1.51,8.47-.21,15.1-6.59,21.49.52-2.58.93-4.59,1.4-6.91-.95.54-1.65.93-2.83,1.61.69-3.37,1.28-6.22,1.86-9.07l-.55-.15c-.6,1.58-1.2,3.16-1.8,4.74-.35-.08-.7-.15-1.04-.23.44-2.76.87-5.52,1.31-8.29-.14-.06-.28-.12-.42-.17-.86,1.76-1.71,3.52-2.48,5.11-2.4-2.71-4.65-5.27-6.91-7.83Z"/><path class="cls-1" d="m290.63,206.68c-4.27-3.84-8.53-7.68-12.8-11.52,1.66.65,3.5,1.03,4.96,1.99,3.74,2.47,7.31,5.19,10.95,7.81,0,0-.19-.18-.19-.18,2.08,2.06,3.99,4.32,6.26,6.14,7.1,5.68,9,19.35.24,26.6-4.96,4.11-9.9,7.72-15.69,10.26-.58.26-1.72-.77-2.6-1.21,0,0,0-.06,0-.06,3.71-4.43,7.56-8.76,11.07-13.33,2.46-3.2,5.6-6.49,6.44-10.2,1.68-7.39-2.75-12.47-8.66-16.3Zm9.69,27.31c.14.19.29.38.43.57,1.42-3.89,2.85-7.78,4.27-11.68-2.07.1-2.39-.1-2.73-.27-.06-.03-.19.11.04-.03-.7,3.97-1.36,7.69-2.02,11.41Z"/><path class="cls-1" d="m158.5,80.89c6.94-7.39,15.63-10.62,25.44-12.59,6.08-1.22,11.61-5.2,17.39-7.95-4.43,3.24-8.61,6.92-13.36,9.6-5.14,2.9-11.33,4.12-16.12,7.44-6.34,4.4-10.46,10.9-12.16,18.78-.49,2.28-2.05,4.32-3.74,6.2-3.56-7.95,0-14.64,2.55-21.47Z"/><path class="cls-1" d="m463.57,129.97c-1.81-5.11-6.47-5.91-11.36-7.38,3.21-2.78,6.17-5.38,9.18-7.91.59-.5,1.66-1.25,2.06-1.04,4.03,2.13,8.96,3.65,11.58,6.98,1.84,2.33,1.29,7.43.34,10.89-1.15,4.16-4.22,4.34-7.62,1.38-1.34-1.16-2.89-2.07-4.35-3.09,0,0,.17.17.17.17Z"/><path class="cls-1" d="m450.57,207.09c17.99-6.31,35.73-1.71,53.58,1.31-20.33-.16-41.11-3.11-58.87,11.33-1.88-6.25,4.52-8.31,5.46-12.79,0,0-.17.15-.17.15Z"/><path class="cls-1" d="m130.61,228.24c-.2.22-.42.42-.65.61-5.39-.36-10.78-.73-16.17-1.09-3.25-.22-6.51-.41-9.12-.58.34-1.26.75-2.78,1.16-4.31,3.09-.84,6.19-1.62,9.26-2.54,1.2-.36,2.37-1.57,3.44-1.44,5.17.61,10.3,1.55,16.32,2.51-1.76,2.84-3,4.83-4.23,6.83Z"/><path class="cls-1" d="m273.14,100.22c6.36-12.54,14.39-22.78,28.55-27.27-5.32,5.47-10.52,10.28-15.03,15.67-2.36,2.82-3.9,6.54-5.13,10.09-1.89,5.46-2.51,5.79-8.39,1.51Z"/><path class="cls-1" d="m209.42,296.45c-.45-1.54-.61-2.1-.85-2.95-2.81,2.16-4.28,1.56-3.42-3.29-2.72,3.32-4.62,3.55-5.17-.07-4.54,3.77-8.17-1.53-12.36-1.11-1.32-3.72-.14-5.77,3.84-5.82,6.27-.08,12.66-1.19,17.76,4.42,2.52,2.78,2.52,4.95.2,8.82Z"/><path class="cls-1" d="m166.17,121.95s.17.2.17.2c-1.82-2.56-3.64-5.12-5.46-7.67.39-.42.78-.84,1.17-1.26,1.44.69,2.88,1.37,4.81,2.29-.91-1.89-1.63-3.42-2.44-5.11,6.65.81,13.54,12.74,11.67,21.76-3.69-3.8-6.8-7-9.91-10.21Z"/><path class="cls-1" d="m123.24,169.94c1.19-2.69,2.38-5.38,3.58-8.06.25.9.27,2.39.8,2.6,5.79,2.3,4.43,6.8,3.68,11.21-.35,2.09-.46,4.22-.68,6.33-.29.78-.57,1.56-.86,2.35-.6.82-1.2,1.63-2.03,2.75-.89-1.37-1.49-2.3-2.09-3.23-.54-.95-1.08-1.9-1.61-2.85-.23-3.05-.47-6.11-.7-9.16-.03-.64-.06-1.29-.09-1.93Z"/><path class="cls-1" d="m249.11,82.49c-1.1,4.42-2.21,8.83-3.31,13.25l-.84-.05c-.16-2.23-.33-4.46-.53-7.22-.38,2.16-.67,3.83-.96,5.5-3.15-7-3.41-14.47,1.04-20.02,1.75-2.19,2.52-6.11,6.6-7.44-.73,5.66-1.42,10.9-2.09,16.14,0,0,.09-.17.09-.17Z"/><path class="cls-1" d="m343.42,245.8c7.47-2.77,13.98-8.83,22.92-7.73-2.56,2.88-4.56,5.22-6.65,7.48-4.8,5.2-10.97,4.9-17.55,4.55.55-1.72.99-3.09,1.43-4.47l-.16.17Z"/><path class="cls-1" d="m370.77,158.11c3.32,7.84,1.15,12.95-4.47,17.27-3.64,2.8-6.84,6.19-10.62,9.67-.93-3.94-.56-6.6,2.21-9.44,3.33-3.42,5.77-7.73,8.2-11.1-.11,1.22-.32,3.56-.53,5.9.43.12.86.24,1.28.37,1.23-3.99,2.47-7.97,3.92-12.66Z"/><path class="cls-1" d="m166.42,143.1c-.2,2.27-.35,4-.58,6.56-.73.13-2.12.37-3.83.67.91.64,1.63,1.15,2.58,1.82-.54.86-1.08,1.71-1.62,2.57.42.62.85,1.23,1.27,1.85-3.52.31-7.05.62-10.63.93-.29-9.06,8.37-17.41,17.06-16.01-1.03.49-1.44.74-1.89.89-1.09.36-2.19.67-2.37.72Z"/><path class="cls-1" d="m351.18,233.27c2.43-1.41,4.77-3.03,7.32-4.16,1.91-.85,4.08-1.2,6.17-1.54,1.04-.17,2.16.19,3.25.31-.2,1.52.06,4.09-.66,4.41-5.96,2.61-12.09,4.81-18.2,7.06-.01,0-.41-1.06-.63-1.63.92-1.48,1.85-2.96,2.77-4.44Z"/><path class="cls-1" d="m314.96,316.11c-1.03-3.72-2.06-7.43-2.92-10.53-4.99.22-9.59.43-14.2.63-.09-.78-.19-1.56-.28-2.33,3.92-.61,7.82-1.4,11.77-1.77,2.08-.19,4.68-2.25,6.26,1.18,1.24,2.67,3.31,5.11,3.86,7.88.31,1.57-1.69,3.61-2.65,5.44-.61-.17-1.23-.33-1.84-.5Z"/><path class="cls-1" d="m494.53,224.93h7.24c-.83-.74-1.24-1.11-1.85-1.66,7.4-2.66,14.62-5.78,23-1.33-9.41,3.92-18.75,4.53-28.38,2.98Z"/><path class="cls-1" d="m356.94,224.45c-1.85,1.95-3.13,1.73-3.38-1.07-.28-3.14-1.23-6.6-.26-9.35.91-2.59,3.93-4.43,6.03-6.6.49.39.97.78,1.46,1.18-.5,4.11-1.01,8.22-1.51,12.34-.78,1.17-1.55,2.34-2.33,3.51Z"/><path class="cls-1" d="m158.08,165.89c.24.16,1.06.68,1.89,1.2q-3.94,5.11-6.67,3.81v-12.82h10.86c.05.33.09.67.14,1-1.55.45-3.09.9-4.81,1.4,1.34.3,2.54.57,4.28.95-2.21,1.73-3.93,3.08-5.69,4.45Z"/><path class="cls-1" d="m356.94,224.45c.78-1.17,1.55-2.34,2.33-3.51,3.82-1.65,7.64-3.31,11.61-5.02-.01,7.3-1.37,8.31-14.35,10.88.15-.86.28-1.61.41-2.35Z"/><path class="cls-1" d="m319.48,287.84c3.92-2.68,2.93,2.24,4.11,3.22,6.6,5.51,6.38,5.78,2.84,14.03-2.7-5.52-5.1-10.43-7.5-15.34.19-.64.37-1.27.56-1.91Z"/><path class="cls-1" d="m183.9,253.87c1.59-1.92,1.83-6.33,5.7-4.2,1.82,1.01,3.54,3.84,3.65,5.93.11,2.22-1.94,3.34-4.45,1.5-1.52-1.12-3.51-1.6-5.29-2.37.15-.28.28-.56.4-.85Z"/><path class="cls-1" d="m278.82,402.1c-2.99-2.97-9.27-2.36-8.57-8.78,5.57-1.37,10.15,1.15,10.24,6.31.01.77-1.17,1.57-1.8,2.35l.13.12Z"/><path class="cls-1" d="m252.33,282.53c-.22-1.05-.44-2.09-.67-3.14-.91-1.47-1.83-2.94-3.33-5.36,4.62,2.23,8.22,3.97,12.52,6.04-1.42,2.01-2.75,3.87-4.14,5.83-1.81-1.39-3.1-2.38-4.38-3.37Z"/><path class="cls-1" d="m316.19,294.93c1.26.99,2.76,1.79,3.72,3.02,2.03,2.58,3.79,5.38,5.88,8.41-.77.88-1.77,2.01-3.75,4.26-2.16-5.8-4-10.76-5.85-15.71,0,0,0,.02,0,.02Z"/><path class="cls-1" d="m153.94,179.03c1.36,4.36,2.66,8.74,4.11,13.07.32.95,1.18,1.71,2,2.86-4.55-.58-7.58-5.37-7.79-12.12-.04-1.22-2.55-4.45,1.84-3.73l-.16-.08Z"/><path class="cls-1" d="m365.17,212.91c2.83-1.43,5.66-2.86,8.49-4.3l-2.39-2.7c1.36.21,2.72.41,4.82.73-1.9,2.69-3.2,5.62-5.42,7.4-2.57,2.06-4.71,1.43-5.82-.52.16-.18.26-.38.32-.61Z"/><path class="cls-1" d="m351.18,233.27c-.92,1.48-1.85,2.96-2.77,4.44-.7.58-1.4,1.16-2.2,1.81-1.77-6.38.71-12.13,6.28-13.64-.47,2.66-.89,5.02-1.31,7.39Z"/><path class="cls-1" d="m262.77,270.68c.49-.57,1.47-1.71,2.46-2.86.37.14.74.28,1.11.41-.15,1.94-.3,3.88-.48,6.21-2.06-.14-3.82.14-5.21-.45-1.47-.62-3.24-1.87-3.66-3.23-.29-.94,1.48-2.53,2.33-3.83,1.2,1.3,2.4,2.59,3.45,3.74Z"/><path class="cls-1" d="m356.27,114.2c.42,6.06,6.04,11.41.75,18.24-.78-6.01-1.56-12.02-2.34-18.02.53-.07,1.06-.14,1.59-.21Z"/><path class="cls-1" d="m319.48,287.84c-.19.64-.37,1.27-.56,1.91-4.47,1.12-8.94,2.24-14.12,3.53,3.74-6.22,6.19-7.01,14.68-5.44Z"/><path class="cls-1" d="m308.77,309.6c1.05,3.72,2.75,6.86,2.01,7.63-1.97,2.05-4.99,3.07-8.3,3.57,1.86-3.32,3.73-6.65,6.29-11.21Z"/><path class="cls-1" d="m183.9,253.87c-.12.29-.25.58-.4.85-6.65-1.51-8.61-5.16-4.8-9.96v3.38c.24.15.48.31.72.46.48-.96.96-1.92,1.44-2.88.32.16.63.32.95.47.09,1.16.17,2.32.28,3.78.88-.55,1.68-1.05,3.22-2.01-.6,2.52-1.01,4.21-1.41,5.89Z"/><path class="cls-1" d="m316.19,294.91c-4.6,1.97-9.19,3.95-13.79,5.92-.3-.83-.61-1.65-.91-2.48,3.69-4.93,9.67-2.67,14.7-3.41,0,0,0-.03,0-.03Z"/><path class="cls-1" d="m200.06,118.72c1.03,7.13,1.97,13.58,2.9,20.01-3.54-.99-5.27-11.57-2.9-20.01Z"/><path class="cls-1" d="m328.6,258.14c1.16-2.37,2.33-4.74,3.49-7.11.52.17,1.03.34,1.55.51.64,2.39,1.28,4.78,2.17,8.07-3.12-.7-5.25-1.18-7.38-1.65,0,0,.17.17.17.17Z"/><path class="cls-1" d="m203.22,60.51c.67-1.21,1.33-2.41,2-3.62,3.15-.83,6.27-1.81,9.46-2.39,1.05-.19,2.34.55,3.41,1.08.2.1.08,1.66-.15,1.74-.97.32-2.06.24-3.06.46-3.89.88-7.77,1.82-11.65,2.73Z"/><path class="cls-1" d="m247.96,115.82c-3.25,3.99-6.5,7.98-8.99,11.03.44-5.74,3.49-8.74,10.97-9.32-.66-.57-1.32-1.14-1.98-1.72Z"/><path class="cls-1" d="m330.33,237.08c-.92-1.92-2.7-3.95-2.48-5.74.15-1.24,3.02-2.16,4.68-3.22.51.33,1.03.66,1.54.99-.54,2.56-1.08,5.11-1.62,7.67-.71.1-1.41.2-2.12.29Z"/><path class="cls-1" d="m343.58,245.63c-.92,1.11-1.84,2.23-2.76,3.34l-1.45-.35c.65-3.25,1.3-6.5,1.96-9.75.97.16,1.93.32,2.9.48-.27,2.16-.55,4.31-.82,6.46,0,0,.16-.18.16-.18Z"/><path class="cls-1" d="m422.35,179.5c-3.57-1.73-6.71-3.24-10.02-4.84,4.22-2.68,8.36-.79,10.02,4.84Z"/><path class="cls-1" d="m245.45,205.21c2.64.67,5.28,1.34,8.03,2.04-2.03,4.95-4.06,4.7-8.03-2.04Z"/><path class="cls-1" d="m365.17,212.91c-.06.22-.17.43-.32.61-.55-1.33-1.66-2.73-1.52-3.98.19-1.69,1.36-3.26,2.33-5.37,4.62,4.06.55,6.2-.49,8.74Z"/><path class="cls-1" d="m459.55,234.99c4.27,1.4,8.54,2.79,12.81,4.19-.17.58-.35,1.15-.52,1.73-4.29-1.31-8.59-2.63-12.88-3.94.2-.66.4-1.31.6-1.97Z"/><path class="cls-1" d="m306.61,309.62c-2.34,4.61-4.09,8.05-6.54,12.87.34-4.59.58-7.81.82-11.08,1.3-.41,2.8-.88,5.72-1.79Z"/><path class="cls-1" d="m128.66,209.95c2.05-.4,4.11-.8,6.4-1.25.48,1.96.81,3.32,1.22,4.99-.56.11-1.32.52-1.67.29-2-1.3-3.91-2.75-5.85-4.15,0,0-.09.12-.09.12Z"/><path class="cls-1" d="m143.37,157.79c2.25,1.75,4.5,3.5,7.37,5.73-6.65.11-9.09-1.64-9.91-6.54.97.35,1.84.67,2.71.98,0,0-.17-.17-.17-.17Z"/><path class="cls-1" d="m278.68,401.98c-.06,1.06.24,2.43-.3,3.08-.52.63-2.34,1.03-2.86.62-1.57-1.25-2.78-2.95-3.57-5.36,2.29.59,4.58,1.18,6.87,1.78,0,0-.13-.12-.13-.12Z"/><path class="cls-1" d="m118.17,205.52c4.25-.33,8.26-.09,10.49,4.43,0,0,.09-.12.09-.12-2.84,2.59-4.87.56-6.92-1.24-1.19-1.05-2.35-2.13-3.55-3.17-.03.02-.11.1-.11.1Z"/><path class="cls-1" d="m154.1,179.11c-.9-2.13-1.8-4.26-2.7-6.39.47-.28.94-.55,1.42-.83,1.41.63,2.81,1.27,4.88,2.2-1.18.76-1.74,1.13-2.63,1.71.7.76,1.54,1.67,2.98,3.22-1.97,0-3.05,0-4.12,0,.01,0,.17.08.17.08Z"/><path class="cls-1" d="m206.82,336.42c-2.67-3.51-1.73-6.95.42-10.36,1.28,3.46,1.52,6.89-.57,10.25.02.02.15.11.15.11Z"/><path class="cls-1" d="m337.53,227.41c-1.12-1.29-2.24-2.59-3.37-3.88.32-.3.65-.59.97-.89,1.11,1.3,2.22,2.59,3.34,3.89-.31.29-.63.59-.94.88Z"/><path class="cls-1" d="m458.65,355.03c.64-1.09,1.13-2.99,1.96-3.16,12.36-2.47,24.38-1.51,35.76,4.33.73.38,1.65,1.76,1.46,2.29-.34.94-1.34,1.95-2.3,2.32-5.05,1.95-10.08,4.25-15.72,2.83.02,0,.18.09.18.09-1.2-.36-2.38-.93-3.61-1.03-1.43-.12-2.91.08-4.35.28-5.2.72-8.88-1.87-12.11-5.49-.42-.81-.85-1.63-1.27-2.45Z"/><path class="cls-1" d="m474.94,339.33c4.11,1.28,8.22,2.57,13.34,4.17-4.26,1.8-7.49,3.17-10.72,4.53-6.05,2.4-12.13.56-18.22.55-3.5,0-6.01,1.83-6.01-3.06-.58.47-1.3,1.05-2.02,1.62-1.19-1.37-2.38-2.74-3.57-4.11-.46-.84-.92-1.69-2.12-3.91h22.91c2.14.07,4.28.14,6.41.2Z"/><path class="cls-1" d="m458.65,355.03c.43.82.85,1.64,1.27,2.45,3.69,3.8,3.23,8.33,2.75,13.13-.58,5.88-.35,11.85-.7,17.76-.1,1.73-.99,3.4-1.52,5.11-.46.08-.91.15-1.37.23-.79-2.86-1.39-5.79-2.39-8.58-3.17-8.8-3.43-17.7-1.06-26.66.35-1.32,1.98-2.3,3.02-3.44Z"/><path class="cls-1" d="m447.73,343.03c1.19,1.37,2.38,2.74,3.57,4.11,3.35,4.34,1.87,9.35,1.65,14.05-.34,7.6-1.27,15.18-2.89,22.97-1.47-3.38-2.94-6.76-4.42-10.14,1.68-2.45-.01-4.81-.08-7.22-.21-7.28-.05-14.58.14-21.86.02-.65,1.31-1.27,2.02-1.9Z"/><path class="cls-1" d="m489.21,375.94c-3.8-1.52-7.73-4.52-11.36-4.21-5.31.47-6.81-3.01-10.18-6.35,4.58-.61,8.47-1.12,12.34-1.65-.02-.01-.18-.09-.2-.1,3.31.74,6.61,1.68,9.97,2.2,5.39.84,10.32,2.13,11.64,8.18-4.03.59-8.21,1.2-12.38,1.81,0,0,.17.11.17.11Z"/><path class="cls-1" d="m473.52,398.68c-8.42-7.1-11.39-22.35-6.51-31.95,2.27,2.48,5.97,4.65,6.22,7.16.79,7.92.29,15.97.29,24.79Z"/><path class="cls-1" d="m504.43,384.12c-1.19.63-2.53,1.99-3.54,1.78-6.51-1.37-13.03-2.87-19.38-4.85-1.62-.51-2.66-2.91-4.52-5.1,4.77,0,8.51,0,12.24,0,0,0-.17-.11-.17-.11,5.17,2.81,10.35,5.62,15.53,8.44,0,0-.15-.16-.15-.16Z"/><path class="cls-1" d="m475.5,379.5c7.76,3.02,6.6,9.1,7.21,14.39.11.98-1.53,2.16-2.37,3.25-.67-.92-1.71-1.76-1.94-2.79-1.09-4.92-1.96-9.89-2.9-14.85Z"/><path class="cls-1" d="m441.67,357.24c.78,2.9,1.62,5.78,2.33,8.69.66,2.66,1.19,5.35,1.78,8.03v5.31c-.59.13-1.19.27-1.78.4-1.29-5.5-2.57-11-3.86-16.51.51-1.97,1.02-3.95,1.53-5.92Z"/><path class="cls-1" d="m441.67,357.24c-.51,1.97-1.02,3.95-1.53,5.92-1.28-.11-2.55-.21-3.83-.32.61-2.03,1.22-4.06,1.84-6.1.6-1.41,1.19-2.81,1.78-4.21.66-.35,1.32-.7,2.85-1.51-.46,2.59-.78,4.4-1.1,6.22Z"/><path class="cls-1" d="m486.66,399.15c-.88-3.42-1.75-6.85-2.63-10.27,6.94,4.49,7.51,6.41,2.63,10.27Z"/><path class="cls-1" d="m477.46,347.93c5.41-2.36,10.33-1.02,15.03,2-.13.47-.1,1.15-.41,1.38-1.88,1.4-13.21-1.27-14.63-3.38Z"/><path class="cls-1" d="m502.57,394.73c-1.97-.85-4-1.58-5.87-2.62-.63-.35-.84-1.48-1.24-2.26.95-.42,2.34-1.45,2.78-1.14,1.91,1.35,3.55,3.1,5.28,4.7-.32.44-.64.88-.95,1.32Z"/><path class="cls-1" d="m451.63,288.92c2.39-2.29,4.75-4.59,7.16-6.85,5.8-5.44,6.03-5.44,12.83.13-.72,1.41-1.48,2.93-2.24,4.44-.5.39-1.02.79-1.53,1.19-4.94,2.92-9.88,5.83-14.83,8.75,11-2.62,16.38,7.83,24.88,11.82-.66,2.13-1.14,3.69-1.8,5.83-3.49,1.73-6.99.39-10.36-2.15-3.66-2.76-7.42-5.39-11.13-8.07-2.36-2.97-4.73-5.95-7.25-9.12,1.45-2.03,2.85-4,4.26-5.98Z"/><path class="cls-1" d="m425.35,289.94c3.86-4.41,6.87-9.93,13.64-10.5,1.27-.11,2.53-.32,3.79-.49-.01,1.32-.02,2.65-.03,3.97-2,2.49-4,4.98-6,7.48-2.15,2.42-4.08,5.09-6.5,7.2-2.15,1.87-4.83,3.12-7.27,4.64-.41-.41-.81-.81-1.22-1.22.42-2.53.83-5.07,1.25-7.6.78-1.16,1.56-2.32,2.34-3.48Z"/><path class="cls-1" d="m436.75,290.4c2-2.49,4-4.98,6-7.48,3.45-4.71,8.31-6.4,15-6.63-1.74,3.29-3.27,6.02-4.64,8.83-.6,1.23-.9,2.62-1.34,3.93-1.54,1.03-3.05,2.11-4.62,3.08-3.93,2.4-7.89,4.75-11.85,7.12-.4-.4-.8-.8-1.2-1.2.88-2.55,1.77-5.09,2.65-7.64Z"/><path class="cls-1" d="m461.48,328.85c1.09.75,2.09,1.73,3.29,2.19,1.75.67,3.64.95,5.82,1.49-5.65,5.81-24.08,6.55-31.04.63,8.05-1.51,15.07-2.83,22.1-4.15,0,0-.17-.15-.17-.15Z"/><path class="cls-1" d="m425.35,289.94c-.78,1.16-1.56,2.32-2.34,3.48-.52.74-.94,1.6-1.59,2.21-1.01.97-2.08,1.99-3.32,2.55-.48.22-2.18-.81-2.15-1.16.12-1.38.35-3.05,1.21-4,2.39-2.65,5.11-4.99,7.7-7.45.16,1.46.32,2.91.49,4.37Z"/><path class="cls-1" d="m423.46,306.82c3.05,2.14,5.77,4.05,8.82,6.2-.6,1.18-1.22,2.42-1.85,3.67-8.68-4.6-9.56-5.82-6.97-9.87Z"/><path class="cls-1" d="m474.94,339.33c-2.14-.07-4.28-.14-6.41-.2-.43-.72-.86-1.45-1.29-2.17,1.78-.71,3.65-2.19,5.31-1.97,2.9.39,5.66,1.81,8.47,2.8.02.51.05,1.03.07,1.54h-6.14Z"/><path class="cls-1" d="m407.39,257.18c-1.56-.09-3.12-.17-4.68-.26,1.8-1.74,3.59-3.47,5.39-5.21.55-.13,1.1-.27,1.65-.4,5.46-.41,10.92-.81,17.74-1.32-2.19,3.83-3.25,7.65-4.65,7.78-5.09.47-10.29-.29-15.45-.59Z"/><path class="cls-1" d="m376.2,273.89l.94-.92c5.18.93,10.36,1.85,15.54,2.81,2.39.44,4.77.95,7.14,2.07-8.44,6.04-16.99.32-26.36.4,1.26-2,2-3.18,2.75-4.36Z"/><path class="cls-1" d="m409.76,251.3c-.55.13-1.1.27-1.65.4-2.41,1.05-2.86.07-2.53-2.22.78-5.44,2.37-10.18,9.09-11.61-1.73,4.64.52,10.31-4.9,13.43Z"/><path class="cls-1" d="m416.21,247.21c4.83-2.57,8.74-4.65,13.41-7.14.36,1.69,1.49,3.83.87,4.66-3.33,4.49-8.01,4.3-14.28,2.48Z"/><path class="cls-1" d="m361.94,326.22c.68,2.91,1.79,5.79,1.92,8.72.1,2.38-.97,4.81-1.81,8.47-4.64-7.25-8.46-13.22-12.5-19.55-4.35,3.61-8.48,7.04-12.61,10.47l-1.35-1.02c2.37-3.51,4.74-7.01,7.11-10.52,1.02-.93,2.05-1.87,3.07-2.8,4.18.73,8.37,1.45,12.55,2.18,1.2,1.35,2.41,2.7,3.61,4.04Z"/><path class="cls-1" d="m361.94,326.22c-1.2-1.35-2.41-2.7-3.61-4.04-.9-3.74-6.03-5.88-3.99-10.73.56-1.65,1.12-3.31,1.68-4.96,3.31,3.62,6.62,7.24,9.93,10.86.44,1.46.71,3.01,1.36,4.38,1.94,4.03,2.74,7.93-.46,11.84-1.69-2.53-3.3-4.94-4.9-7.35Z"/><path class="cls-1" d="m356.02,306.49c-.56,1.65-1.12,3.31-1.68,4.96-2.85,2.85-5.71,5.7-8.56,8.55-1.02.93-2.05,1.87-3.07,2.8-1.97,1.34-3.94,2.68-5.91,4.03-.31-.18-.62-.37-.93-.55,1.75-3.69,3.5-7.37,5.26-11.06,3.15-2.36,6.2-4.89,9.51-7.01,1.54-.98,3.58-1.17,5.39-1.72Z"/><path class="cls-1" d="m349.86,330.39c3.21,5.58,6.67,10.06,8.43,15.14,1.44,4.15-2.95,2.99-5.81,4.03.46-6.54-7.61-10.69-2.62-19.17Z"/><path class="cls-1" d="m345.04,347.97l2.11-6.37c2.16,6.06,3.6,11.86-3.84,16.19.68-3.85,1.2-6.86,1.73-9.87,0,0,0,.05,0,.05Z"/><path class="cls-1" d="m346.32,331.15q1.06,3.23-6.69,10.6c-1.48-1.84-1.26-3.37,1.18-5.81,1.66-1.66,3.54-3.09,5.51-4.79Z"/><path class="cls-1" d="m345.04,347.93c-1.03,1.8-2.06,3.6-3.08,5.4-.42.08-.83.15-1.25.23-.26-3.14-.51-6.29-.77-9.43.46-.17.92-.34,1.38-.51,1.24,1.47,2.48,2.94,3.73,4.39,0-.02,0-.07,0-.07Z"/><path class="cls-1" d="m402.74,395.82c0-6.11-.09-12.22.08-18.32.03-1.09,1.02-2.23,1.81-3.13.13-.15,1.54.7,2.27,1.21,5.21,3.67,5.11,12.01.09,15.72-1.42,1.05-2.07,3.15-3.07,4.77-.39-.08-.79-.16-1.18-.25Z"/><path class="cls-1" d="m394.13,379.61c1.65-1.34,3.12-2.54,4.8-3.91.06.14-.3-.69-.73-1.68.69.04,1.22-.05,1.28.08,2.93,6.06,3.17,12.27,1.34,18.59-.48.16-.97.31-1.45.47-1.68-4.34-3.37-8.69-5.25-13.55Z"/><path class="cls-1" d="m467.85,287.83c.51-.4,1.03-.8,1.53-1.19,1.18-1.08,2.21-2.49,3.6-3.17,1.78-.87,4.32-2.14,5.67-1.47,2.6,1.29,5.64,3.04,5.41,6.92,0,0,.16-.19.16-.19-6.02,3.11-11.9,6.84-19.69,4.71,1.22-2.07,2.27-3.84,3.31-5.6Z"/><path class="cls-1" d="m487.42,304.67c-1.12.64-2.27,1.03-3.03,1.82-.57.59-.64,1.68-1.32,3.68-6.21-4.91-11.92-9.43-18.35-14.52,10.11-2.35,15.7,3.43,22.7,9.02Z"/><path class="cls-1" d="m486.63,296.07c1.01.22,2.02.43,3.02.65,1.77.5,3.54,1,5.4,1.53-4,4.79-6.02,4.54-13.66-2.18h5.24Z"/><path class="cls-1" d="m86.18,262.91c2.39-1.35,4.78-2.7,7.17-4.05,1.33-.43,2.65-.86,4.2-1.37-1.44,7.36-4.81,9.61-13.04,8.87.59-1.21,1.13-2.33,1.67-3.45Z"/><path class="cls-1" d="m76.07,212.75q-6.56,3.97-11.54,2.52c2.99-5.27,7.48-2.99,11.56-2.52h-.03Z"/><path class="cls-1" d="m75.09,210.75c-1.75-1.15-3.58-2.19-5.22-3.48-1.17-.92-2.08-2.17-3.85-4.06,6.73.44,10.4,4.07,9.03,7.54.02,0,.04,0,.04,0Z"/><path class="cls-1" d="m125.64,183.88c.6.93,1.21,1.86,2.09,3.23.83-1.12,1.43-1.94,2.03-2.75.33,2.57.66,5.13,1.11,8.63-9.66-4.35-18.3-8.24-26.93-12.13,0,0-.09.15-.09.15,6.28,1.89,12.56,3.8,18.86,5.66,2.44.72,3.98.31,2.93-2.78Z"/><path class="cls-1" d="m125.64,183.88c1.05,3.09-.5,3.5-2.93,2.78-6.3-1.85-12.57-3.77-18.86-5.66-2.6-3.36-3.2-6.48,1.1-8.98,0,0-.17-.13-.17-.13,2.36,1.03,4.75,2,7.07,3.12,4.08,1.96,8.12,4,12.17,6.01l1.61,2.85Z"/><path class="cls-1" d="m123.24,169.94c.03.64.06,1.29.09,1.93-1.18.51-2.35,1.02-3.53,1.54-.9-.97-1.8-1.95-2.7-2.92-.52-4.24-1.04-8.47-1.61-13.09,11.08,2.07,8.53,4.55,7.76,12.55Z"/><path class="cls-1" d="m117.1,170.48c.9.97,1.8,1.95,2.7,2.92-2,.13-4.04.56-6,.32-3.03-.37-6.01-1.19-9.02-1.82,0,0,.17.13.17.13-.84-1.18-1.69-2.35-2.82-3.92.23-.62.76-2.1,1.67-4.59,4.59,2.41,8.94,4.69,13.29,6.97Z"/><path class="cls-1" d="m103.17,154.08c2.33,3.12,4.66,6.24,6.85,9.17-5.7.03-8.72-2.52-6.84-9.16,0,0,0-.01,0-.01Z"/><path class="cls-1" d="m374.45,74.81c4.45-3.08,9.39-2.8,13.66-.34,10.54,6.08,16.36,15.47,17.79,27.74.63,5.38,2.03,10.66,2.94,15.28-3.32-2.71-4.52-7.56-4.37-12.68.3-10.88-4.65-19.24-12.25-26.16-5-4.55-11.04-6.31-17.77-3.84Z"/><path class="cls-1" d="m445.03,117.96c-4.14-1.91-3.14-4.12-.71-6.8.33,1.23.59,2.2.89,3.32.84-.54,1.62-1.04,3.71-2.39-1.83,2.76-2.85,4.29-3.9,5.87Z"/><path class="cls-1" d="m290.63,206.68c5.91,3.83,10.34,8.92,8.66,16.3-.84,3.71-3.98,7-6.44,10.2-3.52,4.58-7.37,8.9-11.07,13.33-3.67-.83-7.34-1.65-10.08-2.27,3.19-1.3,7.21-2.54,10.77-4.58,1.62-.93,2.28-3.5,3.5-5.23.68-.96,1.46-2.2,2.45-2.54,8.17-2.76,11.29-9.16,7.72-17.01-1.34-2.96-3.64-5.48-5.51-8.2Z"/><path class="cls-1" d="m168.52,282.46c-.14,1.16-.28,2.3-.5,4.16-.83-1.73-1.38-2.88-1.79-3.74-2.45,1.43-4.68,2.73-7.01,4.09-.7-1.64-1.35-3.16-1.67-3.91,3.08-.17,7.01-.39,10.97-.6Z"/><path class="cls-1" d="m139,290.25c2.31-2.4,3.91-4.05,5.54-5.74.09,1.93.19,3.94.29,6.04-1.27-.64-2.26-1.14-3.25-1.64-.38,1.12-.77,2.24-1.32,3.83-.61-1.19-1.11-2.19-1.27-2.49Z"/><path class="cls-1" d="m147.56,128.49c3.36-2.21,6.72-4.42,10.08-6.63.13,2.63.25,5.26.42,8.67-1-1.95-2.07-4.03-3.14-6.11-.66.49-1.33.99-1.99,1.48v6.79c-1.64-1.28-3.51-2.74-5.38-4.2Z"/><path class="cls-1" d="m435.53,165.35c.05.1.09.2.14.29-.01-.09-.03-.19-.04-.28h-.1Z"/><path class="cls-1" d="m435.63,165.37c-.33.35-.66.7-.99,1.04,0,0,.02.14.02.14.3-.39.59-.78.88-1.18,0,0,.1,0,.1,0Z"/><path class="cls-1" d="m434.63,166.41c-.16.69-.33,1.39-.48,2.12.01.03.03.12.03.15.17-.68.33-1.39.48-2.11-.01-.02-.03-.15-.03-.15Z"/><path class="cls-1" d="m300.32,233.99c.66-3.72,1.31-7.44,2.02-11.41-.23.14-.1,0-.04.03.34.17.66.37,2.73.27-1.42,3.89-2.85,7.78-4.27,11.68-.14-.19-.29-.38-.43-.57Z"/><path class="cls-1" d="m104.79,171.9c3,.63,5.98,1.45,9.02,1.82,1.96.24,4-.19,6-.32,1.18-.51,2.35-1.02,3.53-1.54.23,3.05.47,6.11.7,9.16-4.06-2.01-8.09-4.06-12.17-6.01-2.32-1.11-4.71-2.08-7.07-3.12Z"/><path class="cls-1" d="m345.78,320c2.85-2.85,5.71-5.7,8.56-8.55-2.03,4.84,3.09,6.99,3.99,10.73-4.18-.73-8.37-1.45-12.55-2.18Z"/></svg>