<?xml version="1.0" encoding="UTF-8"?><svg id="Layer_1" xmlns="http://www.w3.org/2000/svg" width="436" height="436" viewBox="0 0 436 436"><defs><style>.cls-1,.cls-2{stroke-width:10px;}.cls-1,.cls-2,.cls-3,.cls-4{fill:none;stroke:#fff;}.cls-1,.cls-3,.cls-4{stroke-linecap:round;stroke-linejoin:round;}.cls-2{stroke-miterlimit:10;}.cls-3{stroke-width:9px;}.cls-4{stroke-width:7px;}</style></defs><path class="cls-1" d="m15,272c15.23-3.24,39.22-6.1,67.18,0,42.74,9.32,69.01,33.97,78.38,43,16.56,15.95,20.77,26.58,28.5,36,18.8,22.88,61.52,42.3,166.94,26"/><path class="cls-4" d="m27,302.19c7.5-1.28,18.53-2.25,31.55,0,9.15,1.58,24.12,5.58,42.75,18.7,28.36,19.97,43.11,45.5,49.88,54.93,18.03,25.13,59.06,46.97,160.82,30.39"/><path class="cls-1" d="m51.5,348.5c7.89-.3,17.61.44,28,4,37.45,12.82,51.63,51.26,54,58"/><path class="cls-1" d="m406,315c-9.06-7.04-21.35-14.95-37-21-40.37-15.62-76.13-8.52-88-6-51.41,10.92-82.07,44.2-92,56"/><path class="cls-1" d="m364,361.51c-5.09-4-12-8.5-20.8-11.94-22.69-8.88-42.8-4.84-49.47-3.41-28.9,6.21-46.14,25.13-51.72,31.84"/><path class="cls-4" d="m336.68,376.13c-1.98-2.2-4.7-4.72-8.27-6.79-9.22-5.33-17.94-4.11-20.84-3.66-12.56,1.96-20.75,10.73-23.43,13.87"/><path class="cls-4" d="m389,340.27c-7.35-6.01-17.32-12.75-30.01-17.91-32.74-13.32-61.75-7.27-71.37-5.12-41.7,9.31-66.56,37.69-74.62,47.75"/><line class="cls-4" x1="167" y1="315.82" x2="287.3" y2="199.5"/><line class="cls-4" x1="177.2" y1="328" x2="297.5" y2="211.68"/><path class="cls-4" d="m283.5,194.97l21.06,18.53,44.64-33.69c4.21-13.48-8.42-32.85-29.48-30.32l-36.22,45.48Z"/><path class="cls-4" d="m67.5,268.5c-.66-4.44-1.08-9.47-1-15,.22-14.25,3.72-25.93,7-34,6.73,4.28,14.55,8.82,23.44,13.25,0,0,11.98,5.98,24.65,10.75,17.83,6.71,53.96,14.75,101.41,17"/><path class="cls-4" d="m387.82,299c7.18-3.81,11.84-8.26,14.88-11.97,21.43-26.17,2.97-65.45,1.72-68.03-13.5,8.55-30.38,17.58-50.64,25.17-42.6,15.95-81.17,18.38-106.78,17.83"/><path class="cls-4" d="m285.5,116.5c2.22-4.72,6.86-7.81,12-8,5.48-.2,10.62,2.96,13,8,.65-1.11,3.53-5.74,9-7,6.26-1.43,13.36,2.13,17,9"/><path class="cls-4" d="m237.5,72.5c2.22-4.72,6.86-7.81,12-8,5.48-.2,10.62,2.96,13,8,.65-1.11,3.53-5.74,9-7,6.26-1.43,13.36,2.13,17,9"/><circle class="cls-4" cx="111.5" cy="108.5" r="33"/><line class="cls-3" x1="156" y1="137" x2="167" y2="145.08"/><line class="cls-3" x1="163.68" y1="111.78" x2="177.32" y2="112.3"/><line class="cls-3" x1="113.76" y1="163.22" x2="113.24" y2="176.86"/><line class="cls-3" x1="113.76" y1="44.22" x2="113.24" y2="57.86"/><line class="cls-3" x1="140.65" y1="156.4" x2="148.35" y2="167.68"/><line class="cls-3" x1="137.91" y1="67.84" x2="145.09" y2="56.24"/><line class="cls-3" x1="158.66" y1="83.57" x2="170.34" y2="76.51"/><line class="cls-3" x1="70.23" y1="137" x2="59.23" y2="145.08"/><line class="cls-3" x1="62.55" y1="111.78" x2="48.91" y2="112.3"/><line class="cls-3" x1="85.57" y1="156.4" x2="77.88" y2="167.68"/><line class="cls-3" x1="88.32" y1="67.84" x2="81.14" y2="56.24"/><line class="cls-3" x1="67.57" y1="83.57" x2="59" y2="77"/><circle class="cls-2" cx="218" cy="218" r="213"/><path class="cls-4" d="m201,332c-5.11,1.04-11.19,1.43-17.61-.08-6.48-1.53-11.61-4.62-15.5-7.83"/></svg>