<?xml version="1.0" encoding="UTF-8"?><svg id="Layer_1" xmlns="http://www.w3.org/2000/svg" width="436" height="436.01" viewBox="0 0 436 436.01"><defs><style>.cls-1{stroke-width:5px;}.cls-1,.cls-2{stroke-linecap:round;stroke-linejoin:round;}.cls-1,.cls-2,.cls-3{fill:none;stroke:#fff;}.cls-2,.cls-3{stroke-width:10px;}.cls-3{stroke-miterlimit:10;}</style></defs><path class="cls-3" d="m431,218.01c0,117.64-95.36,213-213,213S5,335.65,5,218.01c0-50.19,18.31-88.07,25.26-100.7C65.82,52.67,138.5,4.18,218,5.01c105.98,1.1,213,89.73,213,213Z"/><path class="cls-2" d="m89.24,257.36c10.28-11.28,23.44-28.17,34.34-51.01,9.85-20.65,14.68-39.49,17.17-53.63,7.5,13.35,17.37,28.19,30.37,43.16,33.73,38.82,72.19,66.52,97.73,77.49"/><path class="cls-2" d="m89.24,256.92c-1.69,5.13-.55,8.36,0,9.6,3.34,7.47,15.2,9.15,23.31,6.86,4.62-1.31,7.84-3.85,9.6-5.48,1.31,1.57,7.45,8.54,17.82,9.6,13.6,1.38,22.48-8.63,23.31-9.6,1.17,1.7,5.6,7.73,13.71,9.6,8.33,1.92,17.29-1.3,23.31-8.23,1.15,1.23,8.2,8.47,19.19,8.23,7.82-.17,13.23-4.03,15.08-5.48,1.83,1.53,8.85,7.03,19.19,6.86,8.39-.14,14.29-3.93,16.45-5.48.89,1.04,7.23,8.23,17.82,8.23s16.94-7.19,17.82-8.23c.77.76,9.68,9.26,21.94,6.86,9.43-1.85,17.01-9.41,19.19-19.19-12.75-15.95-27.11-36.91-39.76-63.07-8.62-17.82-14.76-34.58-19.19-49.36-6.25,12.99-15.78,29.55-30.16,46.62-15.5,18.4-31.45,31.22-43.87,39.76"/><path class="cls-2" d="m142.03,152.04c8.28,5.34,23.7,15.57,39.08,21.25,13.5,4.99,27.27,10.08,42.5,9.6,29.7-.93,56.56-23.97,64.44-32.91"/><path class="cls-2" d="m142.71,148.61v-69.92l39.76,20.57-35.65,23.31"/><path class="cls-2" d="m288.04,151.35v-69.92l39.76,20.57-35.65,23.31"/><path class="cls-2" d="m104.32,278.86c.91,26.05,1.83,52.1,2.74,78.15,73.58-.91,147.16-1.83,220.74-2.74v-71.3"/><path class="cls-2" d="m216.75,280.23c.06,7.79-.87,20.38-6.86,34.28-9.49,22.05-27.92,35.94-34.96,40.44"/><path class="cls-2" d="m227.72,280.23c-.06,7.79.87,20.38,6.86,34.28,9.49,22.05,25.86,33.89,32.91,38.39"/><line class="cls-2" x1="33.48" y1="317.94" x2="101.16" y2="317.94"/><line class="cls-2" x1="334.32" y1="318.05" x2="402.01" y2="318.05"/><line class="cls-2" x1="179.05" y1="359.92" x2="162.59" y2="420.26"/><line class="cls-2" x1="267.59" y1="356.92" x2="284.05" y2="417.26"/><line class="cls-1" x1="231" y1="46.01" x2="231" y2="58.85"/><line class="cls-1" x1="237" y1="52.43" x2="224.58" y2="52.43"/><line class="cls-1" x1="248" y1="84.01" x2="248" y2="96.85"/><line class="cls-1" x1="254" y1="90.43" x2="241.58" y2="90.43"/><line class="cls-1" x1="96" y1="71.01" x2="96" y2="83.85"/><line class="cls-1" x1="102" y1="77.43" x2="89.58" y2="77.43"/><line class="cls-1" x1="189" y1="28.01" x2="189" y2="40.85"/><line class="cls-1" x1="195" y1="34.43" x2="182.58" y2="34.43"/><line class="cls-1" x1="294" y1="45.01" x2="294" y2="58.85"/><line class="cls-1" x1="300" y1="51.93" x2="287.58" y2="51.93"/><line class="cls-1" x1="379" y1="126.01" x2="379" y2="139.85"/><line class="cls-1" x1="385" y1="132.93" x2="372.58" y2="132.93"/><line class="cls-1" x1="353" y1="162.01" x2="353" y2="175.85"/><line class="cls-1" x1="359" y1="168.93" x2="346.58" y2="168.93"/><line class="cls-1" x1="68" y1="119.01" x2="68" y2="130.85"/><line class="cls-1" x1="74" y1="124.93" x2="61.58" y2="124.93"/></svg>