<?xml version="1.0" encoding="UTF-8"?><svg id="Layer_1" xmlns="http://www.w3.org/2000/svg" width="436" height="436" viewBox="0 0 436 436"><defs><style>.cls-1{stroke-linecap:round;stroke-linejoin:round;}.cls-1,.cls-2{fill:none;stroke:#fff;stroke-width:10px;}.cls-2{stroke-miterlimit:10;}</style></defs><circle class="cls-2" cx="218" cy="218" r="213"/><path class="cls-1" d="m93,254h85c-2.99-4.16-7.61-10.72-13-19-7.95-12.23-8.64-14.47-11-16-6.16-4-20.97-1.42-61,35Z"/><line class="cls-1" x1="11" y1="234" x2="115" y2="234"/><line class="cls-1" x1="166" y1="234" x2="428" y2="234"/><path class="cls-1" d="m69,234c16.16-4.32,28.41-9.95,36.66-14.37,13.72-7.35,16.76-11.55,18.33-14.37,2.96-5.33,2.79-9.6,7.13-15.39,4-5.34,8.75-7.84,11.2-9.24,22.22-12.66,52.75-44.05,59.06-53.37.34-.5,2.75-4.1,7.13-7.18,2.06-1.45,4.34-3.02,7.13-3.08,4.26-.09,7.52,3.39,9.16,5.13,12.46,13.18,23.99,23.08,28.51,26.68,7.1,5.66,6.23,3.21,12.22,8.21,13.45,11.23,14.18,20.52,26.47,30.79,5.53,4.62,8.74,5.54,15.27,9.24,10.75,6.08,25.42,16.79,40.73,36.95"/><path class="cls-1" d="m36,234c9.4-3.07,20.45-7.63,32.03-14.52,16.16-9.63,36.03-27.85,48.05-44.61,1.25-1.75,3.86-5.5,8.54-9.34,2.04-1.67,8.18-6.37,23.49-10.38,7.12-1.87,17.31-3.86,29.89-4.15"/><path class="cls-1" d="m389,233c-23.35-19.02-34.32-30.7-40-38-1.68-2.17-8.49-11.13-19-22-2.89-2.99-3.73-4.92-6-6-9.67-4.6-24.61,8.03-32,15"/><path class="cls-1" d="m81,101h92c-.22-2.77-1.12-9.23-6-15-9.14-10.79-23.76-9.16-25-9-3.42-3.22-11.27-9.6-22-10-16.37-.6-32.96,12.96-39,34Z"/><path class="cls-1" d="m265,77c-1.89-2.5-6.43-7.74-14-10-10.19-3.05-21.72.52-30,9-.9-.25-12.6-3.23-22,5-8.87,7.76-8.1,18.85-8,20h162c-.55-9.86-6.07-18.15-14-21-5.56-2-10.69-.74-13,0-1.1-1.42-10.19-12.81-26-13-15.52-.19-24.81,10.57-26,12-2.05-.39-9.91-1.64-18,3-8.65,4.96-11.42,13.14-12,15"/><line class="cls-1" x1="182" y1="275" x2="240.54" y2="275"/><line class="cls-1" x1="157" y1="302" x2="258.54" y2="302"/><line class="cls-1" x1="263" y1="275" x2="282" y2="275"/><line class="cls-1" x1="276" y1="302" x2="307" y2="302"/><line class="cls-1" x1="325" y1="302" x2="402" y2="302"/><line class="cls-1" x1="119" y1="302" x2="138" y2="302"/><line class="cls-1" x1="211" y1="329" x2="226" y2="329"/><line class="cls-1" x1="128" y1="329" x2="188" y2="329"/><line class="cls-1" x1="51" y1="329" x2="111" y2="329"/><line class="cls-1" x1="108" y1="356" x2="168" y2="356"/></svg>