<?xml version="1.0" encoding="UTF-8"?><svg id="Layer_1" xmlns="http://www.w3.org/2000/svg" width="436" height="436.01" viewBox="0 0 436 436.01"><defs><style>.cls-1{fill:#fff;}.cls-2{stroke-width:5px;}.cls-2,.cls-3,.cls-4,.cls-5{fill:none;stroke:#fff;}.cls-2,.cls-3,.cls-5{stroke-linecap:round;stroke-linejoin:round;}.cls-3,.cls-4{stroke-width:10px;}.cls-4{stroke-miterlimit:10;}.cls-5{stroke-width:7px;}</style></defs><path class="cls-3" d="m31.39,315.17h374"/><path class="cls-3" d="m65.39,363.17h308"/><path class="cls-3" d="m48.39,344.17h341"/><circle class="cls-3" cx="221.89" cy="272.67" r="42.5"/><circle class="cls-3" cx="221.39" cy="273.17" r="24"/><polyline class="cls-3" points="232.39 229.17 232.39 208.37 277.49 208.37 277.49 250.4 262.23 250.4"/><polyline class="cls-3" points="211.49 229.17 211.49 208.37 166.39 208.37 166.39 250.4 181.64 250.4"/><line class="cls-3" x1="169.39" y1="225.17" x2="208.84" y2="225.17"/><line class="cls-3" x1="233.9" y1="225.17" x2="277.49" y2="225.17"/><polyline class="cls-3" points="137.39 314.17 148.39 294.17 159.08 314.17"/><line class="cls-3" x1="148.39" y1="294.17" x2="148.39" y2="195.17"/><line class="cls-3" x1="115.39" y1="190.17" x2="180.39" y2="190.17"/><path class="cls-3" d="m115.39,189.17c15-25.95,51-24.71,65,0"/><circle class="cls-1" cx="148.39" cy="163.17" r="4"/><polyline class="cls-3" points="286.39 314.17 297.39 294.17 308.08 314.17"/><line class="cls-3" x1="297.39" y1="294.17" x2="297.39" y2="195.17"/><line class="cls-3" x1="264.39" y1="190.17" x2="329.39" y2="190.17"/><path class="cls-3" d="m264.39,189.17c15-25.95,51-24.71,65,0"/><circle class="cls-1" cx="297.39" cy="163.17" r="4"/><path class="cls-3" d="m83.39,58.17c80.49,59.82,197.62,59.82,270,0"/><polygon class="cls-5" points="115.77 114.62 142.27 91.34 114.66 79.36 115.77 114.62"/><polygon class="cls-5" points="182.84 134.11 202.79 105.01 173.07 100.21 182.84 134.11"/><polygon class="cls-5" points="258 133.04 267.16 98.97 237.53 104.31 258 133.04"/><polygon class="cls-5" points="326.89 116.35 326.89 81.07 299.66 93.91 326.89 116.35"/><path class="cls-4" d="m431,218.01c0,117.64-95.36,213-213,213S5,335.65,5,218.01c0-50.19,18.31-88.07,25.26-100.7C65.82,52.67,138.5,4.18,218,5.01c105.98,1.1,213,89.73,213,213Z"/><line class="cls-2" x1="370.87" y1="160.76" x2="370.87" y2="173.61"/><line class="cls-2" x1="376.87" y1="167.18" x2="364.45" y2="167.18"/><line class="cls-2" x1="359.87" y1="115.76" x2="359.87" y2="128.61"/><line class="cls-2" x1="365.87" y1="122.18" x2="353.45" y2="122.18"/><line class="cls-2" x1="387.87" y1="133.76" x2="387.87" y2="146.61"/><line class="cls-2" x1="393.87" y1="140.18" x2="381.45" y2="140.18"/><line class="cls-2" x1="68.45" y1="189.76" x2="68.45" y2="202.61"/><line class="cls-2" x1="62.45" y1="196.18" x2="74.87" y2="196.18"/><line class="cls-2" x1="79.45" y1="144.76" x2="79.45" y2="157.61"/><line class="cls-2" x1="73.45" y1="151.18" x2="85.87" y2="151.18"/><line class="cls-2" x1="51.45" y1="162.76" x2="51.45" y2="175.61"/><line class="cls-2" x1="45.45" y1="169.18" x2="57.87" y2="169.18"/></svg>