<?xml version="1.0" encoding="UTF-8"?><svg id="Layer_1" xmlns="http://www.w3.org/2000/svg" width="436" height="436.01" viewBox="0 0 436 436.01"><defs><style>.cls-1{fill:#fff;}.cls-2,.cls-3{stroke-width:10px;}.cls-2,.cls-3,.cls-4{fill:none;stroke:#fff;}.cls-2,.cls-4{stroke-linecap:round;stroke-linejoin:round;}.cls-3{stroke-miterlimit:10;}.cls-4{stroke-width:9px;}</style></defs><path class="cls-2" d="m188.43,43.09c-1.89-2.5-6.43-7.74-14-10-10.19-3.05-21.72.52-30,9-.9-.25-12.6-3.23-22,5-8.87,7.76-8.1,18.85-8,20h162c-.55-9.86-6.07-18.15-14-21-5.56-2-10.69-.74-13,0-1.1-1.42-10.19-12.81-26-13-15.52-.19-24.81,10.57-26,12-2.05-.39-9.91-1.64-18,3-8.65,4.96-11.42,13.14-12,15"/><path class="cls-3" d="m431,218.01c0,117.64-95.36,213-213,213S5,335.65,5,218.01c0-50.19,18.31-88.07,25.26-100.7C65.82,52.67,138.5,4.18,218,5.01c105.98,1.1,213,89.73,213,213Z"/><path class="cls-2" d="m266.43,425.09c17.63-21.75,29.95-41.05,38-54.79,14.01-23.91,41.58-70.99,56-132.92,3.18-13.66,5.81-28.44,16-46.67,11.4-20.41,26.09-34.1,37-42.62"/><path class="cls-2" d="m409.43,136.09c-20.78,8.25-49.21,23.35-68.95,52-9.48,13.76-13.48,25.61-15.44,31-19.15,52.86-58.16,100.45-86.44,127-18.87,17.71-54.11,45.26-112.17,63"/><path class="cls-2" d="m47.43,342.85c13.65,2.08,34.21,3.78,58.5,0,53.36-8.3,89.08-37.48,106.91-52.41,25.07-21,42.28-43.54,70.6-80.64,17.58-23.02,19.07-27.48,29.25-38.3,29.01-30.83,63.96-44.6,88.75-51.41"/><path class="cls-2" d="m56.43,83.65c5.16-1.15,13.02-2.26,22.33-1,4.79.65,16.3,2.78,32.48,14.06,16.54,11.54,26.08,24.36,27.4,26.11,11.73,15.49,42.25,38.11,122.8,70.28"/><path class="cls-2" d="m249.43,248.09c-1.54-1.45-7.61-7.53-8-17-.09-2.33-.25-8.4,4-14,5.37-7.07,13.59-7.88,15-8-.03-2.2.13-5.35,1-9,1.18-4.95,3.52-10.11,6-13,5.78-6.75,21.32-11.18,34-7"/><polyline class="cls-2" points="203.43 320.09 212.43 333.09 224.29 320.09"/><polyline class="cls-2" points="395.43 254.09 403.2 275.09 413.43 254.09"/><polyline class="cls-2" points="354.43 335.09 362.2 350.09 372.43 335.09"/><polyline class="cls-2" points="114.43 372.09 123.43 385.09 135.29 372.09"/><circle class="cls-1" cx="93.93" cy="128.59" r="6.5"/><circle class="cls-1" cx="64.93" cy="157.59" r="6.5"/><circle class="cls-1" cx="113.93" cy="203.59" r="6.5"/><circle class="cls-1" cx="161.93" cy="248.59" r="6.5"/><circle class="cls-1" cx="210.93" cy="241.59" r="6.5"/><circle class="cls-4" cx="326.43" cy="80.09" r="30.5"/><path class="cls-2" d="m14.43,274.09c1.52-3.55,5.43-11.35,14-17,1.29-.85,18.27-11.64,36-3,14.54,7.08,18.45,21.8,19,24,2.64-1.8,6.87-4.21,12.5-5.5,3.54-.81,17.27-3.97,28,5,10.4,8.7,10.07,22.19,10,24,.97-1.26,6.39-8.05,14-8,9.11.06,18.58,9.88,19,24"/></svg>