<?xml version="1.0" encoding="UTF-8"?>
<svg id="Layer_2" data-name="Layer 2" xmlns="http://www.w3.org/2000/svg" viewBox="0 0 250 250">
  <defs>
    <style>
      .cls-1 {
        fill: #fff;
      }
    </style>
  </defs>
  <path class="cls-1" d="m46.5,223.8V27.92c19.44-1.28,35.71-1.92,48.82-1.92,20.88,0,38.07,4.82,51.58,14.44,13.51,9.63,20.26,23.25,20.26,40.85,0,11.92-3.89,23.02-11.66,33.29-7.78,10.27-16.48,18.43-26.1,24.48,7.57,9.35,16.93,20.49,28.09,33.43,11.15,12.93,18.36,21.04,21.64,24.34,12.48,11.92,26.6,18.71,42.37,20.36l-.3,8.8c-12.49-.18-22.61-1.88-30.39-5.09-7.78-3.2-15.2-8.12-22.26-14.72-7.06-6.6-24.61-27.14-52.65-61.63-20.06,0-38.28-.55-54.65-1.65v80.88h-14.75Zm60.48-90.24c9,0,18.62-5.32,28.86-15.96,10.23-10.63,15.35-22.97,15.35-37s-5.27-24.66-15.81-31.91c-10.55-7.24-24.51-10.87-41.91-10.87-9.21,0-19.95.37-32.24,1.1v93.26c16.37.92,31.63,1.38,45.75,1.38"/>
  <path class="cls-1" d="m239.5,11v228H11.5V11h228m11-11H.5v250h250V0h0Z"/>
</svg>