<?xml version="1.0" encoding="UTF-8"?>
<svg id="Layer_1" data-name="Layer 1" xmlns="http://www.w3.org/2000/svg" viewBox="0 0 64 64">
  <defs>
    <style>
        .cls-1 { fill: #000; }
        @media (prefers-color-scheme: dark) {
            .cls-1 { fill: #FFF; }
        }
    </style>
  </defs>
  <path class="cls-1" d="m5.37,37.39v25.85H.03c0-.14-.03-.29-.03-.43V1.03C0,.8-.07.57.43.55,6.31.25,12.2-.05,18.1-.03c4.9.02,9.64.64,14.06,2.34,4,1.54,7.33,3.68,9.51,6.8,1.44,2.07,2.17,4.3,2.42,6.64.36,3.32-.23,6.52-2.02,9.56-1.39,2.38-3.35,4.45-5.52,6.42-1.76,1.59-3.71,3.02-5.89,4.25-.09.05-.18.12-.3.2.64.68,1.24,1.35,1.88,2,5.22,5.29,10.34,10.64,15.69,15.84,3.71,3.61,8.53,6.02,14.43,6.94.55.09,1.1.15,1.63.22v2.81c-.93-.04-1.78-.06-2.62-.11-3.18-.19-6.28-.63-9.16-1.77-3.4-1.35-6.3-3.2-8.67-5.51-3.59-3.51-7.09-7.08-10.57-10.65-2.48-2.55-4.86-5.15-7.27-7.74-.2-.21-.4-.31-.75-.31-5.06-.09-10.12-.19-15.18-.3-1.44-.03-2.89-.14-4.41-.21Zm0-3.44c.3.02.53.05.77.06,5.11.14,10.22.26,15.33.41,2.23.06,4.22-.47,6.07-1.41,2.01-1.02,3.69-2.32,5.23-3.74,4.78-4.39,6.47-9.46,5.19-15.11-.9-3.94-3.92-6.66-8.44-8.42-3.66-1.43-7.59-1.99-11.63-1.97-3.93.02-7.87.19-11.8.3q-.72.02-.72.57v28.79c0,.16,0,.32,0,.53Z"/>
</svg>